<svg width="124" height="19" viewBox="0 0 124 19" fill="none" xmlns="http://www.w3.org/2000/svg">
<line x1="2" y1="18.5" x2="109" y2="18.5" stroke="white" stroke-dasharray="5 3"/>
<path d="M1.358 12.986C1.932 13.028 3.192 13.056 4.088 13.056C6.16 13.056 7.728 12.132 7.728 10.116C7.728 8.814 6.972 8.072 6.006 7.834V7.806C6.846 7.414 7.406 6.7 7.406 5.58C7.406 4.222 6.524 3.158 4.186 3.158C3.206 3.158 1.904 3.2 1.358 3.228V12.986ZM4.298 8.786C5.376 8.786 6.006 9.206 6.006 10.032C6.006 10.956 5.376 11.446 4.214 11.446C3.724 11.446 3.318 11.404 3.08 11.376V8.786H4.298ZM4.158 4.768C5.082 4.768 5.698 5.188 5.698 5.986C5.698 6.882 5.04 7.288 4.242 7.288H3.08V4.81C3.388 4.782 3.766 4.768 4.158 4.768ZM16.8026 10.76C16.1306 11.278 15.3046 11.544 14.4786 11.544C12.4766 11.544 11.0906 10.144 11.0906 8.1C11.0906 5.972 12.4626 4.656 14.2826 4.656C15.2626 4.656 15.9066 4.922 16.4946 5.314L17.2646 4.04C16.6206 3.452 15.5566 3.046 14.2826 3.046C11.0486 3.046 9.27063 5.286 9.27063 8.1C9.27063 11.152 11.3286 13.154 14.3246 13.154C15.5986 13.154 16.8446 12.706 17.4606 12.048L16.8026 10.76ZM19.1725 13H24.9825V11.39H20.8945V8.856H24.4225V7.246H20.8945V4.81H24.8425V3.2H19.1725V13ZM30.192 13H31.914V5.958L35.036 10.27H35.288L38.382 5.916V13H40.09V3.2H38.466L35.274 7.778L31.928 3.2H30.192V13ZM41.5511 13H43.2871L44.3091 10.494H48.4951L49.5171 13H51.3511L47.2071 3.172H45.6951L41.5511 13ZM46.4091 5.398L47.8371 8.884H44.9671L46.4091 5.398ZM52.8189 13H54.5409V4.81H58.3489V3.2H52.8189V13ZM57.4378 13H59.1738L60.1958 10.494H64.3818L65.4038 13H67.2378L63.0938 3.172H61.5818L57.4378 13ZM62.2958 5.398L63.7238 8.884H60.8538L62.2958 5.398ZM71.1977 13.154C72.9757 13.154 74.6277 12.062 74.6277 10.256C74.6277 9.136 74.1097 8.226 72.9337 7.932V7.89C73.8437 7.358 74.2497 6.49 74.2497 5.734C74.2497 3.998 73.0317 3.046 71.3097 3.046C69.9657 3.046 68.7757 3.676 68.1317 4.572L69.1257 5.72C69.6717 4.992 70.3017 4.656 71.1137 4.656C71.9257 4.656 72.5417 5.062 72.5417 5.902C72.5417 6.714 71.8557 7.19 71.1277 7.19H70.1757V8.8H71.1837C72.3317 8.8 72.9197 9.318 72.9197 10.088C72.9197 11.096 72.0517 11.544 71.1137 11.544C70.3157 11.544 69.3777 11.026 68.7757 10.34L67.8377 11.502C68.3557 12.286 69.4617 13.154 71.1977 13.154ZM78.4071 13L83.5451 6.042V13H85.2671V3.2H83.7551L78.6171 10.172V3.2H76.8951V13H78.4071ZM94.185 13H95.893V3.2H94.185V7.204H89.705V3.2H87.983V13H89.705V8.814H94.185V13ZM106.278 13H107.986V3.2H106.278V13ZM101.28 8.1C102.484 8.1 103.184 8.646 103.184 9.696C103.184 10.844 102.512 11.418 101.252 11.418C100.916 11.418 100.636 11.39 100.328 11.376V8.17C100.72 8.128 101.014 8.1 101.28 8.1ZM100.328 3.2H98.606V13C99.18 13 100.118 13.028 101.042 13.028C103.548 13.028 105.004 11.726 105.004 9.654C105.004 7.736 103.842 6.49 101.42 6.49C101.14 6.49 100.762 6.504 100.328 6.56V3.2ZM115.664 6C115.172 6 114.926 6.60156 115.281 6.95703L118.781 10.457C119 10.6758 119.355 10.6758 119.574 10.457L123.074 6.95703C123.43 6.60156 123.184 6 122.691 6H115.664Z" fill="white"/>
</svg>
