<svg width="18" height="18" viewBox="0 0 18 18" fill="none" xmlns="http://www.w3.org/2000/svg">
<path d="M16.5476 12.6621L12.8289 11.0684C12.7292 11.0352 12.5964 11.002 12.4968 11.002C12.2976 11.002 12.032 11.1348 11.8992 11.3008L10.239 13.3262C8.04761 12.2637 5.39136 9.64062 4.36206 7.44922L6.38745 5.78906C6.55347 5.65625 6.68628 5.39062 6.68628 5.1582C6.68628 5.0918 6.65308 4.95898 6.61987 4.85938L5.02612 1.14062C4.89331 0.875 4.56128 0.675781 4.26245 0.675781C4.22925 0.675781 4.16284 0.675781 4.09644 0.675781L0.643311 1.47266C0.311279 1.53906 0.0456543 1.9043 0.0456543 2.23633C0.0456543 10.7695 6.9187 17.6426 15.4519 17.6426C15.7839 17.6426 16.1492 17.377 16.2156 17.0449L17.0125 13.5918C17.0125 13.5254 17.0125 13.459 17.0125 13.4258C17.0125 13.127 16.8132 12.7949 16.5476 12.6621Z" fill="white"/>
</svg>
