<svg xmlns="http://www.w3.org/2000/svg" width="28" height="28" fill="none"><rect id="backgroundrect" width="100%" height="100%" x="0" y="0" fill="none" stroke="none"/>

<defs>
<clipPath id="clip0_1047_1957">
<rect width="38" height="38" fill="white" id="svg_1"/>
</clipPath>
</defs>
<g class="currentLayer" style=""><title>Layer 1</title><g clip-path="url(#clip0_1047_1957)" id="svg_2" class="">
<path d="M13.939997079467773,0.00000123202 C19.264897079467772,0.00000123202 24.124097079467774,3.03524 26.460397079467775,7.82018 C28.796497079467777,12.6054 28.201197079467775,18.3036 24.926597079467776,22.5022 C25.548797079467775,23.9983 25.903197079467773,25.5925 25.973397079467773,27.2111 C25.979197079467774,27.383 25.915197079467774,27.5497 25.79589707946777,27.6734 C25.676497079467772,27.7971 25.511997079467776,27.8667 25.33999707946777,27.8667 C25.275697079467776,27.8664 25.211697079467775,27.8565 25.150197079467773,27.837600000000002 C23.757897079467774,27.3478 22.44399707946777,26.6584 21.249297079467773,25.7919 C16.220997079467775,28.8937 9.783497079467775,28.487 5.185297079467773,24.7776 C0.5871970794677743,21.0679 -1.171522920532226,14.862 0.7967970794677743,9.29157 C2.764897079467774,3.72114 8.032197079467775,-0.0024727300000000007 13.939997079467773,0.00000123202 zM13.939997079467773,26.6 C16.424497079467773,26.6046 18.854597079467773,25.8723 20.923097079467773,24.4962 C21.148197079467774,24.3462 21.443597079467775,24.3555 21.658497079467775,24.5194 C22.575397079467777,25.2137 23.568697079467775,25.8003 24.619197079467774,26.2682 C24.501397079467772,25.0408 24.163997079467777,23.8446 23.62249707946777,22.7366 C23.493797079467775,22.5084 23.519197079467773,22.2248 23.68589707946777,22.0229 C27.474797079467777,17.4575 27.587297079467774,10.8737 23.956497079467773,6.1815 C20.325597079467773,1.4893200000000002 13.924297079467774,-0.05380740000000001 8.554197079467773,2.46808 C3.183897079467773,4.99028 0.28409707946777374,10.9021 1.5763970794677729,16.6924 C2.8687970794677735,22.483 8.007197079467772,26.6006 13.939997079467773,26.6 z" fill="white" id="svg_3"/>
<path d="M15.419897079467773,11.8 C15.419897079467773,14.44 11.579897079467774,14.14 12.159897079467772,17.66 L14.259897079467773,17.64 C13.839897079467775,15.12 17.879897079467774,15.22 17.879897079467774,11.3 C17.879897079467774,9.38 16.339897079467775,7.78 13.679897079467775,7.78 C11.879897079467774,7.78 10.439897079467773,8.66 9.719897079467774,9.82 L11.079897079467774,11.36 C11.719897079467774,10.52 12.439897079467773,10.08 13.539897079467774,10.08 C14.619897079467773,10.08 15.419897079467773,10.86 15.419897079467773,11.8 zM11.719897079467774,20.5 C11.719897079467774,21.32 12.319897079467772,22.1 13.299897079467772,22.1 C14.179897079467775,22.1 14.779897079467773,21.32 14.779897079467773,20.5 C14.779897079467773,19.8 14.179897079467775,19.02 13.299897079467772,19.02 C12.319897079467772,19.02 11.719897079467774,19.8 11.719897079467774,20.5 z" fill="white" id="svg_4"/>
</g></g></svg>