<svg width="32" height="32" viewBox="0 0 32 32" fill="none" xmlns="http://www.w3.org/2000/svg">
<path d="M30.697 12.5405L24 9.6705V4C24 3.8674 23.9473 3.74025 23.8535 3.6465L21.3535 1.1465C21.2598 1.05273 21.1326 1.00003 21 1H2.5C2.10218 1 1.72064 1.15804 1.43934 1.43934C1.15804 1.72064 1 2.10218 1 2.5V29.5C1 29.8978 1.15804 30.2794 1.43934 30.5607C1.72064 30.842 2.10218 31 2.5 31H22.5C22.8978 31 23.2794 30.842 23.5607 30.5607C23.842 30.2794 24 29.8978 24 29.5V28.257L26.603 26.4C27.9621 25.4272 29.0698 24.1446 29.8345 22.6585C30.5991 21.1723 30.9987 19.5253 31 17.854V13C31 12.9022 30.9713 12.8065 30.9174 12.7248C30.8636 12.6431 30.7869 12.579 30.697 12.5405ZM23 4.207V4.5H20.5V2H20.793L23 4.207ZM22.5 30H2.5C2.36739 30 2.24021 29.9473 2.14645 29.8536C2.05268 29.7598 2 29.6326 2 29.5V2.5C2 2.36739 2.05268 2.24021 2.14645 2.14645C2.24021 2.05268 2.36739 2 2.5 2H19.5V5C19.5 5.13261 19.5527 5.25979 19.6464 5.35355C19.7402 5.44732 19.8674 5.5 20 5.5H23V9.6705L16.303 12.5405C16.2131 12.579 16.1364 12.6431 16.0826 12.7248C16.0287 12.8065 16 12.9022 16 13V17.854C16.0013 19.5253 16.4009 21.1723 17.1655 22.6585C17.9302 24.1446 19.0379 25.4272 20.397 26.4L23 28.257V29.5C23 29.6326 22.9473 29.7598 22.8536 29.8536C22.7598 29.9473 22.6326 30 22.5 30ZM30 17.854C29.9985 19.3659 29.6369 20.8556 28.9452 22.2C28.2534 23.5443 27.2514 24.7045 26.022 25.5845L23.5 27.3855L20.978 25.5855C19.7485 24.7054 18.7464 23.545 18.0546 22.2005C17.3628 20.856 17.0013 19.366 17 17.854V13.3295L23.5 10.544L30 13.3295V17.854Z" fill="white"/>
<path d="M23.314 12.0356L18.314 14.0356C18.2213 14.0728 18.1418 14.1369 18.0858 14.2197C18.0298 14.3025 17.9999 14.4002 18 14.5001V17.6551C17.9971 18.9304 18.2825 20.1898 18.8349 21.3392C19.3873 22.4886 20.1924 23.4982 21.19 24.2926L23.1875 25.8926C23.2762 25.9636 23.3864 26.0023 23.5 26.0023C23.6136 26.0023 23.7238 25.9636 23.8125 25.8926L25.81 24.2926C26.8077 23.4982 27.6128 22.4886 28.1652 21.3392C28.7176 20.1898 29.003 18.9304 29 17.6551V14.5001C29.0001 14.4002 28.9702 14.3025 28.9143 14.2197C28.8583 14.1369 28.7788 14.0728 28.686 14.0356L23.686 12.0356C23.5666 11.9881 23.4335 11.9881 23.314 12.0356ZM28 14.8386V17.6551C28.0027 18.7802 27.751 19.8914 27.2636 20.9055C26.7762 21.9196 26.0658 22.8104 25.1855 23.5111L23.5 24.8601L21.8145 23.5101C20.9344 22.8095 20.2241 21.9189 19.7367 20.905C19.2493 19.8911 18.9975 18.7801 19 17.6551V14.8386L23.5 13.0386L28 14.8386Z" fill="white"/>
<path d="M3.5 10H17.5C17.6326 10 17.7598 9.94732 17.8536 9.85355C17.9473 9.75979 18 9.63261 18 9.5V3.5C18 3.36739 17.9473 3.24021 17.8536 3.14645C17.7598 3.05268 17.6326 3 17.5 3H3.5C3.36739 3 3.24021 3.05268 3.14645 3.14645C3.05268 3.24021 3 3.36739 3 3.5V9.5C3 9.63261 3.05268 9.75979 3.14645 9.85355C3.24021 9.94732 3.36739 10 3.5 10ZM4 4H17V9H4V4Z" fill="white"/>
<path d="M14.5 22H3.5C3.36739 22 3.24021 22.0527 3.14645 22.1464C3.05268 22.2402 3 22.3674 3 22.5V28.5C3 28.6326 3.05268 28.7598 3.14645 28.8536C3.24021 28.9473 3.36739 29 3.5 29H14.5C14.6326 29 14.7598 28.9473 14.8536 28.8536C14.9473 28.7598 15 28.6326 15 28.5V22.5C15 22.3674 14.9473 22.2402 14.8536 22.1464C14.7598 22.0527 14.6326 22 14.5 22ZM14 28H4V23H14V28Z" fill="white"/>
<path d="M3 12.5H15V13.5H3V12.5Z" fill="white"/>
<path d="M3 15.5H15V16.5H3V15.5Z" fill="white"/>
<path d="M3 18.5H15V19.5H3V18.5Z" fill="white"/>
</svg>
