<svg width="77" height="106" viewBox="0 0 77 106" fill="none" xmlns="http://www.w3.org/2000/svg">
<path fill-rule="evenodd" clip-rule="evenodd" d="M71.9296 34.9871V32.6952L71.917 32.6572C71.917 32.6066 71.8917 32.1127 71.6513 31.4543C71.4109 30.7958 70.9429 29.9601 70.0447 29.3396L70.0194 29.3269L69.8296 29.6435L70.032 29.3269H70.0194L69.8296 29.6435L70.032 29.3269L69.9814 29.3016C69.7663 29.1243 68.7163 28.2886 67.7043 26.2372C66.6796 24.1985 65.6928 20.9442 65.6169 15.9551V15.9425C65.6042 15.8791 65.5283 11.9537 63.1247 7.96496C61.9229 5.97691 60.1265 3.96354 57.4824 2.46935C54.8384 0.975148 51.3595 -0.0125424 46.8178 0.000120341H38.5316C38.1647 0.000120341 37.8611 0.291362 37.8611 0.65858C37.8611 1.0258 38.1647 1.3297 38.5316 1.3297H46.8178C51.1697 1.3297 54.4083 2.26674 56.8246 3.63431C58.6463 4.65999 60.0126 5.93892 61.05 7.29383C62.606 9.31986 63.4283 11.4978 63.8458 13.1693C64.0482 14.0051 64.162 14.7142 64.2253 15.2207C64.2506 15.4613 64.2633 15.6639 64.2759 15.7905C64.2759 15.8538 64.2759 15.9045 64.2759 15.9298V15.9678L64.2886 15.9804V15.9678C64.3645 21.5647 65.5663 25.1609 66.7934 27.3769C68.0079 29.5802 69.2224 30.4033 69.3109 30.4539L69.6651 29.8841L69.2856 30.4286C69.8928 30.8591 70.2218 31.4289 70.3989 31.9101C70.4874 32.1507 70.538 32.366 70.5633 32.5179C70.576 32.5939 70.5886 32.6446 70.5886 32.6825V32.7205V32.7332L70.867 32.7079L70.5886 32.7205V32.7332L70.867 32.7079L70.5886 32.7205L71.2591 32.6952H70.5886V34.9871C70.5886 35.3544 70.8923 35.6583 71.2591 35.6583C71.626 35.6583 71.9296 35.3544 71.9296 34.9871Z" fill="#363C46"/>
<path fill-rule="evenodd" clip-rule="evenodd" d="M10.1812 34.9871V32.6952H9.51075L10.1812 32.7205L9.90292 32.7079L10.1812 32.7332V32.7205L9.90292 32.7079L10.1812 32.7332C10.1812 32.7205 10.2065 32.3406 10.3836 31.8721C10.5734 31.3909 10.9023 30.8464 11.4843 30.4286L11.1047 29.8841L11.459 30.4539C11.5475 30.4033 12.762 29.5802 13.9891 27.3769C15.2036 25.1609 16.4054 21.5647 16.4813 15.9678V15.9804V15.9678C16.494 15.8032 16.6458 12.0803 18.885 8.48413C20.0109 6.68602 21.6428 4.90058 24.0591 3.571C26.4628 2.22875 29.6634 1.3297 33.952 1.3297H42.2383C42.6052 1.3297 42.9088 1.0258 42.9088 0.65858C42.9088 0.291362 42.6052 0.000120341 42.2383 0.000120341H33.952C29.4104 -0.0125424 25.9315 0.975148 23.2874 2.46935C21.3013 3.59633 19.7958 5.00189 18.6573 6.48342C16.9621 8.68673 16.0891 11.042 15.6337 12.8528C15.1909 14.6509 15.153 15.9045 15.153 15.9425V15.9551C15.0644 21.3621 13.9132 24.7304 12.8126 26.7311C12.2686 27.7314 11.7246 28.3899 11.3325 28.7951C11.1427 28.9977 10.9909 29.137 10.877 29.2256C10.8264 29.2636 10.7885 29.2889 10.7632 29.3143L10.7379 29.3269L10.9403 29.6435L10.7505 29.3269H10.7379L10.9403 29.6435L10.7505 29.3269L10.7252 29.3396C9.83967 29.9601 9.35894 30.7958 9.11857 31.4543C8.87821 32.1127 8.85291 32.6066 8.85291 32.6572V32.6952V34.9871C8.85291 35.3544 9.14387 35.6583 9.51075 35.6583C9.87762 35.6583 10.1812 35.3544 10.1812 34.9871Z" fill="#363C46"/>
<path fill-rule="evenodd" clip-rule="evenodd" d="M59.7596 72.62H26.6652V33.5176H59.7596V72.62Z" fill="#261F1A"/>
<path fill-rule="evenodd" clip-rule="evenodd" d="M60.4807 68.8214C51.5746 67.821 47.1848 65.1872 46.4384 64.6934H30.5616C29.8152 65.1872 25.4254 67.821 16.5193 68.8214C16.5193 68.8214 -0.470717 69.4545 0.0100125 100.288C0.0100125 100.288 12.7873 106.05 38.4937 105.999C64.2127 106.05 76.99 100.288 76.99 100.288C77.4707 69.4545 60.4807 68.8214 60.4807 68.8214Z" fill="#F6C7AE"/>
<path fill-rule="evenodd" clip-rule="evenodd" d="M16.5193 68.8217C16.5193 68.8217 -0.470717 69.4548 0.0100125 100.289C0.0100125 100.289 12.7873 106.05 38.4937 105.999C64.2127 106.05 76.99 100.289 76.99 100.289C77.4707 69.4548 60.4807 68.8217 60.4807 68.8217C60.4807 68.8217 43.9462 67.6567 38.4937 74.6972C38.4937 74.6972 33.2563 66.0359 16.5193 68.8217Z" fill="#FEFEFE"/>
<path fill-rule="evenodd" clip-rule="evenodd" d="M46.6029 67.9227H30.3972V56.1211H46.6029V67.9227Z" fill="#F6C7AE"/>
<path fill-rule="evenodd" clip-rule="evenodd" d="M42.5798 64.6935C41.593 64.6935 40.6189 64.6175 39.6448 64.5035C39.6574 64.5035 39.6827 64.5035 39.6827 64.5035C39.746 64.5035 39.5183 64.4655 39.2653 64.4149C39.0123 64.3769 38.7466 64.3262 38.7339 64.3262C38.7339 64.3262 38.7339 64.3262 38.7466 64.3262C38.2785 64.2376 37.8231 64.1236 37.3677 63.997C36.9122 63.883 36.4821 63.7437 36.0393 63.5918C35.9128 63.5411 35.4827 63.3639 35.3435 63.3132C34.8881 63.0853 34.458 62.8447 34.0278 62.5914C33.7242 62.4142 33.4333 62.2116 33.1549 62.0216C32.9652 61.895 32.7754 61.7684 32.5983 61.6291L32.5477 61.5911C31.9784 61.1352 31.4597 60.6287 30.9537 60.1096C30.8272 59.9829 30.7133 59.8563 30.5995 59.7297L30.6754 57.7036C33.0537 59.2358 35.6978 60.0969 38.4936 60.0969C38.5062 60.0969 38.5062 60.0969 38.5189 60.0969H38.5315C38.5442 60.0969 38.5442 60.0969 38.5442 60.0969H38.5568C38.5568 60.0969 38.5568 60.0969 38.5695 60.0969H38.5821C38.6074 60.0969 38.6201 60.0969 38.6327 60.0969C38.6454 60.0969 38.6454 60.0969 38.658 60.0969C41.5045 60.0589 44.1991 59.1472 46.6027 57.5264V64.149C46.1599 64.2882 45.7172 64.4149 45.2744 64.5162C45.1985 64.5162 44.5027 64.6175 44.3509 64.6301C43.8702 64.6681 43.4021 64.6808 42.934 64.6808C42.8201 64.6935 42.6936 64.6935 42.5798 64.6935Z" fill="#D1AC97"/>
<path fill-rule="evenodd" clip-rule="evenodd" d="M56.9385 34.797C56.9385 48.7639 48.6776 60.097 38.4937 60.097C28.3225 60.097 20.0615 48.7639 20.0615 34.797C20.0615 20.83 28.3225 12.0801 38.4937 12.0801C48.6776 12.0801 56.9259 20.83 56.9385 34.797Z" fill="#F6C7AE"/>
<path fill-rule="evenodd" clip-rule="evenodd" d="M46.1221 53.3351C46.1221 53.3351 22.0223 50.4607 28.6767 23.3879L28.6893 23.2992C31.2954 20.2349 34.8882 18.5254 38.8605 18.5254C41.3527 18.5254 43.6931 19.1965 45.7426 20.4628C49.0571 23.3246 50.9547 27.8071 52.9029 32.0112C53.1306 33.3534 53.2571 34.7843 53.2571 36.2785C53.2571 43.5595 50.398 49.9035 46.1221 53.3351Z" fill="#F9D5C0"/>
<path fill-rule="evenodd" clip-rule="evenodd" d="M38.4937 60.0964C35.6979 60.0964 33.0539 59.2353 30.6756 57.7031C30.6756 57.7031 24.3881 51.0932 22.326 41.9634C22.5538 41.4569 22.6929 40.8997 22.6929 40.3046V31.2001C22.6929 30.8329 22.6423 30.4783 22.5411 30.1364C23.4773 26.8568 25.2231 23.5012 28.1075 20.1709C25.4002 25.1093 24.3881 31.0988 25.0586 36.6071C25.9189 43.8375 29.3472 50.5614 35.622 54.5248C38.7974 56.5255 42.3902 57.4499 46.0083 57.4499C46.2487 57.4499 46.489 57.4499 46.7294 57.4372C44.2878 59.1087 41.5552 60.0584 38.6582 60.0964C38.6455 60.0964 38.6455 60.0964 38.6329 60.0964C38.6202 60.0964 38.6076 60.0964 38.5823 60.0964H38.5696C38.557 60.0964 38.557 60.0964 38.557 60.0964H38.5443C38.5443 60.0964 38.5443 60.0964 38.5317 60.0964H38.519C38.5064 60.0964 38.5064 60.0964 38.4937 60.0964Z" fill="#E3BAA2"/>
<path fill-rule="evenodd" clip-rule="evenodd" d="M29.7899 65.1494C28.0694 66.0865 23.8061 67.9985 16.5193 68.8216C16.5193 68.8216 -0.470717 69.4547 0.0100125 100.288C0.0100125 100.288 12.7873 106.05 38.4937 105.999C64.2127 106.05 76.99 100.288 76.99 100.288C77.4707 69.4547 60.4807 68.8216 60.4807 68.8216C53.1939 67.9985 48.9306 66.0865 47.2101 65.1494C47.2101 65.1494 56.268 85.3464 38.4937 103.53C38.4937 103.53 21.3266 85.8149 29.7899 65.1494Z" fill="#07B2C4"/>
<path fill-rule="evenodd" clip-rule="evenodd" d="M24.3755 79.8008L24.3881 79.9274C24.464 80.244 24.5273 80.5605 24.5906 80.8644C24.6412 80.8518 24.6918 80.8265 24.7297 80.8138C24.6159 80.4846 24.4893 80.1427 24.3755 79.8008Z" fill="#07B2C4"/>
<path fill-rule="evenodd" clip-rule="evenodd" d="M60.4806 68.8216C53.1938 67.9985 48.9304 66.0865 47.2099 65.1494C47.2099 65.1494 56.2679 85.3464 38.4935 103.53C38.4935 103.53 21.3264 85.8149 29.7898 65.1494C28.0693 66.0865 23.806 67.9985 16.5191 68.8216C16.5191 68.8216 13.698 76.1786 19.6439 82.7252C19.6439 82.7252 22.212 81.3323 23.6036 81.7375L18.6824 85.3464C18.6824 85.3464 19.8337 99.364 35.0778 105.999H42.8075C42.8075 105.999 56.0149 99.5666 58.3173 82.5226C58.3173 82.5226 57.0902 81.1297 53.295 79.9521C53.295 79.9521 55.6227 79.1544 58.3173 79.5596C58.3173 79.5596 63.3144 76.9257 60.4806 68.8216Z" fill="#009CB2"/>
<path fill-rule="evenodd" clip-rule="evenodd" d="M38.3292 103.353C38.2533 103.277 38.1648 103.163 38.0383 103.024C38.1648 103.163 38.2533 103.265 38.3292 103.353ZM27.6899 80.9022C27.5381 79.6233 27.4496 78.3064 27.4496 76.9514C27.4496 75.8625 27.5002 74.7608 27.6267 73.6465C27.3484 76.1537 27.4116 78.5849 27.6899 80.9022Z" fill="#EBECEC"/>
<path fill-rule="evenodd" clip-rule="evenodd" d="M19.644 82.7258C19.6313 82.7131 19.6313 82.7131 19.6313 82.7131C19.6313 82.7131 19.6313 82.7131 19.644 82.7258C19.644 82.7258 21.6175 81.6621 23.0344 81.6621C23.2368 81.6621 23.4266 81.6874 23.6037 81.7381C23.4266 81.6874 23.2368 81.6621 23.0344 81.6621C21.6175 81.6621 19.644 82.7258 19.644 82.7258Z" fill="#09A6B6"/>
<path fill-rule="evenodd" clip-rule="evenodd" d="M38.4431 105.999H35.078C19.8338 99.364 18.6826 85.3464 18.6826 85.3464L23.6037 81.7375C23.4266 81.6869 23.2369 81.6616 23.0344 81.6616C21.6176 81.6616 19.644 82.7252 19.644 82.7252C19.6314 82.7126 19.6314 82.7126 19.6314 82.7126C19.6314 82.6999 19.6187 82.6999 19.6187 82.6999C19.429 82.4846 19.2519 82.282 19.0748 82.0668C20.5549 81.383 21.9465 80.5093 22.9079 79.3063C25.2357 76.4065 25.8556 71.7973 22.1615 69.6573C21.1621 69.0748 20.1627 68.9102 19.138 68.9102C18.2398 68.9102 17.3289 69.0369 16.4181 69.1255C16.4687 68.9356 16.5193 68.8216 16.5193 68.8216C20.3019 68.4037 23.2622 67.682 25.4887 66.9475C25.5013 66.9855 25.5266 67.0235 25.5393 67.0615L28.3351 65.9472C26.3869 67.2894 23.4646 70.5184 25.9821 76.9764C25.9821 76.9764 26.1592 74.7857 27.6267 73.6461C27.5002 74.7604 27.4496 75.8621 27.4496 76.951C27.4496 78.306 27.5381 79.6229 27.6899 80.9018C27.0827 80.9651 26.4755 81.1424 25.9315 81.4843C22.9079 83.3584 21.6176 86.2455 22.1109 89.7277C22.4778 92.2856 24.2869 94.6028 25.9694 96.4643C27.6393 98.313 29.6761 99.9085 31.7508 101.289C33.1677 102.238 34.9515 103.226 36.7352 103.226C37.1654 103.226 37.6081 103.163 38.0383 103.024C38.1648 103.163 38.2533 103.277 38.3292 103.353C38.3798 103.403 38.4178 103.441 38.4431 103.467V105.999ZM38.4937 103.53C38.5063 103.517 38.5063 103.517 38.519 103.505C38.5063 103.517 38.5063 103.517 38.4937 103.53ZM38.9491 103.062C46.4004 95.2233 48.9306 87.0432 49.424 80.3067C49.8667 80.7752 50.2463 81.269 50.5625 81.7882C50.3981 81.9908 50.221 82.1934 50.0439 82.3833C50.0439 82.3833 50.4107 82.51 51.018 82.6493C54.6993 90.3988 47.1089 102.517 38.9491 103.062ZM49.4493 79.9648C49.4872 79.1923 49.5125 78.4579 49.5125 77.7361C49.5125 70.3031 47.2101 65.1494 47.2101 65.1494C48.4625 65.8332 51.0939 67.0488 55.2686 67.9732C55.1927 67.9479 55.1168 67.9352 55.0409 67.9225C55.3951 68.8976 55.6481 69.8979 55.6987 70.9616C55.7494 71.9366 55.6481 72.9623 55.3825 73.95C54.965 74.9503 54.459 75.9634 53.8897 77.0017C53.6746 77.255 53.4469 77.5082 53.1939 77.7361C52.068 78.7618 50.7902 79.4709 49.4493 79.9648Z" fill="#0092A6"/>
<path fill-rule="evenodd" clip-rule="evenodd" d="M38.4937 103.53C38.4937 103.53 38.4811 103.505 38.4431 103.467L38.4937 103.53ZM38.519 103.505C38.6582 103.365 38.7973 103.213 38.9491 103.062C38.81 103.213 38.6582 103.365 38.519 103.505Z" fill="#EBECEC"/>
<path fill-rule="evenodd" clip-rule="evenodd" d="M38.4931 103.53C38.4931 103.53 38.4806 103.504 38.4431 103.467C38.4806 103.504 38.4931 103.53 38.4931 103.53Z" fill="#0092A6"/>
<path fill-rule="evenodd" clip-rule="evenodd" d="M42.8076 105.999H38.4431V103.467C38.4811 103.505 38.4937 103.53 38.4937 103.53C38.5064 103.517 38.5064 103.517 38.519 103.505C38.6582 103.365 38.81 103.213 38.9491 103.061C47.1089 102.517 54.6994 90.3988 51.018 82.6492C51.8782 82.8392 53.2192 83.0798 54.7373 83.0798C55.8759 83.0798 57.103 82.9531 58.3048 82.5732C55.9897 99.5792 42.8076 105.999 42.8076 105.999Z" fill="#00899C"/>
<path fill-rule="evenodd" clip-rule="evenodd" d="M49.4238 80.3077C49.4238 80.1937 49.4365 80.0798 49.4491 79.9658C49.4365 80.0798 49.4238 80.1937 49.4238 80.3077Z" fill="#EBECEC"/>
<path fill-rule="evenodd" clip-rule="evenodd" d="M50.5624 81.7894C50.2461 81.2703 49.8666 80.7764 49.4238 80.3079C49.4238 80.1939 49.4365 80.08 49.4491 79.966C50.7901 79.4722 52.0678 78.763 53.1938 77.7374C53.4468 77.5094 53.6745 77.2562 53.8896 77.0029C52.9913 78.5984 51.8907 80.2193 50.5624 81.7894Z" fill="#00899C"/>
<path fill-rule="evenodd" clip-rule="evenodd" d="M57.2041 68.3525C56.5336 68.2386 55.8884 68.0993 55.2686 67.9727C55.8884 68.0993 56.5336 68.2386 57.2041 68.3525Z" fill="#261F1A"/>
<path fill-rule="evenodd" clip-rule="evenodd" d="M55.3825 73.9493C55.6481 72.9616 55.7493 71.9359 55.6987 70.9609C55.6481 69.8973 55.3951 68.8969 55.0409 67.9219C55.1168 67.9345 55.1927 67.9472 55.2686 67.9725C55.8885 68.0992 56.5337 68.2384 57.2042 68.3524C56.8247 70.0365 56.2427 71.9486 55.3825 73.9493Z" fill="#00899C"/>
<path fill-rule="evenodd" clip-rule="evenodd" d="M38.7593 103.125H38.2406V74.6973H38.7593V103.125Z" fill="#C5C6C6"/>
<path fill-rule="evenodd" clip-rule="evenodd" d="M29.79 65.1494C29.79 65.1494 22.4146 67.8086 25.9821 76.9764C25.9821 76.9764 26.8044 67.2641 38.5949 78.0654C38.6076 78.0654 39.3919 69.8979 34.8882 68.1631C34.8882 68.1631 29.79 67.3907 29.79 65.1494Z" fill="#DDDDDE"/>
<path fill-rule="evenodd" clip-rule="evenodd" d="M47.3745 65.1494C47.3745 65.1494 54.0162 67.6693 50.3221 75.8874C50.3221 75.8874 46.6661 67.3654 38.5949 78.0654C38.6075 78.0654 37.4563 69.0748 42.2763 68.1631C42.2763 68.1631 47.3745 67.3907 47.3745 65.1494Z" fill="#DDDDDE"/>
<path fill-rule="evenodd" clip-rule="evenodd" d="M64.2632 64.6941C64.2632 64.6941 63.909 40.9263 62.7072 27.0479C62.7072 27.0479 62.7198 26.9087 62.7072 26.6427C62.821 22.2488 60.974 16.9558 58.9752 13.8661C57.5203 11.6121 55.8504 9.47213 53.8643 7.66136C46.9316 1.33002 31.1435 0.962797 26.6651 10.7637C22.4524 13.7395 5.70276 28.6561 25.5392 67.0621L30.3971 65.1247L30.6754 57.7043C30.6754 57.7043 11.5601 37.6086 29.094 19.0831L29.1573 19.0451L29.094 19.0831C32.1808 17.5003 36.2164 17.1457 39.6068 17.6522C49.019 19.0831 51.0558 29.4032 55.104 36.3677C55.7872 37.5453 56.5336 38.8749 57.28 39.66C57.9378 45.4089 58.2667 52.7152 58.0011 62.0223C58.0011 62.0223 58.292 73.1655 50.0437 82.3839C50.0437 82.3839 68.3115 88.462 64.2632 64.6941Z" fill="#493428"/>
<path fill-rule="evenodd" clip-rule="evenodd" d="M29.1575 19.0441C29.4737 18.8415 29.79 18.6769 30.1189 18.5123C30.4478 18.335 30.7894 18.1957 31.131 18.0564C31.8141 17.7779 32.5226 17.5626 33.2437 17.36C33.6105 17.2714 33.9774 17.1954 34.3443 17.1194C34.7112 17.0561 35.078 17.0181 35.4449 16.9548C35.8244 16.8915 36.1913 16.9041 36.5708 16.8661C36.7606 16.8535 36.9503 16.8408 37.1401 16.8408L37.7094 16.8535C38.0763 16.8788 38.4684 16.8661 38.8353 16.9295L39.9739 17.0687C40.3408 17.1447 40.7203 17.246 41.0872 17.3347C41.4667 17.4106 41.8209 17.5373 42.1751 17.6766C42.542 17.8158 42.9089 17.9171 43.2504 18.0818L44.2878 18.5883C44.642 18.7529 44.9583 18.9682 45.2746 19.1834L46.236 19.8166L46.274 19.8419L46.3372 19.9052C46.6535 20.2597 46.9571 20.589 47.2607 20.9435C47.5517 21.2854 47.8553 21.6273 48.1336 21.9945C48.4119 22.3618 48.7029 22.7163 48.9559 23.0835L49.7656 24.2105C50.0186 24.5904 50.259 24.9829 50.512 25.3755C50.765 25.7554 50.9674 26.1732 51.1825 26.5784C51.3975 26.9963 51.6379 27.3888 51.8024 27.832C51.9795 28.2752 52.1692 28.7058 52.3337 29.149L52.8144 30.3393L53.3331 31.5802L53.8518 32.8085L54.3958 34.0368L54.9651 35.2524C55.1548 35.6449 55.3572 36.0501 55.5596 36.4427C55.7494 36.8479 55.9771 37.2404 56.1922 37.6203L56.5464 38.2028C56.6603 38.3801 56.7994 38.5573 56.9259 38.7473C56.7741 38.5953 56.597 38.4434 56.4325 38.2788L55.9645 37.7849C55.6861 37.4304 55.3952 37.0758 55.1295 36.7086C54.8638 36.3414 54.6108 35.9615 54.3578 35.5943C54.1048 35.2144 53.8644 34.8345 53.6241 34.442C53.1686 33.6569 52.7132 32.8718 52.2831 32.074L51.6632 30.8711L51.3596 30.2633L51.2078 29.9594L51.1319 29.8074L51.0939 29.7314L51.0686 29.6935V29.6681H51.056L51.0433 29.6175C50.8409 29.2249 50.6764 28.8324 50.4867 28.4525C50.3349 28.06 50.0692 27.6928 49.8668 27.3255C49.6517 26.9457 49.4367 26.5658 49.171 26.2112L48.4499 25.1222L47.6656 24.0712C47.3999 23.7167 47.1089 23.3748 46.8433 23.0329C46.5649 22.6783 46.2866 22.3491 46.0083 22.0072C45.73 21.6653 45.4264 21.3361 45.1481 21.0195L45.2493 21.1081L44.4017 20.5257C44.1107 20.3357 43.8324 20.1205 43.5161 19.9812C43.2125 19.8166 42.9089 19.6519 42.6052 19.4873C42.3016 19.3227 41.9727 19.2087 41.6564 19.0695C41.3402 18.9428 41.0239 18.8035 40.6823 18.7149L39.6829 18.4237L38.6582 18.2084C38.3293 18.1198 37.9751 18.1071 37.6208 18.0691L37.1022 18.0058C36.925 17.9931 36.7479 17.9931 36.5708 17.9805C36.2166 17.9805 35.8624 17.9298 35.5082 17.9551C35.1666 17.9678 34.7997 17.9678 34.4455 17.9931L33.3828 18.0944C33.0286 18.1451 32.6744 18.1831 32.3202 18.2464C31.9659 18.3224 31.6117 18.373 31.2575 18.449C30.9033 18.525 30.5491 18.6136 30.2075 18.7149C29.8533 18.8035 29.499 18.9175 29.1575 19.0441Z" fill="#2D2623"/>
<path fill-rule="evenodd" clip-rule="evenodd" d="M27.6772 66.2001C22.8446 57.8301 20.0488 50.5743 18.6319 44.357C18.6445 44.357 18.6445 44.357 18.6445 44.357C18.6572 44.357 18.6572 44.357 18.6572 44.357H18.6698C19.2771 44.3443 19.859 44.205 20.3777 43.9644C23.3886 56.0066 30.3971 65.1238 30.3971 65.1238L27.6772 66.2001ZM19.5554 27.2497C19.3024 27.199 19.0241 27.161 18.7457 27.1484H18.7331H18.7204H18.7078C18.6951 27.1484 18.6951 27.1484 18.6951 27.1484C18.6825 27.1484 18.6825 27.1484 18.6825 27.1484C18.6698 27.1484 18.6698 27.1484 18.6698 27.1484C18.6698 27.1484 18.6698 27.1484 18.6572 27.1484C18.6572 27.1484 18.6572 27.1484 18.6445 27.1484C18.6445 27.1484 18.6445 27.1484 18.6319 27.1484H18.6192C18.4548 27.1484 18.2903 27.161 18.1259 27.1737C20.1626 17.3728 25.944 13.0928 25.944 13.0928C22.3892 17.664 20.4283 22.4758 19.5554 27.2497Z" fill="#3E2D24"/>
<path fill-rule="evenodd" clip-rule="evenodd" d="M59.494 28.1244C59.4814 28.0737 59.4561 28.0231 59.4434 27.9724C59.3169 27.6305 59.1904 27.2506 59.0386 26.8581C58.7476 26.0604 58.4567 25.1486 58.0392 24.1989C57.8494 23.7304 57.647 23.2239 57.432 22.7174C57.1916 22.2109 56.9512 21.7044 56.6982 21.1726C56.4578 20.6281 56.1542 20.1089 55.8633 19.5771C55.7115 19.3111 55.5723 19.0452 55.4205 18.7666C55.256 18.5007 55.0789 18.2475 54.9145 17.9816C54.75 17.7156 54.5729 17.4497 54.4084 17.1838C54.2313 16.9179 54.0289 16.6646 53.8391 16.4114C53.6367 16.1581 53.447 15.8922 53.2572 15.639C53.0421 15.3984 52.8271 15.1578 52.612 14.9172C51.7644 13.9295 50.765 13.0811 49.7276 12.296L48.918 11.7768C48.7788 11.6882 48.6523 11.5869 48.5132 11.5109L48.083 11.283L47.6529 11.0677C47.5137 10.9917 47.3746 10.9031 47.2228 10.8525C46.9318 10.7258 46.6282 10.5992 46.3372 10.4726C45.1481 10.042 43.9209 9.68749 42.6938 9.53554C41.7323 9.40891 40.7709 9.33293 39.8347 9.33293C39.5944 9.33293 39.354 9.33293 39.1136 9.3456C37.9624 9.38358 36.8618 9.48488 35.8497 9.6495C33.8256 9.9534 32.1431 10.4219 30.9792 10.7765C30.3972 10.9538 29.9418 11.1057 29.6382 11.2197C29.3219 11.3336 29.1575 11.3843 29.1575 11.3843C29.1575 11.3843 29.7141 10.9538 30.8021 10.3459C31.3334 10.042 32.0039 9.68749 32.8009 9.3456C33.1931 9.16832 33.6232 8.99104 34.0786 8.81376C34.5467 8.64915 35.0274 8.47187 35.5461 8.33258C36.0648 8.16796 36.6088 8.04134 37.1781 7.88939C37.4564 7.82607 37.76 7.77542 38.051 7.72477C38.3546 7.66146 38.6582 7.61081 38.9618 7.58548C39.7588 7.45885 40.5938 7.4082 41.4414 7.4082C41.9348 7.4082 42.4281 7.42087 42.9215 7.45885C43.2631 7.49684 43.6173 7.52217 43.9715 7.56016C44.3131 7.62347 44.6673 7.68678 45.0215 7.7501C45.3758 7.81341 45.7173 7.91471 46.0716 8.00335L46.6029 8.1553L46.8686 8.23128L47.1216 8.33258C47.4758 8.45921 47.8174 8.5985 48.1589 8.72512C48.5132 8.86441 48.8294 9.05435 49.171 9.21897L49.677 9.47222C49.8415 9.56086 49.9933 9.67483 50.1451 9.76346L51.0939 10.3713C52.2831 11.283 53.4343 12.2707 54.3325 13.4103C54.5729 13.6889 54.8006 13.9675 55.0283 14.2461C55.2307 14.5373 55.4331 14.8412 55.6355 15.1324C55.8253 15.4237 56.0404 15.7023 56.2175 16.0062C56.3819 16.3101 56.5464 16.614 56.7109 16.9052C56.8753 17.2091 57.0398 17.513 57.2042 17.8043C57.3434 18.1082 57.4699 18.4121 57.6091 18.7033C57.8621 19.3111 58.1404 19.881 58.3302 20.4634C58.5326 21.0459 58.7223 21.6157 58.9121 22.1729C59.0639 22.7301 59.2031 23.2619 59.3296 23.7811C59.4561 24.3002 59.6079 24.7941 59.6838 25.2753C59.7597 25.7564 59.8483 26.1996 59.9242 26.6302C59.9748 27.0101 60.0507 27.3646 60.1013 27.7065C59.8862 27.8205 59.6838 27.9724 59.494 28.1244Z" fill="#3E2D24"/>
<path fill-rule="evenodd" clip-rule="evenodd" d="M56.8247 34.1646C56.8247 34.1646 56.7614 34.0126 56.6729 33.7087C56.5716 33.4048 56.4198 32.9743 56.268 32.4171C56.0909 31.86 55.9012 31.1762 55.6228 30.4164C55.4963 30.0365 55.3572 29.6313 55.218 29.2008C55.1548 28.9855 55.0789 28.7576 55.003 28.5423C54.9144 28.3144 54.8385 28.0865 54.7373 27.8585C54.5728 27.4027 54.3957 26.9215 54.206 26.4277C54.0288 25.9338 53.7885 25.44 53.5608 24.9208C53.4596 24.6675 53.3457 24.4016 53.2318 24.1357C53.118 23.8825 52.9788 23.6292 52.8523 23.3633C52.7258 23.11 52.5867 22.8441 52.4601 22.5782C52.3336 22.3123 52.1945 22.0337 52.03 21.7804C51.8909 21.5272 51.7264 21.2613 51.5746 21.008L51.3469 20.6028L51.233 20.4129L51.1065 20.2229C50.9294 19.9697 50.7523 19.7164 50.5752 19.4632C50.3981 19.2099 50.2463 18.944 50.0438 18.7161C49.8414 18.4755 49.6517 18.2349 49.4493 17.9943C49.3481 17.8677 49.2595 17.741 49.1583 17.6271L48.8294 17.2979L48.1968 16.6267C47.9691 16.4115 47.7288 16.2215 47.4884 16.0189C47.0456 15.5884 46.5269 15.2718 46.0336 14.9046C45.7805 14.74 45.5022 14.6007 45.2492 14.4361C45.1227 14.3601 44.9835 14.2841 44.857 14.2082L44.4396 14.0309C44.1739 13.9042 43.9082 13.765 43.6173 13.6637C43.3389 13.5624 43.0606 13.4611 42.7823 13.3598C42.504 13.2585 42.213 13.2078 41.9347 13.1318C41.7829 13.0938 41.6437 13.0558 41.5046 13.0179C41.3654 12.9925 41.2136 12.9672 41.0744 12.9419C40.7835 12.8912 40.5052 12.8279 40.2142 12.8026C39.9359 12.7646 39.6449 12.7393 39.3666 12.714C39.0883 12.6886 38.81 12.6886 38.5316 12.676C38.4051 12.6633 38.2786 12.6633 38.1521 12.6633C38.0003 12.6633 37.8485 12.676 37.6967 12.676C36.6087 12.6886 35.5714 12.8153 34.6226 12.9672C33.6611 13.1192 32.7882 13.3344 32.0165 13.537C31.2448 13.7396 30.5743 13.9422 30.0177 14.1322C29.4737 14.3348 29.0436 14.4867 28.7526 14.6007C28.4616 14.7147 28.3098 14.778 28.3098 14.778C28.3098 14.778 28.8285 14.3474 29.8279 13.727C30.3339 13.4231 30.9665 13.0685 31.7129 12.714C32.4593 12.3721 33.3322 12.0048 34.3189 11.7009C35.293 11.397 36.381 11.1185 37.5828 10.9918C38.2407 10.9032 38.9238 10.8525 39.6323 10.8525C40.2015 10.8525 40.7835 10.8905 41.3654 10.9665C42.6811 11.1185 44.06 11.4477 45.3378 12.0302L45.8311 12.2454C45.9956 12.3214 46.1474 12.4101 46.2992 12.486C46.6155 12.6633 46.9318 12.8279 47.2354 13.0179C47.8173 13.4357 48.4372 13.8029 48.9559 14.2968C49.2215 14.5374 49.4999 14.7653 49.7529 15.0059L50.474 15.7783L50.8408 16.1582C50.9547 16.2975 51.0559 16.4368 51.1571 16.5761C51.3722 16.8547 51.5872 17.1332 51.7897 17.4118C52.0174 17.6777 52.1818 17.969 52.3716 18.2602C52.5487 18.5515 52.7258 18.83 52.9029 19.1213L53.0294 19.3365L53.1433 19.5518C53.2192 19.7038 53.2951 19.8557 53.371 19.995C53.5228 20.2862 53.6746 20.5775 53.8138 20.8687C53.9656 21.16 54.0921 21.4512 54.206 21.7425C54.3198 22.0464 54.4463 22.3249 54.5602 22.6162C54.6614 22.9074 54.7879 23.186 54.8891 23.4772C54.9777 23.7558 55.0662 24.0471 55.1548 24.3256C55.2433 24.6042 55.3319 24.8828 55.4078 25.1487C55.4963 25.4146 55.5849 25.6806 55.6481 25.9591C55.762 26.491 55.8885 26.9975 56.0024 27.504C56.053 27.7446 56.1036 27.9852 56.1668 28.2258C56.2048 28.4663 56.2427 28.6943 56.2807 28.9222C56.3439 29.3781 56.4198 29.8086 56.4704 30.2138C56.6096 31.0242 56.6476 31.746 56.6982 32.3285C56.7488 32.911 56.7741 33.3795 56.7994 33.6834C56.812 33.9999 56.8247 34.1646 56.8247 34.1646Z" fill="#3E2D24"/>
<path fill-rule="evenodd" clip-rule="evenodd" d="M72.3344 35.7469C72.3344 36.6206 71.626 37.3297 70.7404 37.3297C69.8675 37.3297 69.1591 36.6206 69.1591 35.7469C69.1591 34.8732 69.8675 34.1641 70.7404 34.1641C71.626 34.1641 72.3344 34.8732 72.3344 35.7469Z" fill="#902C26"/>
<path fill-rule="evenodd" clip-rule="evenodd" d="M58.0771 31.2015C58.0771 28.9602 59.8989 27.1494 62.1507 27.1494C64.3899 27.1494 66.2116 28.9602 66.2116 31.2015V40.306C66.2116 42.5472 64.3899 44.358 62.1507 44.358C59.8989 44.358 58.0771 42.5472 58.0771 40.306V31.2015Z" fill="#4D525F"/>
<path fill-rule="evenodd" clip-rule="evenodd" d="M62.1506 44.358H62.1379H62.1506C62.6946 44.358 63.2132 44.2441 63.6813 44.0541C63.2132 44.2441 62.6946 44.358 62.1506 44.358ZM62.1379 44.358H62.1253H62.1379ZM62.1253 44.358H62.1126C62.1126 44.358 62.1126 44.358 62.1253 44.358ZM62.1 27.1494C62.1 27.1494 62.1 27.1494 62.1126 27.1494C62.1 27.1494 62.1 27.1494 62.1 27.1494ZM62.1126 27.1494C62.1126 27.1494 62.1126 27.1494 62.1253 27.1494H62.1126ZM62.1253 27.1494C62.1253 27.1494 62.1253 27.1494 62.1379 27.1494C62.1253 27.1494 62.1253 27.1494 62.1253 27.1494ZM62.1379 27.1494H62.1506H62.1379Z" fill="#3E2D24"/>
<path fill-rule="evenodd" clip-rule="evenodd" d="M62.1506 44.358H62.138H62.1253H62.1127C62.1127 44.358 62.1127 44.358 62.1 44.358C61.3157 44.3454 60.5819 44.1048 59.962 43.7122C62.353 43.383 64.0482 41.0784 64.4784 38.7864C64.9844 36.1146 64.744 33.5821 62.9856 31.4167C62.0241 30.2264 60.6199 29.7579 59.1777 29.7579C58.8994 29.7579 58.6084 29.7706 58.3301 29.8086C58.8994 28.2764 60.3416 27.1874 62.0621 27.1494C62.0747 27.1494 62.0747 27.1494 62.0747 27.1494C62.0874 27.1494 62.0874 27.1494 62.0874 27.1494C62.1 27.1494 62.1 27.1494 62.1 27.1494C62.1 27.1494 62.1 27.1494 62.1127 27.1494C62.1127 27.1494 62.1127 27.1494 62.1253 27.1494C62.1253 27.1494 62.1253 27.1494 62.138 27.1494H62.1506C63.8332 27.1494 65.2753 28.1624 65.8952 29.6186C65.8193 29.5933 65.7434 29.568 65.6675 29.5427V41.9521H65.6802C65.7561 41.9268 65.8193 41.9141 65.8952 41.8888C65.4778 42.8638 64.6808 43.6489 63.6814 44.0541C63.2133 44.2441 62.6946 44.358 62.1506 44.358Z" fill="#3F444D"/>
<path fill-rule="evenodd" clip-rule="evenodd" d="M59.9494 41.9137C59.709 41.9137 59.5193 41.7237 59.5193 41.4831V31.201C59.5193 30.9604 59.709 30.7705 59.9494 30.7705C60.1771 30.7705 60.3669 30.9604 60.3669 31.201V41.4831C60.3669 41.7237 60.1771 41.9137 59.9494 41.9137Z" fill="#666D7A"/>
<path fill-rule="evenodd" clip-rule="evenodd" d="M65.6676 29.542V41.9514C68.4002 41.2043 70.399 38.7098 70.399 35.7467C70.4116 32.7963 68.4002 30.3018 65.6676 29.542Z" fill="#D33331"/>
<path fill-rule="evenodd" clip-rule="evenodd" d="M65.6676 41.9516V32.6572C65.8827 34.9112 66.414 36.7979 68.4761 38.1275C68.8682 38.3681 69.2731 38.5327 69.7032 38.6593C68.8936 40.2422 67.4387 41.4578 65.6803 41.9516H65.6676Z" fill="#B4302C"/>
<path fill-rule="evenodd" clip-rule="evenodd" d="M66.9327 39.2036V39.2162C66.9327 39.2669 66.9959 39.862 66.9959 40.8117C66.9959 42.002 66.9074 43.7621 66.4899 45.6995C65.8826 48.6246 64.5796 51.9549 61.8724 54.5381C60.5187 55.8423 58.8109 56.9567 56.6349 57.7544C54.459 58.5648 51.815 59.046 48.589 59.046C48.2854 59.046 47.9944 59.0333 47.6782 59.0333C47.2607 59.0207 46.9191 59.3499 46.9065 59.7678C46.8938 60.1856 47.2228 60.5402 47.6402 60.5529C47.9565 60.5655 48.2728 60.5655 48.589 60.5655C53.0927 60.5655 56.6223 59.6665 59.3801 58.1976C61.4296 57.1086 63.0489 55.7031 64.2886 54.1455C66.161 51.8283 67.2236 49.1944 67.8056 46.8012C68.3875 44.4079 68.514 42.2426 68.514 40.8117C68.514 39.7227 68.4508 39.0643 68.4381 39.0389C68.4002 38.6211 68.0206 38.3172 67.6032 38.3678C67.1857 38.4185 66.8821 38.7857 66.9327 39.2036Z" fill="#363C46"/>
<path fill-rule="evenodd" clip-rule="evenodd" d="M48.4751 59.8693C48.4751 60.8949 47.6402 61.7307 46.6028 61.7307H44.0979C43.0732 61.7307 42.2383 60.8949 42.2383 59.8693C42.2383 58.8436 43.0732 58.0205 44.0979 58.0205H46.6028C47.6402 58.0205 48.4751 58.8436 48.4751 59.8693Z" fill="#2F353C"/>
<path fill-rule="evenodd" clip-rule="evenodd" d="M8.4353 35.7469C8.4353 36.6206 9.14375 37.3297 10.0293 37.3297C10.9022 37.3297 11.6233 36.6206 11.6233 35.7469C11.6233 34.8732 10.9022 34.1641 10.0293 34.1641C9.14375 34.1641 8.4353 34.8732 8.4353 35.7469Z" fill="#902C26"/>
<path fill-rule="evenodd" clip-rule="evenodd" d="M22.6929 31.2015C22.6929 28.9602 20.8712 27.1494 18.6194 27.1494C16.3802 27.1494 14.5585 28.9602 14.5585 31.2015V40.306C14.5585 42.5472 16.3802 44.358 18.6194 44.358C20.8712 44.358 22.6929 42.5472 22.6929 40.306V31.2015Z" fill="#4D525F"/>
<path fill-rule="evenodd" clip-rule="evenodd" d="M18.6192 44.3576C18.0626 44.3576 17.5313 44.2436 17.0505 44.041C17.5313 44.2436 18.0626 44.3576 18.6192 44.3576H18.6319H18.6192Z" fill="#3E2D24"/>
<path fill-rule="evenodd" clip-rule="evenodd" d="M18.6319 44.358C18.6446 44.358 18.6446 44.358 18.6446 44.358C18.6446 44.358 18.6446 44.358 18.6319 44.358ZM18.6446 44.358C18.6572 44.358 18.6572 44.358 18.6572 44.358C18.6572 44.358 18.6572 44.358 18.6446 44.358ZM18.6699 27.1494C18.6699 27.1494 18.6699 27.1494 18.6572 27.1494C18.6699 27.1494 18.6699 27.1494 18.6699 27.1494ZM18.6572 27.1494C18.6572 27.1494 18.6572 27.1494 18.6446 27.1494C18.6572 27.1494 18.6572 27.1494 18.6572 27.1494ZM18.6446 27.1494C18.6446 27.1494 18.6446 27.1494 18.6319 27.1494C18.6446 27.1494 18.6446 27.1494 18.6446 27.1494ZM18.6319 27.1494H18.6193H18.6319Z" fill="#362920"/>
<path fill-rule="evenodd" clip-rule="evenodd" d="M18.6194 44.358C18.0628 44.358 17.5314 44.2441 17.0507 44.0414C16.0766 43.6362 15.2922 42.8512 14.8748 41.8888C14.938 41.9015 15.0013 41.9268 15.0645 41.9394L15.0772 41.9521C15.0898 41.9521 15.0898 41.9521 15.0898 41.9521H15.1025V32.6577V29.5427C15.0266 29.568 14.9507 29.5933 14.8748 29.6186C15.4946 28.1624 16.9368 27.1494 18.6194 27.1494H18.632C18.6447 27.1494 18.6447 27.1494 18.6447 27.1494C18.6573 27.1494 18.6573 27.1494 18.6573 27.1494C18.67 27.1494 18.67 27.1494 18.67 27.1494C18.67 27.1494 18.67 27.1494 18.6826 27.1494C18.6826 27.1494 18.6826 27.1494 18.6953 27.1494C18.6953 27.1494 18.6953 27.1494 18.7079 27.1494H18.7206H18.7332H18.7459C20.4411 27.2001 21.8833 28.2891 22.4399 29.8086C22.1616 29.7706 21.8706 29.7579 21.5923 29.7579C20.1501 29.7579 18.7459 30.2264 17.7844 31.4167C16.026 33.5821 15.7856 36.1146 16.2916 38.7864C16.7218 41.0784 18.417 43.383 20.808 43.7122C20.1881 44.1048 19.4543 44.3454 18.67 44.358H18.6573C18.6573 44.358 18.6573 44.358 18.6447 44.358C18.6447 44.358 18.6447 44.358 18.632 44.358H18.6194Z" fill="#3F444D"/>
<path fill-rule="evenodd" clip-rule="evenodd" d="M20.8206 41.9137C20.5928 41.9137 20.4031 41.7237 20.4031 41.4831V31.201C20.4031 30.9604 20.5928 30.7705 20.8206 30.7705C21.0609 30.7705 21.2507 30.9604 21.2507 31.201V41.4831C21.2507 41.7237 21.0609 41.9137 20.8206 41.9137Z" fill="#666D7A"/>
<path fill-rule="evenodd" clip-rule="evenodd" d="M15.1023 29.542V41.9514C12.3698 41.2043 10.3583 38.7098 10.3583 35.7467C10.3583 32.7963 12.3698 30.3018 15.1023 29.542Z" fill="#D33331"/>
<path fill-rule="evenodd" clip-rule="evenodd" d="M15.1024 41.9516H15.0897H15.1024V32.6572V41.9516Z" fill="#393D45"/>
<path fill-rule="evenodd" clip-rule="evenodd" d="M15.1024 41.9516H15.0897C15.0897 41.9516 15.0897 41.9516 15.0771 41.9516L15.0644 41.939C13.306 41.4451 11.8764 40.2422 11.0668 38.6593C11.4969 38.5327 11.9017 38.3681 12.2939 38.1275C14.356 36.7979 14.8873 34.9112 15.1024 32.6572V41.9516Z" fill="#B4302C"/>
</svg>
