<svg width="106" height="110" viewBox="0 0 106 110" fill="none" xmlns="http://www.w3.org/2000/svg">
<path fill-rule="evenodd" clip-rule="evenodd" d="M65.9853 54.7615C66.3415 54.5471 66.9215 54.5573 67.2777 54.7615L69.2011 55.8847C69.5573 56.0889 69.5573 56.4259 69.2011 56.6301L67.2574 57.7533C66.9012 57.9678 66.3211 57.9678 65.9649 57.7533L64.0416 56.6301C63.6854 56.4259 63.6854 56.0889 64.0416 55.8847L65.9853 54.7615Z" fill="#4E4A4A"/>
<path fill-rule="evenodd" clip-rule="evenodd" d="M61.8332 57.1706C62.1894 56.9562 62.7694 56.9562 63.1154 57.1706L65.049 58.2938C65.4052 58.498 65.4052 58.835 65.0388 59.0392L63.1053 60.1624C62.7491 60.3666 62.169 60.3666 61.8128 60.1624L59.8895 59.0392C59.5333 58.835 59.5333 58.498 59.8895 58.2938L61.8332 57.1706Z" fill="#4E4A4A"/>
<path fill-rule="evenodd" clip-rule="evenodd" d="M57.6709 59.5711C58.0271 59.3669 58.6072 59.3669 58.9634 59.5711L60.8867 60.6943C61.2429 60.9088 61.2429 61.2457 60.8867 61.45L58.943 62.5732C58.5868 62.7774 58.0169 62.7774 57.6608 62.5732L55.7272 61.45C55.371 61.2457 55.3812 60.9088 55.7374 60.6943L57.6709 59.5711Z" fill="#4E4A4A"/>
<path fill-rule="evenodd" clip-rule="evenodd" d="M63.3802 61.409C63.7465 61.2048 64.3164 61.2048 64.6726 61.409L66.6061 62.5322C66.9623 62.7364 66.9522 63.0734 66.596 63.2776L64.6624 64.411C64.2961 64.6153 63.7262 64.6153 63.37 64.411L61.4364 63.2776C61.0802 63.0734 61.0904 62.7364 61.4466 62.5322L63.3802 61.409Z" fill="#4E4A4A"/>
<path fill-rule="evenodd" clip-rule="evenodd" d="M74.8391 59.9178C75.1953 59.7136 75.7652 59.7136 76.1214 59.9178L78.055 61.041C78.401 61.2452 78.401 61.5822 78.0448 61.7966L73.2312 64.5842C72.8751 64.7884 72.295 64.7884 71.9388 64.5842L70.0154 63.461C69.6592 63.2466 69.6592 62.9096 70.0154 62.7054L74.8391 59.9178Z" fill="#4E4A4A"/>
<path fill-rule="evenodd" clip-rule="evenodd" d="M53.519 61.9803C53.8752 61.7761 54.4552 61.7761 54.8114 61.9803L56.7348 63.1035C57.091 63.3077 57.091 63.6447 56.7348 63.8591L54.7911 64.9823C54.4349 65.1866 53.8548 65.1866 53.4986 64.9823L51.5752 63.8591C51.2191 63.6447 51.2191 63.3077 51.5752 63.1035L53.519 61.9803Z" fill="#4E4A4A"/>
<path fill-rule="evenodd" clip-rule="evenodd" d="M59.2382 63.8084C59.5944 63.6042 60.1643 63.6042 60.5205 63.8084L62.454 64.9316C62.8102 65.1461 62.8 65.483 62.4439 65.6873L60.5103 66.8105C60.1541 67.0147 59.574 67.0147 59.2179 66.8105L57.2945 65.6873C56.9383 65.483 56.9383 65.1461 57.2945 64.9316L59.2382 63.8084Z" fill="#4E4A4A"/>
<path fill-rule="evenodd" clip-rule="evenodd" d="M67.807 63.9919C68.1632 63.7774 68.7433 63.7774 69.0995 63.9919L71.0228 65.1151C71.379 65.3193 71.379 65.6563 71.0228 65.8605L69.0791 66.9837C68.7229 67.1879 68.1429 67.1879 67.7969 66.9837L65.8633 65.8605C65.5071 65.6563 65.5071 65.3193 65.8735 65.1151L67.807 63.9919Z" fill="#4E4A4A"/>
<path fill-rule="evenodd" clip-rule="evenodd" d="M79.2555 62.5016C79.6117 62.2872 80.1918 62.2872 80.5479 62.5016L82.4713 63.6248C82.8275 63.8291 82.8275 64.166 82.4713 64.3702L76.8233 67.6378C76.4671 67.8522 75.887 67.8522 75.5309 67.6378L73.6075 66.5145C73.2513 66.3103 73.2513 65.9734 73.6075 65.7691L79.2555 62.5016Z" fill="#4E4A4A"/>
<path fill-rule="evenodd" clip-rule="evenodd" d="M55.0861 66.2186C55.4423 66.0144 56.0224 66.0144 56.3684 66.2186L58.3019 67.3418C58.6581 67.546 58.6581 67.883 58.3019 68.0872L56.3582 69.2104C56.002 69.4249 55.4219 69.4249 55.0658 69.2104L53.1424 68.0872C52.7862 67.883 52.7862 67.546 53.1424 67.3418L55.0861 66.2186Z" fill="#4E4A4A"/>
<path fill-rule="evenodd" clip-rule="evenodd" d="M63.6549 66.3914C64.0111 66.1872 64.5912 66.1872 64.9474 66.3914L66.8707 67.5147C67.2269 67.7189 67.2269 68.0558 66.8707 68.2703L64.927 69.3935C64.5708 69.5977 63.9908 69.5977 63.6448 69.3935L61.7112 68.2703C61.355 68.0558 61.355 67.7189 61.7214 67.5147L63.6549 66.3914Z" fill="#4E4A4A"/>
<path fill-rule="evenodd" clip-rule="evenodd" d="M45.2048 66.8005C45.561 66.586 46.141 66.586 46.4972 66.8005L48.4206 67.9237C48.7768 68.1279 48.7768 68.4649 48.4206 68.6691L46.4768 69.7923C46.1207 69.9965 45.5406 70.0067 45.1946 69.7923L43.261 68.6691C42.9049 68.4649 42.9049 68.1279 43.261 67.9237L45.2048 66.8005Z" fill="#4E4A4A"/>
<path fill-rule="evenodd" clip-rule="evenodd" d="M71.2976 67.1063C71.6538 66.9021 72.2237 66.9021 72.5799 67.1063L74.5134 68.2397C74.8696 68.4439 74.8594 68.7809 74.5033 68.9851L72.5697 70.1083C72.2033 70.3125 71.6334 70.3125 71.2773 70.1083L69.3437 68.9851C68.9977 68.7809 68.9977 68.4439 69.3539 68.2295L71.2976 67.1063Z" fill="#4E4A4A"/>
<path fill-rule="evenodd" clip-rule="evenodd" d="M50.934 68.617C51.2902 68.4128 51.8703 68.4128 52.2265 68.617L54.1498 69.7402C54.506 69.9547 54.506 70.2916 54.1498 70.4958L52.2061 71.6191C51.8499 71.8233 51.2698 71.8233 50.9137 71.6191L48.9903 70.4958C48.6341 70.2916 48.6341 69.9547 48.9903 69.7402L50.934 68.617Z" fill="#4E4A4A"/>
<path fill-rule="evenodd" clip-rule="evenodd" d="M59.5129 68.7916C59.8691 68.5873 60.439 68.5873 60.7952 68.8018L62.7288 69.925C63.0748 70.1292 63.0748 70.4662 62.7186 70.6704L60.785 71.7936C60.4288 71.9978 59.8488 71.9978 59.4926 71.7936L57.559 70.6704C57.213 70.4662 57.213 70.1292 57.5692 69.925L59.5129 68.7916Z" fill="#4E4A4A"/>
<path fill-rule="evenodd" clip-rule="evenodd" d="M41.0527 69.2C41.4089 68.9958 41.9889 68.9958 42.3451 69.2L44.2685 70.3335C44.6247 70.5377 44.6247 70.8746 44.2685 71.0789L42.3248 72.2021C41.9686 72.4063 41.3885 72.4063 41.0323 72.2021L39.1089 71.0789C38.7528 70.8746 38.7528 70.5377 39.1089 70.3335L41.0527 69.2Z" fill="#4E4A4A"/>
<path fill-rule="evenodd" clip-rule="evenodd" d="M67.0336 69.578C67.3898 69.3737 67.9698 69.3737 68.326 69.578L70.2494 70.7012C70.6056 70.9054 70.6056 71.2424 70.2494 71.4466L68.3057 72.5698C67.9495 72.7842 67.3694 72.7842 67.0234 72.58L65.0899 71.4466C64.7337 71.2424 64.7337 70.9054 65.1 70.7012L67.0336 69.578Z" fill="#4E4A4A"/>
<path fill-rule="evenodd" clip-rule="evenodd" d="M55.361 71.201C55.7172 70.9968 56.2871 70.9968 56.6433 71.201L58.5768 72.3242C58.933 72.5284 58.933 72.8654 58.5667 73.0696L56.6331 74.203C56.2769 74.4072 55.6969 74.4072 55.3407 74.203L53.4173 73.0696C53.0611 72.8654 53.0611 72.5284 53.4173 72.3242L55.361 71.201Z" fill="#4E4A4A"/>
<path fill-rule="evenodd" clip-rule="evenodd" d="M36.8902 71.6102C37.2566 71.406 37.8265 71.406 38.1827 71.6102L40.1162 72.7334C40.4724 72.9478 40.4622 73.2746 40.106 73.489L38.1623 74.6122C37.8061 74.8164 37.2362 74.8164 36.88 74.6122L34.9465 73.489C34.6005 73.2746 34.6005 72.9478 34.9567 72.7334L36.8902 71.6102Z" fill="#4E4A4A"/>
<path fill-rule="evenodd" clip-rule="evenodd" d="M42.6301 73.4266C42.9862 73.2224 43.5663 73.2224 43.9225 73.4266L45.8459 74.5498C46.2021 74.7642 46.2021 75.1012 45.8459 75.3054L43.9021 76.4286C43.546 76.6328 42.9659 76.6328 42.6199 76.4286L40.6863 75.3054C40.3301 75.091 40.3301 74.7642 40.6863 74.5498L42.6301 73.4266Z" fill="#4E4A4A"/>
<path fill-rule="evenodd" clip-rule="evenodd" d="M51.2089 73.6004C51.5651 73.3962 52.1452 73.3962 52.5014 73.6004L54.4247 74.7338C54.7809 74.9381 54.7809 75.275 54.4146 75.4792L52.481 76.6025C52.1248 76.8067 51.5448 76.8067 51.1886 76.6025L49.2652 75.4792C48.909 75.275 48.909 74.9381 49.2652 74.7338L51.2089 73.6004Z" fill="#4E4A4A"/>
<path fill-rule="evenodd" clip-rule="evenodd" d="M32.7382 74.0194C33.0944 73.8152 33.6745 73.8152 34.0307 74.0194L35.954 75.1426C36.3102 75.3468 36.3102 75.6838 35.954 75.888L34.0103 77.0214C33.6541 77.2256 33.074 77.2256 32.7179 77.0214L30.7945 75.888C30.4383 75.6838 30.4383 75.3468 30.7945 75.1426L32.7382 74.0194Z" fill="#4E4A4A"/>
<path fill-rule="evenodd" clip-rule="evenodd" d="M38.4778 75.8366C38.8442 75.6222 39.4141 75.6222 39.7702 75.8366L41.7038 76.9598C42.0498 77.164 42.0498 77.501 41.6936 77.7052L39.7499 78.8284C39.3937 79.0429 38.8238 79.0429 38.4676 78.8284L36.5341 77.7052C36.1779 77.501 36.1881 77.164 36.5443 76.9598L38.4778 75.8366Z" fill="#4E4A4A"/>
<path fill-rule="evenodd" clip-rule="evenodd" d="M47.0566 76.0106C47.4128 75.8064 47.9928 75.8064 48.349 76.0106L50.2724 77.1338C50.6286 77.338 50.6286 77.675 50.2724 77.8792L48.3287 79.0126C47.9725 79.2168 47.3924 79.2168 47.0362 79.0024L45.1128 77.8792C44.7567 77.675 44.7567 77.338 45.1128 77.1338L47.0566 76.0106Z" fill="#4E4A4A"/>
<path fill-rule="evenodd" clip-rule="evenodd" d="M28.5861 76.4295C28.9423 76.215 29.5224 76.2253 29.8684 76.4295L31.8019 77.5527C32.1581 77.7569 32.1581 78.0939 31.7918 78.2981L29.8582 79.4213C29.502 79.6357 28.9219 79.6357 28.5658 79.4213L26.6424 78.2981C26.2862 78.0939 26.2862 77.7569 26.6424 77.5527L28.5861 76.4295Z" fill="#4E4A4A"/>
<path fill-rule="evenodd" clip-rule="evenodd" d="M24.4237 78.8395C24.7799 78.6251 25.36 78.6251 25.7162 78.8395L27.6395 79.9627C27.9957 80.167 27.9957 80.5039 27.6395 80.7082L25.6958 81.8314C25.3396 82.0356 24.7697 82.0356 24.4136 81.8314L22.48 80.7082C22.1238 80.5039 22.1238 80.167 22.4902 79.9627L24.4237 78.8395Z" fill="#4E4A4A"/>
<path fill-rule="evenodd" clip-rule="evenodd" d="M34.326 78.2362C34.6923 78.032 35.2622 78.032 35.6184 78.2362L37.552 79.3594C37.9081 79.5738 37.898 79.9006 37.5418 80.115L35.6082 81.2382C35.2419 81.4424 34.672 81.4424 34.3158 81.2382L32.3822 80.115C32.026 79.9006 32.0362 79.5738 32.3924 79.3594L34.326 78.2362Z" fill="#4E4A4A"/>
<path fill-rule="evenodd" clip-rule="evenodd" d="M30.184 80.6462C30.5402 80.4317 31.1101 80.4317 31.4663 80.6462L33.3998 81.7694C33.756 81.9736 33.7458 82.3106 33.3897 82.5148L31.4561 83.638C31.0999 83.8524 30.5198 83.8524 30.1637 83.638L28.2403 82.5148C27.8841 82.3106 27.8841 81.9736 28.2403 81.7694L30.184 80.6462Z" fill="#4E4A4A"/>
<path fill-rule="evenodd" clip-rule="evenodd" d="M20.2719 81.2381C20.6281 81.0339 21.2082 81.0339 21.5643 81.2381L23.4877 82.3613C23.8439 82.5758 23.8439 82.9127 23.4877 83.1169L21.544 84.2401C21.1878 84.4444 20.6077 84.4444 20.2516 84.2401L18.3282 83.1169C17.972 82.9127 17.972 82.5758 18.3282 82.3613L20.2719 81.2381Z" fill="#4E4A4A"/>
<path fill-rule="evenodd" clip-rule="evenodd" d="M26.0319 83.0457C26.3881 82.8415 26.9682 82.8415 27.3244 83.0457L29.2477 84.1689C29.6039 84.3834 29.6039 84.7101 29.2477 84.9246L27.304 86.0478C26.9478 86.252 26.3677 86.252 26.0116 86.0478L24.0882 84.9246C23.732 84.7101 23.732 84.3834 24.0882 84.1689L26.0319 83.0457Z" fill="#4E4A4A"/>
<path fill-rule="evenodd" clip-rule="evenodd" d="M34.6006 83.2186C34.9568 83.0144 35.5369 83.0144 35.8931 83.2186L37.8164 84.3418C38.1726 84.5562 38.1726 84.8932 37.8164 85.0974L35.8727 86.2206C35.5165 86.4248 34.9364 86.4248 34.5904 86.2206L32.6569 85.0974C32.3007 84.8932 32.3109 84.5562 32.6671 84.3418L34.6006 83.2186Z" fill="#4E4A4A"/>
<path fill-rule="evenodd" clip-rule="evenodd" d="M16.1199 83.6473C16.4761 83.4431 17.046 83.4431 17.4021 83.6473L19.3357 84.7705C19.6919 84.9747 19.6817 85.3117 19.3255 85.5261L17.392 86.6493C17.0256 86.8536 16.4557 86.8536 16.0995 86.6493L14.166 85.5261C13.82 85.3117 13.82 84.9747 14.1761 84.7705L16.1199 83.6473Z" fill="#4E4A4A"/>
<path fill-rule="evenodd" clip-rule="evenodd" d="M39.2412 85.6795C39.5973 85.465 40.1774 85.4753 40.5336 85.6795L42.457 86.8027C42.8132 87.0069 42.8132 87.3439 42.457 87.5481L40.5132 88.6713C40.157 88.8857 39.577 88.8857 39.2208 88.6713L37.2974 87.5481C36.9412 87.3439 36.9412 87.0069 37.2974 86.8027L39.2412 85.6795Z" fill="#4E4A4A"/>
<path fill-rule="evenodd" clip-rule="evenodd" d="M21.8798 85.4557C22.236 85.2413 22.8161 85.2413 23.1723 85.4557L25.0957 86.5789C25.4518 86.7832 25.4518 87.1201 25.0957 87.3243L21.8086 89.2236C21.4524 89.438 20.8825 89.438 20.5263 89.2236L18.5928 88.1004C18.2366 87.8962 18.2366 87.5592 18.603 87.355L21.8798 85.4557Z" fill="#4E4A4A"/>
<path fill-rule="evenodd" clip-rule="evenodd" d="M34.9872 88.1414C35.3434 87.9372 35.9133 87.9372 36.2695 88.1414L38.2031 89.2647C38.5592 89.4791 38.5491 89.816 38.1929 90.0203L36.2593 91.1435C35.9031 91.3477 35.3231 91.3477 34.9669 91.1435L33.0435 90.0203C32.6873 89.816 32.6873 89.4791 33.0435 89.2647L34.9872 88.1414Z" fill="#4E4A4A"/>
<path fill-rule="evenodd" clip-rule="evenodd" d="M26.3066 88.0282C26.6628 87.8239 27.2327 87.8239 27.5889 88.0282L29.5225 89.1514C29.8786 89.3658 29.8786 89.7028 29.5123 89.907L26.2354 91.8062C25.8792 92.0104 25.2991 92.0104 24.943 91.8062L23.0196 90.683C22.6634 90.4788 22.6634 90.1418 23.0196 89.9274L26.3066 88.0282Z" fill="#4E4A4A"/>
<path fill-rule="evenodd" clip-rule="evenodd" d="M30.7233 90.6121C31.0795 90.4079 31.6595 90.4079 32.0157 90.6121L33.9493 91.7354C34.2953 91.9396 34.2953 92.2765 33.9391 92.4808L30.6622 94.38C30.306 94.5944 29.726 94.5944 29.3698 94.3902L27.4362 93.2568C27.0902 93.0526 27.0902 92.7156 27.4464 92.5114L30.7233 90.6121Z" fill="#4E4A4A"/>
<path fill-rule="evenodd" clip-rule="evenodd" d="M56.3684 66.2181C56.0224 66.0139 55.4423 66.0139 55.0861 66.2181L53.1424 67.3413C52.7862 67.5455 52.7862 67.8825 53.1424 68.0867L55.0658 69.2099C55.4219 69.4244 56.002 69.4244 56.3582 69.2099L58.3019 68.0867C58.6581 67.8825 58.6581 67.5455 58.3019 67.3413L56.3684 66.2181ZM62.7186 70.6701C63.0748 70.4659 63.0748 70.1289 62.7288 69.9247L60.7952 68.8015C60.439 68.5871 59.8691 68.5871 59.513 68.7913L57.5692 69.9247C57.213 70.1289 57.213 70.4659 57.559 70.6701L59.4926 71.7933C59.8488 71.9975 60.4187 71.9975 60.785 71.7933L62.7186 70.6701ZM38.2031 89.2643L36.2695 88.1411C35.9133 87.9368 35.3434 87.9368 34.9872 88.1411L33.0435 89.2643C32.6873 89.4787 32.6873 89.8157 33.0435 90.0199L34.9669 91.1431C35.3231 91.3473 35.9031 91.3473 36.2593 91.1431L38.1929 90.0199C38.5491 89.8157 38.5592 89.4787 38.2031 89.2643ZM48.3492 76.0104C47.993 75.8062 47.4129 75.8062 47.0567 76.0104L45.113 77.1336C44.7568 77.3379 44.7568 77.6748 45.113 77.879L47.0364 79.0022C47.3926 79.2167 47.9726 79.2167 48.3288 79.0125L50.2726 77.879C50.6287 77.6748 50.6287 77.3379 50.2726 77.1336L48.3492 76.0104ZM43.9223 73.4271C43.5661 73.2228 42.9861 73.2228 42.6299 73.4271L40.6862 74.5503C40.33 74.7647 40.33 75.0914 40.6862 75.3059L42.6197 76.4291C42.9657 76.6333 43.5458 76.6333 43.902 76.4291L45.8457 75.3059C46.2019 75.1017 46.2019 74.7647 45.8457 74.5503L43.9223 73.4271ZM47.4231 66.259L49.3465 67.3822C49.7027 67.5966 50.2827 67.5966 50.6389 67.3822L52.5725 66.259C52.9287 66.0547 52.9388 65.7178 52.5827 65.5136L50.6491 64.3904C50.2929 64.1861 49.723 64.1861 49.3668 64.3904L47.4231 65.5136C47.0669 65.7178 47.0669 66.0547 47.4231 66.259ZM59.8895 59.0398L61.8129 60.163C62.1691 60.3672 62.7491 60.3672 63.1053 60.163L65.0389 59.0398C65.4052 58.8356 65.4052 58.4986 65.049 58.2944L63.1155 57.1712C62.7695 56.9568 62.1894 56.9568 61.8332 57.1712L59.8895 58.2944C59.5333 58.4986 59.5333 58.8356 59.8895 59.0398ZM55.7272 61.4496L57.6608 62.5728C58.017 62.777 58.5869 62.777 58.9431 62.5728L60.8868 61.4496C61.243 61.2454 61.243 60.9084 60.8868 60.694L58.9634 59.5708C58.6072 59.3666 58.0272 59.3666 57.671 59.5708L55.7374 60.694C55.3812 60.9084 55.3711 61.2454 55.7272 61.4496ZM42.4569 86.8034L40.5335 85.6802C40.1773 85.476 39.5973 85.4658 39.2411 85.6802L37.2973 86.8034C36.9412 87.0076 36.9412 87.3446 37.2973 87.5488L39.2207 88.672C39.5769 88.8865 40.157 88.8865 40.5132 88.672L42.4569 87.5488C42.8131 87.3446 42.8131 87.0076 42.4569 86.8034ZM74.5133 68.2399L72.5798 67.1065C72.2236 66.9022 71.6537 66.9022 71.2975 67.1065L69.3538 68.2297C68.9976 68.4441 68.9976 68.7811 69.3436 68.9853L71.2771 70.1085C71.6333 70.3127 72.2032 70.3127 72.5696 70.1085L74.5031 68.9853C74.8593 68.7811 74.8695 68.4441 74.5133 68.2399ZM70.2493 70.7007L68.3259 69.5775C67.9697 69.3733 67.3897 69.3733 67.0335 69.5775L65.0999 70.7007C64.7336 70.9049 64.7336 71.2419 65.0897 71.4461L67.0233 72.5795C67.3693 72.7838 67.9494 72.7838 68.3056 72.5693L70.2493 71.4461C70.6055 71.2419 70.6055 70.9049 70.2493 70.7007ZM14.1658 85.527L16.0994 86.6503C16.4556 86.8545 17.0255 86.8545 17.3918 86.6503L19.3254 85.527C19.6816 85.3126 19.6917 84.9757 19.3356 84.7714L17.402 83.6482C17.0458 83.444 16.4759 83.444 16.1197 83.6482L14.176 84.7714C13.8198 84.9757 13.8198 85.3126 14.1658 85.527ZM48.0744 71.0275C47.7182 70.8233 47.1381 70.8233 46.782 71.0275L44.8382 72.1507C44.482 72.3549 44.482 72.6919 44.8382 72.8961L46.7616 74.0193C47.1178 74.2337 47.6979 74.2337 48.054 74.0193L49.9978 72.8961C50.354 72.6919 50.354 72.3549 49.9978 72.1507L48.0744 71.0275ZM52.5012 73.6006C52.1451 73.3964 51.565 73.3964 51.2088 73.6006L49.2651 74.7341C48.9089 74.9383 48.9089 75.2752 49.2651 75.4795L51.1885 76.6027C51.5446 76.8069 52.1247 76.8069 52.4809 76.6027L54.4246 75.4795C54.7808 75.2752 54.7808 74.9383 54.4246 74.7341L52.5012 73.6006ZM38.7322 83.8116C39.0884 84.026 39.6685 84.026 40.0247 83.8116L41.9684 82.6884C42.3246 82.4842 42.3246 82.1472 41.9684 81.943L40.045 80.8198C39.6888 80.6156 39.1088 80.6156 38.7526 80.8198L36.819 81.943C36.4527 82.1472 36.4527 82.4842 36.8089 82.6884L38.7322 83.8116ZM35.6182 78.2364C35.262 78.0322 34.6921 78.0322 34.3258 78.2364L32.3922 79.3596C32.036 79.5741 32.0258 79.9008 32.382 80.1152L34.3156 81.2384C34.6718 81.4427 35.2417 81.4427 35.608 81.2384L37.5416 80.1152C37.8978 79.9008 37.9079 79.5741 37.5518 79.3596L35.6182 78.2364ZM34.5903 86.2214C34.9364 86.4256 35.5164 86.4256 35.8726 86.2214L37.8163 85.0982C38.1725 84.894 38.1725 84.557 37.8163 84.3426L35.893 83.2194C35.5368 83.0151 34.9567 83.0151 34.6005 83.2194L32.667 84.3426C32.3108 84.557 32.3006 84.894 32.6568 85.0982L34.5903 86.2214ZM30.1839 80.6462L28.2401 81.7694C27.8839 81.9736 27.8839 82.3106 28.2299 82.5148L30.1635 83.638C30.5197 83.8524 31.0998 83.8524 31.4559 83.638L33.3895 82.5148C33.7457 82.3106 33.7559 81.9736 33.3997 81.7694L31.4661 80.6462C31.1099 80.4318 30.54 80.4318 30.1839 80.6462ZM28.5047 87.4978L30.4383 88.621C30.7945 88.8354 31.3644 88.8354 31.7307 88.621L33.6643 87.4978C34.0205 87.2935 34.0205 86.9566 33.6744 86.7524L31.7409 85.6292C31.3847 85.4249 30.8148 85.4249 30.4485 85.6292L28.5149 86.7524C28.1587 86.9566 28.1587 87.2935 28.5047 87.4978ZM26.0318 83.0458L24.0881 84.169C23.7319 84.3834 23.7319 84.7102 24.0881 84.9246L26.0114 86.0478C26.3676 86.252 26.9477 86.252 27.3039 86.0478L29.2476 84.9246C29.6038 84.7102 29.6038 84.3834 29.2476 84.169L27.3242 83.0458C26.968 82.8416 26.388 82.8416 26.0318 83.0458ZM44.1971 78.41C43.8409 78.2058 43.2608 78.2058 42.9047 78.41L40.9609 79.5332C40.6047 79.7476 40.6047 80.0846 40.9609 80.2888L42.8843 81.412C43.2405 81.6162 43.8206 81.6162 44.1767 81.412L46.1205 80.2888C46.4767 80.0846 46.4767 79.7476 46.1205 79.5332L44.1971 78.41ZM39.7703 75.8368C39.4141 75.6224 38.8442 75.6224 38.4778 75.8368L36.5443 76.96C36.1881 77.1643 36.1779 77.5012 36.5341 77.7054L38.4676 78.8287C38.8238 79.0431 39.3937 79.0431 39.7499 78.8287L41.6936 77.7054C42.0498 77.5012 42.0498 77.1643 41.7038 76.96L39.7703 75.8368ZM52.2265 68.6177C51.8703 68.4135 51.2902 68.4135 50.934 68.6177L48.9903 69.7409C48.6341 69.9553 48.6341 70.2923 48.9903 70.4965L50.9137 71.6197C51.2699 71.8239 51.8499 71.8239 52.2061 71.6197L54.1499 70.4965C54.506 70.2923 54.506 69.9553 54.1499 69.7409L52.2265 68.6177ZM56.6431 71.2011C56.287 70.9968 55.7171 70.9968 55.3609 71.2011L53.4171 72.3243C53.061 72.5285 53.061 72.8655 53.4171 73.0697L55.3405 74.2031C55.6967 74.4073 56.2768 74.4073 56.633 74.2031L58.5665 73.0697C58.9329 72.8655 58.9329 72.5285 58.5767 72.3243L56.6431 71.2011ZM60.5204 63.8083C60.1643 63.6041 59.5944 63.6041 59.2382 63.8083L57.2944 64.9315C56.9383 65.146 56.9383 65.4829 57.2944 65.6871L59.2178 66.8103C59.574 67.0146 60.1541 67.0146 60.5103 66.8103L62.4438 65.6871C62.8 65.4829 62.8102 65.146 62.454 64.9315L60.5204 63.8083ZM66.6061 62.532L64.6725 61.4087C64.3163 61.2045 63.7464 61.2045 63.3801 61.4087L61.4465 62.532C61.0903 62.7362 61.0802 63.0731 61.4363 63.2774L63.3699 64.4108C63.7261 64.615 64.296 64.615 64.6623 64.4108L66.5959 63.2774C66.9521 63.0731 66.9623 62.7362 66.6061 62.532ZM71.0227 65.1153L69.0993 63.9921C68.7432 63.7777 68.1631 63.7777 67.8069 63.9921L65.8734 65.1153C65.507 65.3195 65.507 65.6565 65.8632 65.8607L67.7967 66.9839C68.1427 67.1882 68.7228 67.1882 69.079 66.9839L71.0227 65.8607C71.3789 65.6565 71.3789 65.3195 71.0227 65.1153ZM66.8707 68.2705C67.2268 68.0561 67.2268 67.7191 66.8707 67.5149L64.9473 66.3917C64.5911 66.1875 64.011 66.1875 63.6548 66.3917L61.7213 67.5149C61.3549 67.7191 61.3549 68.0561 61.7111 68.2705L63.6447 69.3937C64.0009 69.5979 64.5707 69.5979 64.9269 69.3937L66.8707 68.2705ZM69.2011 55.8846L67.2777 54.7614C66.9215 54.5572 66.3415 54.547 65.9853 54.7614L64.0416 55.8846C63.6854 56.0888 63.6854 56.4258 64.0416 56.63L65.9649 57.7532C66.3211 57.9677 66.9012 57.9677 67.2574 57.7532L69.2011 56.63C69.5573 56.4258 69.5573 56.0888 69.2011 55.8846ZM34.9465 73.4883L36.8801 74.6115C37.2363 74.8157 37.8062 74.8157 38.1623 74.6115L40.1061 73.4883C40.4623 73.2739 40.4623 72.9471 40.1163 72.7327L38.1827 71.6095C37.8265 71.4053 37.2566 71.4053 36.8903 71.6095L34.9567 72.7327C34.6005 72.9471 34.6005 73.2739 34.9465 73.4883ZM28.5658 79.4209C28.922 79.6353 29.502 79.6353 29.8582 79.4209L31.7918 78.2977C32.1581 78.0935 32.1581 77.7565 31.8019 77.5523L29.8684 76.4291C29.5224 76.2249 28.9423 76.2146 28.5861 76.4291L26.6424 77.5523C26.2862 77.7565 26.2862 78.0935 26.6424 78.2977L28.5658 79.4209ZM51.5752 63.8594L53.4986 64.9826C53.8547 65.1868 54.4348 65.1868 54.791 64.9826L56.7347 63.8594C57.0909 63.645 57.0909 63.308 56.7347 63.1038L54.8113 61.9806C54.4552 61.7763 53.8751 61.7763 53.5189 61.9806L51.5752 63.1038C51.219 63.308 51.219 63.645 51.5752 63.8594ZM20.2515 84.2405C20.6076 84.4447 21.1877 84.4447 21.5439 84.2405L23.4876 83.1173C23.8438 82.913 23.8438 82.5761 23.4876 82.3616L21.5642 81.2384C21.2081 81.0342 20.628 81.0342 20.2718 81.2384L18.3281 82.3616C17.9719 82.5761 17.9719 82.913 18.3281 83.1173L20.2515 84.2405ZM24.4137 81.8307C24.7699 82.0349 25.3398 82.0349 25.696 81.8307L27.6397 80.7075C27.9959 80.5033 27.9959 80.1663 27.6397 79.9621L25.7163 78.8389C25.3601 78.6244 24.7801 78.6244 24.4239 78.8389L22.4903 79.9621C22.124 80.1663 22.124 80.5033 22.4801 80.7075L24.4137 81.8307ZM39.1088 71.0785L41.0322 72.2017C41.3883 72.406 41.9684 72.406 42.3246 72.2017L44.2683 71.0785C44.6245 70.8743 44.6245 70.5374 44.2683 70.3331L42.345 69.1997C41.9888 68.9955 41.4087 68.9955 41.0525 69.1997L39.1088 70.3331C38.7526 70.5374 38.7526 70.8743 39.1088 71.0785ZM30.7945 75.8879L32.7178 77.0213C33.074 77.2255 33.6541 77.2255 34.0103 77.0213L35.954 75.8879C36.3102 75.6837 36.3102 75.3467 35.954 75.1425L34.0306 74.0193C33.6744 73.8151 33.0944 73.8151 32.7382 74.0193L30.7945 75.1425C30.4383 75.3467 30.4383 75.6837 30.7945 75.8879ZM43.2608 68.6687L45.1842 69.792C45.5404 70.0064 46.1205 69.9962 46.4767 69.792L48.4204 68.6687C48.7766 68.4645 48.7766 68.1276 48.4204 67.9233L46.497 66.8001C46.1408 66.5857 45.5608 66.5857 45.2046 66.8001L43.2608 67.9233C42.9047 68.1276 42.9047 68.4645 43.2608 68.6687ZM33.939 91.7353L32.0157 90.6121C31.6595 90.4079 31.0794 90.4079 30.7232 90.6121L27.4463 92.5113C27.0902 92.7156 27.0902 93.0525 27.4362 93.2567L29.3697 94.3902C29.7259 94.5944 30.306 94.5944 30.6622 94.38L33.939 92.4807C34.2952 92.2765 34.2952 91.9395 33.939 91.7353ZM29.5224 89.1519L27.5888 88.0287C27.2326 87.8245 26.6627 87.8245 26.3066 88.0287L23.0195 89.928C22.6633 90.1424 22.6633 90.4794 23.0195 90.6836L24.9429 91.8068C25.2991 92.011 25.8791 92.011 26.2353 91.8068L29.5122 89.9076C29.8786 89.7033 29.8786 89.3664 29.5224 89.1519ZM25.0955 86.5788L23.1722 85.4556C22.816 85.2411 22.2359 85.2411 21.8797 85.4556L18.6028 87.3548C18.2365 87.559 18.2365 87.896 18.5927 88.1002L20.5262 89.2234C20.8824 89.4378 21.4523 89.4378 21.8085 89.2234L25.0955 87.3242C25.4517 87.12 25.4517 86.783 25.0955 86.5788ZM73.628 58.4578L71.7046 57.3346C71.3484 57.1304 70.7683 57.1304 70.4121 57.3346L65.5986 60.1324C65.2424 60.3366 65.2322 60.6736 65.5884 60.8778L67.522 62.001C67.8782 62.2052 68.448 62.2052 68.8042 62.001L73.628 59.2134C73.9841 59.0092 73.9841 58.6722 73.628 58.4578ZM78.0548 61.0412L76.1212 59.9179C75.7651 59.7137 75.1952 59.7137 74.839 59.9179L70.0152 62.7055C69.6591 62.9098 69.6591 63.2467 70.0152 63.4612L71.9386 64.5844C72.2948 64.7886 72.8749 64.7886 73.2311 64.5844L78.0446 61.7968C78.4008 61.5823 78.4008 61.2454 78.0548 61.0412ZM82.4715 63.6245L80.5481 62.5013C80.1919 62.2869 79.6118 62.2869 79.2556 62.5013L73.6076 65.7688C73.2514 65.9731 73.2514 66.31 73.6076 66.5142L75.531 67.6374C75.8872 67.8519 76.4672 67.8519 76.8234 67.6374L82.4715 64.3699C82.8276 64.1657 82.8276 63.8287 82.4715 63.6245ZM65.9955 73.1718L64.0721 72.0486C63.7159 71.8341 63.1358 71.8341 62.7797 72.0384L41.5613 84.3324C41.2052 84.5468 41.195 84.8735 41.5512 85.088L43.4847 86.2112C43.8409 86.4154 44.4108 86.4154 44.767 86.2112L65.9955 73.9172C66.3517 73.713 66.3517 73.376 65.9955 73.1718ZM66.1278 53.485C66.484 53.2706 67.064 53.2706 67.41 53.485L84.6798 63.5428C85.0258 63.7471 85.0258 64.084 84.6696 64.2985L30.5197 95.6665C30.1635 95.8708 29.5834 95.8708 29.2273 95.6665L11.9677 85.5985C11.6115 85.3943 11.6217 85.0573 11.9778 84.8531L66.1278 53.485Z" fill="#A9A7AA"/>
<path fill-rule="evenodd" clip-rule="evenodd" d="M46.7822 71.0272C47.1383 70.823 47.7184 70.823 48.0746 71.0272L49.998 72.1504C50.3542 72.3546 50.3542 72.6916 49.998 72.8958L48.0542 74.019C47.6981 74.2334 47.118 74.2334 46.7618 74.019L44.8384 72.8958C44.4822 72.6916 44.4822 72.3546 44.8384 72.1504L46.7822 71.0272Z" fill="#4E4A4A"/>
<path fill-rule="evenodd" clip-rule="evenodd" d="M42.9047 78.41C43.2609 78.2058 43.841 78.2058 44.1972 78.41L46.1205 79.5332C46.4767 79.7476 46.4767 80.0846 46.1205 80.2888L44.1768 81.412C43.8206 81.6162 43.2406 81.6162 42.8844 81.412L40.961 80.2888C40.6048 80.0846 40.6048 79.7476 40.961 79.5332L42.9047 78.41Z" fill="#4E4A4A"/>
<path fill-rule="evenodd" clip-rule="evenodd" d="M38.7526 80.8202C39.1088 80.6159 39.6888 80.6159 40.045 80.8202L41.9684 81.9434C42.3246 82.1476 42.3246 82.4845 41.9684 82.6888L40.0247 83.812C39.6685 84.0264 39.0884 84.0264 38.7322 83.812L36.8088 82.6888C36.4527 82.4845 36.4527 82.1476 36.819 81.9434L38.7526 80.8202Z" fill="#4E4A4A"/>
<path fill-rule="evenodd" clip-rule="evenodd" d="M62.7799 72.0386C63.1361 71.8344 63.7161 71.8344 64.0723 72.0488L65.9957 73.172C66.3519 73.3763 66.3519 73.7132 65.9957 73.9174L44.7672 86.2115C44.411 86.4157 43.8412 86.4157 43.485 86.2115L41.5514 85.0883C41.1952 84.8738 41.2054 84.5471 41.5616 84.3326L62.7799 72.0386Z" fill="#4E4A4A"/>
<path fill-rule="evenodd" clip-rule="evenodd" d="M70.9923 74.959C71.4299 74.7038 72.1422 74.7038 72.5798 74.959L82.1968 80.5649C82.6343 80.8201 82.6343 81.2388 82.1968 81.494L60.1134 94.2782C59.6759 94.5334 58.9635 94.5334 58.5259 94.2782L48.909 88.6724C48.4714 88.4171 48.4714 88.0086 48.9191 87.7534L70.9923 74.959Z" fill="#A9A7AA"/>
<path fill-rule="evenodd" clip-rule="evenodd" d="M82.1967 80.564L72.5798 74.9581C72.1422 74.7029 71.4299 74.7029 70.9923 74.9581L48.9191 87.7525C48.4714 88.0078 48.4714 88.4162 48.9089 88.6715L58.5259 94.2773C58.9635 94.5326 59.6758 94.5326 60.1134 94.2773L82.1967 81.4932C82.6343 81.2379 82.6343 80.8192 82.1967 80.564ZM84.6798 63.5423L67.4101 53.4845C67.0641 53.2701 66.484 53.2701 66.1278 53.4845L11.9779 84.8526C11.6217 85.0568 11.6116 85.3937 11.9677 85.598L29.2273 95.666C29.5835 95.8702 30.1636 95.8702 30.5198 95.666L84.6697 64.2979C85.0258 64.0835 85.0258 63.7465 84.6798 63.5423ZM65.334 47.8582C65.6902 47.654 66.2703 47.654 66.6163 47.8582L105.735 70.6695C106.081 70.8738 106.081 71.2107 105.725 71.4149L42.7012 107.919C42.345 108.134 41.7751 108.134 41.4189 107.919L2.31011 85.118C1.95392 84.9138 1.95392 84.5769 2.31011 84.3727L65.334 47.8582Z" fill="#D0D0D1"/>
<path fill-rule="evenodd" clip-rule="evenodd" d="M70.412 57.3348C70.7682 57.1306 71.3482 57.1306 71.7044 57.3348L73.6278 58.458C73.984 58.6724 73.984 59.0094 73.6278 59.2136L68.8041 62.0012C68.4479 62.2054 67.878 62.2054 67.5218 62.0012L65.5883 60.878C65.2321 60.6738 65.2423 60.3368 65.5985 60.1326L70.412 57.3348Z" fill="#4E4A4A"/>
<path fill-rule="evenodd" clip-rule="evenodd" d="M49.3669 64.3905C49.7231 64.1862 50.293 64.1862 50.6491 64.3905L52.5827 65.5137C52.9389 65.7179 52.9287 66.0549 52.5725 66.2591L50.639 67.3823C50.2828 67.5967 49.7027 67.5967 49.3465 67.3823L47.4231 66.2591C47.067 66.0549 47.067 65.7179 47.4231 65.5137L49.3669 64.3905Z" fill="#4E4A4A"/>
<path fill-rule="evenodd" clip-rule="evenodd" d="M106 71.0687V71.0994V71.13V71.1606V71.1913V71.2219V71.2525V71.3138V71.3342V71.3648V71.3955V71.4261V71.4567V71.4874V71.5486V71.5793V71.6099V71.6405V71.6712V71.7018V71.7324V71.7631V71.7937V71.8141V71.8448V71.8754V71.906V71.9367V71.9673V71.9979V72.0285V72.0592V72.0898V72.1204V72.1511V72.1817V72.243V72.2634V72.294V72.3247V72.4778V72.5085V72.5391V72.5697V72.7127V72.7433V72.7739V72.8046V72.8352V72.8658V72.8965V72.9271V72.9577V72.968V72.9782C106 72.9884 106 72.9986 106 73.019L105.99 71.0994V71.0891V71.0789V71.0687L106 71.0585V71.0483V71.0687ZM106 71.0483V71.0381V71.0483Z" fill="#A9A6A8"/>
<path fill-rule="evenodd" clip-rule="evenodd" d="M105.99 71.0986L106 73.0183L105.99 73.0285V73.0387V73.0489V73.0591H105.98V73.0693V73.0796L105.969 73.0898V73.1V73.1102H105.959V73.1204L105.949 73.1306V73.1408H105.939V71.2314L105.949 71.211V71.2007H105.959V71.1905V71.1803H105.969V71.1701V71.1599V71.1497H105.98V71.1395V71.1293V71.1191H105.99V71.1088V71.0986Z" fill="#B0AFB1"/>
<path fill-rule="evenodd" clip-rule="evenodd" d="M105.939 71.2314V73.1409L105.929 73.1613V73.1715H105.918V73.1817L105.908 73.192C105.888 73.2226 105.847 73.2532 105.817 73.2839H105.806L105.796 73.2941H105.786V73.3043L105.766 73.3145L105.756 71.3948H105.766L105.776 71.3846H105.786V71.3744H105.796V71.3642H105.806H105.817V71.354H105.827V71.3438H105.837V71.3336H105.847V71.3233H105.857L105.868 71.3131C105.888 71.2927 105.908 71.2723 105.929 71.2417L105.939 71.2314Z" fill="#B9B7B8"/>
<path fill-rule="evenodd" clip-rule="evenodd" d="M105.756 71.3945L105.766 73.3142L105.756 73.3244H105.745H105.735V73.3346L105.725 71.415H105.735L105.745 71.4047H105.756V71.3945Z" fill="#BEBEC0"/>
<path fill-rule="evenodd" clip-rule="evenodd" d="M2.31017 87.0382C2.13717 86.9361 2.04558 86.8034 2.04558 86.6706V86.64V86.6094V86.5787V86.5481V86.5175V86.4868V86.4562V86.4256V86.3949V86.3643V86.3337V86.303V86.2724V86.2418V86.2111V86.1907V86.1601V86.1295V86.0988V86.0682V86.0376V86.0069V85.9763V85.9457V85.915V85.8844V85.8538V85.8231V85.7925V85.7619V85.7414V85.7108V85.6802V85.6495V85.6189V85.5883V85.5576V85.527V85.4964V85.4657V85.4351V85.4045V85.3738V85.3432V85.3126V85.2819V85.2615V85.2309V85.2003V85.1696V85.139V85.1084V85.0777V85.0471V85.0165V84.9858V84.9552V84.9246V84.8939V84.8633V84.8327V84.8122L2.0354 84.7816V84.751L2.04558 84.7612V84.7714V84.7816V84.7918V84.802V84.8122V84.8225L2.05575 84.8327V84.8429V84.8531L2.06593 84.8633V84.8735V84.8837H2.07611V84.8939V84.9041L2.08628 84.9144V84.9246H2.09646V84.9348H2.10664V84.945V84.9552H2.11681V84.9654H2.12699V84.9756L2.13717 84.9858L2.14734 84.996L2.15752 85.0062L2.1677 85.0165L2.17787 85.0267H2.18805V85.0369L2.19823 85.0471L2.2084 85.0573H2.21858V85.0675H2.22876L2.23893 85.0777L2.24911 85.0879H2.25929L2.26946 85.0981L2.27964 85.1084H2.28982L2.29999 85.1186H2.31017V87.0382Z" fill="#A19EA0"/>
<path fill-rule="evenodd" clip-rule="evenodd" d="M30.4587 85.6288C30.8149 85.4245 31.3848 85.4245 31.741 85.6288L33.6746 86.752C34.0206 86.9562 34.0206 87.2931 33.6644 87.4974L31.7308 88.6206C31.3645 88.835 30.7946 88.835 30.4384 88.6206L28.5048 87.4974C28.1588 87.2931 28.1588 86.9562 28.515 86.752L30.4587 85.6288Z" fill="#4E4A4A"/>
<path fill-rule="evenodd" clip-rule="evenodd" d="M41.4189 107.92V109.84L2.31006 87.0388V85.1191L41.4189 107.92Z" fill="#9E9D9F"/>
<path fill-rule="evenodd" clip-rule="evenodd" d="M105.725 71.416L105.735 73.3357L42.7113 109.84L42.7012 107.92L105.725 71.416Z" fill="#C4C1C3"/>
<path fill-rule="evenodd" clip-rule="evenodd" d="M42.7011 107.92L42.7113 109.84L42.7011 109.85H42.6909V109.86H42.6807H42.6706V109.87H42.6604H42.6502V109.88H42.64H42.6299V109.891H42.6197H42.6095L42.5993 109.901H42.5892H42.579V109.911H42.5688C42.5484 109.921 42.5179 109.931 42.4976 109.931V108.012H42.5077L42.5383 108.002L42.579 107.981H42.5993C42.6197 107.971 42.64 107.961 42.6502 107.951L42.6706 107.94H42.6807L42.6909 107.93H42.7011V107.92Z" fill="#BEBEC0"/>
<path fill-rule="evenodd" clip-rule="evenodd" d="M42.4975 108.012V109.931C42.3958 109.962 42.2838 109.982 42.1719 109.993V108.073H42.1922C42.2533 108.073 42.3042 108.063 42.3551 108.053H42.3652L42.3856 108.042H42.4059H42.4161L42.4263 108.032H42.4365H42.4466H42.4568V108.022H42.467H42.4772H42.4873L42.4975 108.012Z" fill="#B9B7B8"/>
<path fill-rule="evenodd" clip-rule="evenodd" d="M42.1721 108.072V109.992C42.1008 110.002 42.0194 110.002 41.938 109.992V108.072H41.9482H41.9583H41.9685H41.9787L41.9889 108.082H41.999H42.0092H42.0194H42.0296H42.0398H42.0703H42.0805H42.0906H42.1008H42.1212H42.1313L42.1415 108.072H42.1517H42.1619H42.1721Z" fill="#B0AFB1"/>
<path fill-rule="evenodd" clip-rule="evenodd" d="M41.938 108.073V109.992C41.9176 109.992 41.8871 109.992 41.8566 109.982H41.8362H41.8261H41.8159V109.972H41.7955H41.7853H41.7752H41.765L41.7141 109.962V108.042H41.7243H41.7345H41.7446V108.052H41.7548H41.765H41.7752H41.7853H41.7955V108.062H41.8057H41.8159H41.8261H41.8362H41.8464H41.8566H41.8668V108.073H41.8769H41.8871H41.8973H41.9075H41.9176H41.9278H41.938Z" fill="#A9A6A8"/>
<path fill-rule="evenodd" clip-rule="evenodd" d="M41.7141 108.042V109.962C41.6428 109.942 41.5818 109.921 41.5105 109.891L41.5004 109.88H41.4902H41.48V109.87H41.4698H41.4597V109.86H41.4495L41.4393 109.85H41.4291L41.4189 109.84V107.92V107.93H41.4291L41.4393 107.94H41.4495V107.951H41.4597H41.4698V107.961H41.48H41.4902L41.5004 107.971H41.5105L41.5207 107.981H41.5309H41.5411V107.991H41.5512H41.5614L41.5716 108.002H41.5818H41.5919L41.6021 108.012H41.6123H41.6225L41.6327 108.022H41.6428L41.6632 108.032H41.6835H41.6937L41.7039 108.042H41.7141Z" fill="#A19EA0"/>
<path fill-rule="evenodd" clip-rule="evenodd" d="M65.3137 1.05128L63.665 0.0914533H63.6752V0.0812424H63.6854C63.7465 0.0506095 63.8075 0.0199766 63.8686 0.00976562L65.5172 0.969596C65.4765 0.979807 65.4256 1.00023 65.3747 1.02065L65.3645 1.03086L65.3442 1.04107H65.334L65.3238 1.05128H65.3137Z" fill="#494544"/>
<path fill-rule="evenodd" clip-rule="evenodd" d="M65.5173 0.970042L63.8687 0.010211C63.8788 0.010211 63.8992 0 63.9195 0H63.9297H63.9399H63.9501H63.9602H63.9704H63.9806L65.6292 0.970042C65.5885 0.959831 65.558 0.970042 65.5173 0.970042Z" fill="#454140"/>
<path fill-rule="evenodd" clip-rule="evenodd" d="M65.6293 0.970042L63.9807 0H63.9909H64.0011C64.0112 0 64.0112 0.010211 64.0214 0.010211H64.0316H64.0418H64.0519L64.0621 0.0204219H64.0723L65.7311 0.980253C65.7006 0.980253 65.6802 0.970042 65.6497 0.970042H65.6395H65.6293Z" fill="#423E3D"/>
<path fill-rule="evenodd" clip-rule="evenodd" d="M65.7308 0.979362L64.072 0.0195312H64.0822C64.0822 0.0195312 64.0924 0.0297422 64.1026 0.0297422L64.1127 0.0399532H64.1229L64.1534 0.0603751L64.1738 0.0705861L64.2043 0.091008L64.2348 0.101219L64.2552 0.121641L64.2857 0.131852L64.3061 0.152274L64.3366 0.162485L64.357 0.182907L64.3875 0.193118L64.4078 0.21354L64.4384 0.223751L64.4587 0.244172L64.4893 0.254383L64.5096 0.274805L64.5401 0.285016L64.5707 0.305438L64.591 0.315649L64.6216 0.32586L64.6419 0.346282L64.6724 0.356493L64.6928 0.376915L64.7233 0.387126L64.7437 0.407548L64.7742 0.417759L64.7946 0.438181L64.8251 0.448392L64.8454 0.468814L64.876 0.479025L64.8963 0.499447L64.9269 0.509658L64.9574 0.530079L64.9777 0.54029L65.0083 0.560712L65.0286 0.570923L65.0592 0.591345L65.0795 0.601556L65.11 0.611767L65.1304 0.632189L65.1609 0.6424L65.1813 0.662822L65.2118 0.673033L65.2322 0.693455L65.2627 0.703666L65.2932 0.724088L65.3136 0.734299L65.3441 0.754721L65.3645 0.764932L65.395 0.785354L65.4153 0.795565L65.4459 0.815986L65.4662 0.826197L65.4967 0.846619L65.5171 0.85683L65.629 0.918096L65.6494 0.928307L65.7715 0.999784C65.7613 0.999784 65.7512 0.989573 65.741 0.989573H65.7308V0.979362Z" fill="#3F3C3A"/>
<path fill-rule="evenodd" clip-rule="evenodd" d="M1.97405 84.4849L1.94352 84.4747L1.91299 84.4543L1.89264 84.4441L1.86211 84.4237L1.84176 84.4134L1.81123 84.393L1.79087 84.3828L1.76034 84.3624L1.55681 84.2501L1.52628 84.2297L1.50593 84.2194L1.45504 84.1888L1.42451 84.1684L1.40416 84.1582L1.08868 83.9744L1.06833 83.9642L1.0378 83.9437L1.01745 83.9335L0.986918 83.9131L0.966565 83.9029L0.936035 83.8825L0.905505 83.8723L0.885152 83.8518L0.854622 83.8416L0.803738 83.811L0.783385 83.7906L0.752855 83.7804L0.732502 83.7599L0.701972 83.7497L0.681619 83.7293L0.651089 83.7191L0.630736 83.6987L0.600206 83.6885L0.569676 83.668L0.549322 83.6578L0.518792 83.6476L0.498439 83.6272L0.467909 83.617L0.447556 83.5966L0.417026 83.5864L0.396673 83.5659L0.366143 83.5557L0.34579 83.5353L0.31526 83.5251C0.203317 83.4536 0.13208 83.3107 0.13208 83.1064L1.7807 84.0663C1.7807 84.2705 1.85193 84.4134 1.97405 84.4849Z" fill="#393634"/>
<path fill-rule="evenodd" clip-rule="evenodd" d="M1.78091 84.0673L0.132296 83.1075L0 37.7197L1.64862 38.6796L1.78091 84.0673Z" fill="#393634"/>
<path fill-rule="evenodd" clip-rule="evenodd" d="M2.29991 37.566L0.641113 36.596L63.6651 0.0917969L65.3137 1.05163L2.29991 37.566Z" fill="#4C4747"/>
<path fill-rule="evenodd" clip-rule="evenodd" d="M1.64862 38.6799L0 37.7201V37.7099V37.6997V37.6895V37.6793V37.6691V37.6589V37.6486V37.6384V37.6282L0.0101766 37.618V37.6078V37.5976V37.5874V37.5772V37.567V37.5567V37.5465H0.0203533V37.5363V37.5261V37.5159V37.5057V37.4955H0.0305299V37.4853V37.4751V37.4648L1.68932 38.4247L1.67915 38.4349V38.4553V38.4655V38.4757H1.66897V38.5166V38.5268L1.65879 38.537V38.5472V38.5574V38.5676V38.5778V38.588V38.5983V38.6085V38.6187V38.6289H1.64862V38.6391V38.6493V38.6595V38.6697V38.6799Z" fill="#393634"/>
<path fill-rule="evenodd" clip-rule="evenodd" d="M1.68931 38.424L0.0305176 37.4642V37.4539H0.0406942V37.4437V37.4335V37.4233V37.4131H0.0508709V37.4029V37.3927V37.3825H0.0610475V37.3723V37.362L0.0712241 37.3416V37.3314V37.3212H0.0814008V37.311V37.3008L1.74019 38.2606L1.71984 38.3015V38.3219L1.70966 38.3321V38.3423V38.3525L1.69949 38.3627V38.3729V38.3831V38.3934H1.68931V38.4036V38.4138V38.424Z" fill="#3D3837"/>
<path fill-rule="evenodd" clip-rule="evenodd" d="M1.74034 38.26L0.081543 37.3002L0.0917196 37.29V37.2798V37.2695H0.101896V37.2593V37.2491V37.2389H0.112073V37.2287L0.12225 37.2185V37.2083V37.1981H0.132426L0.142603 37.1572L1.8014 38.1171V38.1273H1.79122V38.1375V38.1477H1.78104V38.1579V38.1681H1.77087V38.1783V38.1885L1.76069 38.1987V38.209L1.75051 38.2192V38.2294V38.2396H1.74034C1.74034 38.2498 1.74034 38.26 1.74034 38.26Z" fill="#3F3C3A"/>
<path fill-rule="evenodd" clip-rule="evenodd" d="M1.80113 38.117L0.142334 37.1572L0.152511 37.1367H0.162687V37.1265V37.1163H0.172864V37.1061V37.0959H0.183041V37.0857L0.193217 37.0755V37.0653H0.203394V37.055L0.21357 37.0346L0.223747 37.0244L1.88254 37.9842H1.87236V37.9945L1.86219 38.0047V38.0149H1.85201V38.0251V38.0353H1.84183V38.0455L1.83166 38.0557V38.0659H1.82148V38.0761C1.82148 38.0864 1.8113 38.0966 1.8113 38.1068H1.80113V38.117Z" fill="#423E3D"/>
<path fill-rule="evenodd" clip-rule="evenodd" d="M1.88267 37.9851L0.223877 37.0252C0.254407 36.9742 0.295113 36.9231 0.33582 36.8721L1.98444 37.8421H1.97426V37.8523H1.96408V37.8625V37.8727H1.95391V37.883H1.94373V37.8932H1.93355V37.9034V37.9136H1.92338V37.9238H1.9132V37.934L1.90302 37.9442V37.9544H1.89285V37.9646L1.88267 37.9749V37.9851Z" fill="#454140"/>
<path fill-rule="evenodd" clip-rule="evenodd" d="M1.98455 37.8414L0.335938 36.8714V36.8612H0.346114V36.851H0.356291V36.8408H0.366467V36.8306L0.376644 36.8203L0.386821 36.8101L0.396997 36.7999L0.407174 36.7897L0.417351 36.7795V36.7693H0.427527V36.7591H0.437704L0.447881 36.7489L0.458057 36.7387L0.468234 36.7284L0.47841 36.7182H0.488587V36.708H0.498764V36.6978H0.50894V36.6876H0.519117L0.529294 36.6774L0.549647 36.6672L0.57 36.6468L0.580177 36.6365H0.590354V36.6263H0.60053H0.610707V36.6161H0.620883L0.63106 36.6059H0.641237V36.5957L2.30003 37.5657H2.28985L2.27968 37.576H2.2695V37.5862H2.25932H2.24915V37.5964H2.23897L2.22879 37.6066H2.21862V37.6168C2.1372 37.6781 2.05579 37.7495 1.98455 37.8414Z" fill="#494544"/>
<path fill-rule="evenodd" clip-rule="evenodd" d="M65.3138 1.05153C65.6801 0.847314 65.9651 1.01069 65.9651 1.42934L66.0974 46.8069C66.0974 47.2255 65.8124 47.7258 65.4562 47.9301L2.43228 84.4445C2.0761 84.6487 1.78098 84.4853 1.78098 84.0667L1.64868 38.6789C1.64868 38.2705 1.9438 37.7702 2.29999 37.5659L65.3138 1.05153Z" fill="#464242"/>
<path fill-rule="evenodd" clip-rule="evenodd" d="M64.2961 4.74862C64.3979 4.68735 64.4895 4.73841 64.4895 4.86094L64.6014 45.1942C64.6014 45.3168 64.52 45.4699 64.4081 45.5312L3.48052 80.8305C3.36857 80.8918 3.28716 80.8407 3.28716 80.7182L3.16504 40.3849C3.16504 40.2623 3.25663 40.1092 3.36857 40.0377L64.2961 4.74862Z" fill="#00A097"/>
<path fill-rule="evenodd" clip-rule="evenodd" d="M29.3085 33.5225L29.339 55.6802L8.78223 67.5862L12.3339 43.3556L29.3085 33.5225Z" fill="#C2362E"/>
<path fill-rule="evenodd" clip-rule="evenodd" d="M24.78 32.4713C24.9937 32.3488 25.1566 32.4407 25.1362 32.6755L24.8716 36.086L24.1084 36.5353L24.3322 33.5435L17.7683 37.3521L17.5444 40.344L16.771 40.783L17.0254 37.3726C17.0458 37.1377 17.2289 36.8518 17.4427 36.7293L24.78 32.4713Z" fill="#BDBCBD"/>
<path fill-rule="evenodd" clip-rule="evenodd" d="M29.3087 33.5225L28.4539 39.1181L29.2476 39.9452L29.7768 34.952L29.3087 33.5225Z" fill="#AD342D"/>
<path fill-rule="evenodd" clip-rule="evenodd" d="M30.9776 34.9521H29.7767L29.2476 39.9453L30.9776 41.7322V34.9521Z" fill="#91322D"/>
<path fill-rule="evenodd" clip-rule="evenodd" d="M30.9775 34.9521L34.4274 59.1317L13.8706 71.0377L14.0029 44.7853L18.4399 42.2121L18.6027 44.724L19.3762 44.2748L19.2032 41.7629L25.7671 37.9644L25.9401 40.4763L26.7034 40.027L26.5405 37.5151L30.9775 34.9521Z" fill="#E94A4A"/>
<path fill-rule="evenodd" clip-rule="evenodd" d="M25.8794 33.5732C26.0931 33.4506 26.2763 33.5527 26.2967 33.808L26.5409 37.5146L26.7037 40.0265L25.9405 40.4758L25.7675 37.9639L25.5538 34.7168L18.9898 38.5153L19.2035 41.7624L19.3765 44.2743L18.6031 44.7235L18.4403 42.2116L18.1961 38.5051C18.1757 38.2498 18.3385 37.9435 18.5421 37.8209L25.8794 33.5732Z" fill="#FEFEFE"/>
<path fill-rule="evenodd" clip-rule="evenodd" d="M12.0085 68.1884L13.8709 71.0373L14.0032 44.7849V43.4473L12.0085 68.1884Z" fill="#AD342D"/>
<path fill-rule="evenodd" clip-rule="evenodd" d="M12.3339 43.3555L8.78223 67.5861L12.0082 68.1885L14.0028 43.4474L12.3339 43.3555Z" fill="#D73A36"/>
<path fill-rule="evenodd" clip-rule="evenodd" d="M44.1462 38.7197L44.1665 44.0805L43.1082 44.6931L43.098 42.4569L41.5003 43.3861V45.6223L40.4521 46.2248L40.4419 40.864L41.4901 40.2616L41.5003 42.3242L43.098 41.395V39.3324L44.1462 38.7197Z" fill="#FEFEFE"/>
<path fill-rule="evenodd" clip-rule="evenodd" d="M38.376 36.6063C39.0171 36.2387 39.414 35.3197 39.4039 34.2476C39.4039 33.1754 39.007 32.767 38.3658 33.1346C37.7349 33.5022 37.338 34.3701 37.338 35.4423C37.338 36.5246 37.7451 36.9739 38.376 36.6063ZM38.3658 32.0931C39.6176 31.3579 40.4826 31.8786 40.4826 33.6247C40.4928 35.3708 39.6379 36.9229 38.376 37.6478C37.1243 38.3728 36.2695 37.8214 36.2593 36.0651C36.2593 34.3088 37.1141 32.818 38.3658 32.0931Z" fill="#FEFEFE"/>
<path fill-rule="evenodd" clip-rule="evenodd" d="M44.9706 28.3555L44.991 33.7264L43.9123 34.3493L42.6911 32.3786L42.2331 31.4698L42.2026 31.4902C42.2433 32.062 42.3349 32.7155 42.3349 33.3588L42.3451 35.2581L41.3376 35.8299L41.3274 30.4691L42.4061 29.8463L43.6273 31.8068L44.0853 32.7258L44.1158 32.7155C44.0649 32.1642 43.9835 31.4596 43.9733 30.8265V28.9375L44.9706 28.3555Z" fill="#FEFEFE"/>
<path fill-rule="evenodd" clip-rule="evenodd" d="M47.0771 27.1406L47.0974 31.4803L48.9394 30.4183V31.4292L46.0492 33.1038L46.0391 27.7431L47.0771 27.1406Z" fill="#FEFEFE"/>
<path fill-rule="evenodd" clip-rule="evenodd" d="M50.6593 25.0674L50.6796 30.4281L49.6314 31.0306L49.6111 25.6698L50.6593 25.0674Z" fill="#FEFEFE"/>
<path fill-rule="evenodd" clip-rule="evenodd" d="M55.3609 22.3418L55.3711 27.7026L54.2924 28.3356L53.0712 26.3547L52.6132 25.4561L52.5827 25.4766C52.6336 26.0382 52.715 26.7019 52.715 27.3452L52.7252 29.2444L51.7279 29.8162L51.7075 24.4555L52.7862 23.8326L54.0074 25.7931L54.4654 26.7121L54.4959 26.7019C54.4552 26.1505 54.3636 25.4459 54.3636 24.8128L54.3534 22.9238L55.3609 22.3418Z" fill="#FEFEFE"/>
<path fill-rule="evenodd" clip-rule="evenodd" d="M59.3297 20.0439V21.065L57.4674 22.1372L57.4776 23.2196L59.0549 22.3006L59.0651 23.3115L57.4776 24.2304V25.466L59.4111 24.3428V25.3639L56.4395 27.0895L56.4192 21.7288L59.3297 20.0439Z" fill="#FEFEFE"/>
<path fill-rule="evenodd" clip-rule="evenodd" d="M38.0404 42.1618C38.5797 41.8453 39.1394 41.7636 39.5465 41.9985L39.0072 43.0706C38.7019 42.9787 38.4169 42.9889 38.0505 43.2034C37.6842 43.4178 37.4603 43.7241 37.4603 44.0304C37.4603 44.3572 37.7656 44.2959 38.1625 44.2551L38.7629 44.1836C39.3328 44.1223 39.689 44.3572 39.689 45.1128C39.689 46.0012 39.0479 47.1448 37.9386 47.7881C37.3382 48.1353 36.6869 48.2476 36.2188 48.0127L36.8192 46.8283C37.155 46.9712 37.5824 46.9508 37.959 46.7261C38.3966 46.4709 38.6103 46.1543 38.6103 45.8276C38.6103 45.4906 38.3457 45.5417 37.9386 45.5825L37.328 45.6336C36.8497 45.6846 36.3918 45.4906 36.3918 44.7146C36.3918 43.8262 37.0736 42.7234 38.0404 42.1618Z" fill="#FEFEFE"/>
<path fill-rule="evenodd" clip-rule="evenodd" d="M47.1179 41.4154C47.759 41.0478 48.1559 40.139 48.1559 39.0567C48.1457 37.9947 47.7488 37.5761 47.1077 37.9539C46.4768 38.3113 46.0799 39.1894 46.0799 40.2616C46.09 41.3337 46.4869 41.783 47.1179 41.4154ZM47.1077 36.9022C48.3696 36.1772 49.2244 36.6979 49.2244 38.4338C49.2346 40.1901 48.3798 41.7319 47.1281 42.4671C45.8763 43.1921 45.0113 42.6305 45.0113 40.8844C45.0011 39.1281 45.856 37.6271 47.1077 36.9022Z" fill="#FEFEFE"/>
<path fill-rule="evenodd" clip-rule="evenodd" d="M51.7177 36.9231C52.2876 36.5862 52.5624 36.1369 52.5624 35.5753C52.5624 35.0137 52.2672 34.9831 51.7075 35.2996L51.1173 35.6468L51.1275 37.2601L51.7177 36.9231ZM51.7686 34.3091C52.7761 33.7271 53.5902 33.6761 53.5902 34.9831C53.6004 36.239 52.7659 37.2805 51.7788 37.8523L51.1275 38.2302L51.1376 40.0477L50.0894 40.6502L50.0691 35.2894L51.7686 34.3091Z" fill="#FEFEFE"/>
</svg>
