<svg width="123" height="81" viewBox="0 0 123 81" fill="none" xmlns="http://www.w3.org/2000/svg">
<path fill-rule="evenodd" clip-rule="evenodd" d="M19.2166 0.875H118.059V46.6396H19.2166V0.875Z" fill="#09887A"/>
<path fill-rule="evenodd" clip-rule="evenodd" d="M19.2168 0.874692V1.74938H117.184V45.7646H20.0925V0.874692H19.2168V1.74938V0.874692H18.3411V47.5139H118.935V0H18.3411V0.874692H19.2168Z" fill="#A6CA5B"/>
<path fill-rule="evenodd" clip-rule="evenodd" d="M32.5017 7.21191H104.775L111.896 14.325V33.1886L104.775 40.3017H32.5017L25.3801 33.1886V14.325L32.5017 7.21191Z" fill="#A6CA5B"/>
<path fill-rule="evenodd" clip-rule="evenodd" d="M55.3035 23.7491C55.3035 16.3885 61.2684 10.4307 68.6378 10.4307C76.0072 10.4307 81.9887 16.3885 81.9887 23.7491C81.9887 31.1097 76.0072 37.084 68.6378 37.084C61.2684 37.084 55.3035 31.1097 55.3035 23.7491Z" fill="#6A6766"/>
<path fill-rule="evenodd" clip-rule="evenodd" d="M74.0081 26.0251C74.0081 24.6718 73.6115 21.7341 69.8277 21.7341H67.7953C66.6222 21.7341 66.3413 21.14 66.3413 20.2158V19.3576C66.3413 18.1694 67.3988 17.9713 68.3241 17.9713C70.3895 17.9713 72.5871 18.1198 73.4793 18.1694V15.7763C72.2566 15.4297 71.3313 15.2482 69.6294 15.1657V13.3008H67.7292V15.1162C65.482 15.0667 63.1853 15.8919 63.1853 19.4731V20.5459C63.1853 22.3283 63.7967 24.8368 67.0187 24.8368H69.1007C70.2573 24.8368 70.8687 25.1999 70.8687 26.3717V27.1638C70.8687 28.6327 70.0921 28.7812 68.7537 28.7647C67.9605 28.7647 65.0855 28.6327 63.7967 28.5336V30.9432C64.8376 31.2072 66.2256 31.4548 67.7292 31.5373V33.4682H69.6129V31.5703C72.0253 31.5043 73.9255 30.5471 73.942 27.3949L74.0081 26.0251Z" fill="#F8F8F9"/>
<path fill-rule="evenodd" clip-rule="evenodd" d="M48.6615 28.6504H32.7164C32.0886 28.6504 31.5598 29.1785 31.5598 29.8056C31.5598 30.4493 32.0886 30.9609 32.7164 30.9609H48.6615C49.2894 30.9609 49.8181 30.4493 49.8181 29.8056C49.8181 29.1785 49.2894 28.6504 48.6615 28.6504Z" fill="#F8F8F9"/>
<path fill-rule="evenodd" clip-rule="evenodd" d="M48.6615 22.5938H32.7164C32.0886 22.5938 31.5598 23.1219 31.5598 23.749C31.5598 24.3926 32.0886 24.9043 32.7164 24.9043H48.6615C49.2894 24.9043 49.8181 24.3926 49.8181 23.749C49.8181 23.1219 49.2894 22.5938 48.6615 22.5938Z" fill="#F8F8F9"/>
<path fill-rule="evenodd" clip-rule="evenodd" d="M48.6615 16.5537H32.7164C32.0886 16.5537 31.5598 17.0653 31.5598 17.709C31.5598 18.3361 32.0886 18.8642 32.7164 18.8642H48.6615C49.2894 18.8642 49.8181 18.3361 49.8181 17.709C49.8181 17.0653 49.2894 16.5537 48.6615 16.5537Z" fill="#F8F8F9"/>
<path fill-rule="evenodd" clip-rule="evenodd" d="M104.56 28.6504H88.6312C87.9868 28.6504 87.4746 29.1785 87.4746 29.8056C87.4746 30.4493 87.9868 30.9609 88.6312 30.9609H104.56C105.204 30.9609 105.716 30.4493 105.716 29.8056C105.716 29.1785 105.204 28.6504 104.56 28.6504Z" fill="#F8F8F9"/>
<path fill-rule="evenodd" clip-rule="evenodd" d="M104.56 22.5938H88.6312C87.9868 22.5938 87.4746 23.1219 87.4746 23.749C87.4746 24.3926 87.9868 24.9043 88.6312 24.9043H104.56C105.204 24.9043 105.716 24.3926 105.716 23.749C105.716 23.1219 105.204 22.5938 104.56 22.5938Z" fill="#F8F8F9"/>
<path fill-rule="evenodd" clip-rule="evenodd" d="M104.56 16.5537H88.6312C87.9868 16.5537 87.4746 17.0653 87.4746 17.709C87.4746 18.3361 87.9868 18.8642 88.6312 18.8642H104.56C105.204 18.8642 105.716 18.3361 105.716 17.709C105.716 17.0653 105.204 16.5537 104.56 16.5537Z" fill="#F8F8F9"/>
<path fill-rule="evenodd" clip-rule="evenodd" d="M13.103 6.98145H111.946V52.746H13.103V6.98145Z" fill="#09887A"/>
<path fill-rule="evenodd" clip-rule="evenodd" d="M13.1028 6.98114V7.85583H111.07V51.871H13.9785V6.98114H13.1028V7.85583V6.98114H12.2271V53.6204H112.821V6.10645H12.2271V6.98114H13.1028Z" fill="#A6CA5B"/>
<path fill-rule="evenodd" clip-rule="evenodd" d="M26.3877 13.3193H98.6608L105.782 20.4324V39.296L98.6608 46.4091H26.3877L19.2661 39.296V20.4324L26.3877 13.3193Z" fill="#A6CA5B"/>
<path fill-rule="evenodd" clip-rule="evenodd" d="M49.1899 29.8546C49.1899 22.4939 55.1549 16.5361 62.5243 16.5361C69.8937 16.5361 75.8751 22.4939 75.8751 29.8546C75.8751 37.2152 69.8937 43.1895 62.5243 43.1895C55.1549 43.1895 49.1899 37.2152 49.1899 29.8546Z" fill="#6A6766"/>
<path fill-rule="evenodd" clip-rule="evenodd" d="M67.8946 32.1325C67.8946 30.7792 67.498 27.8416 63.7142 27.8416H61.6818C60.5086 27.8416 60.2277 27.2474 60.2277 26.3232V25.465C60.2277 24.2768 61.2852 24.0787 62.2105 24.0787C64.276 24.0787 66.4901 24.2273 67.3658 24.2768V21.8837C66.1596 21.5372 65.2178 21.3556 63.5159 21.2731V19.4082H61.6157V21.2236C59.3685 21.1741 57.0718 21.9993 57.0718 25.5806V26.6533C57.0718 28.4357 57.6831 30.9442 60.9217 30.9442H62.9871C64.1438 30.9442 64.7551 31.3073 64.7551 32.4791V33.2712C64.7551 34.7401 63.9785 34.8886 62.6401 34.8721C61.847 34.8721 58.972 34.7401 57.6831 34.641V37.0506C58.7241 37.3146 60.1121 37.5622 61.6157 37.6447V39.5756H63.4994V37.6777C65.9118 37.6117 67.812 36.6545 67.8285 33.5023L67.8946 32.1325Z" fill="#F8F8F9"/>
<path fill-rule="evenodd" clip-rule="evenodd" d="M42.5475 34.7559H26.6024C25.9745 34.7559 25.4458 35.2675 25.4458 35.9111C25.4458 36.5548 25.9745 37.0664 26.6024 37.0664H42.5475C43.1754 37.0664 43.7041 36.5548 43.7041 35.9111C43.7041 35.2675 43.1754 34.7559 42.5475 34.7559Z" fill="#F8F8F9"/>
<path fill-rule="evenodd" clip-rule="evenodd" d="M42.5475 28.6992H26.6024C25.9745 28.6992 25.4458 29.2273 25.4458 29.8545C25.4458 30.4981 25.9745 31.0097 26.6024 31.0097H42.5475C43.1754 31.0097 43.7041 30.4981 43.7041 29.8545C43.7041 29.2273 43.1754 28.6992 42.5475 28.6992Z" fill="#F8F8F9"/>
<path fill-rule="evenodd" clip-rule="evenodd" d="M42.5475 22.6602H26.6024C25.9745 22.6602 25.4458 23.1718 25.4458 23.8154C25.4458 24.4425 25.9745 24.9707 26.6024 24.9707H42.5475C43.1754 24.9707 43.7041 24.4425 43.7041 23.8154C43.7041 23.1718 43.1754 22.6602 42.5475 22.6602Z" fill="#F8F8F9"/>
<path fill-rule="evenodd" clip-rule="evenodd" d="M98.446 34.7559H82.5175C81.8731 34.7559 81.3608 35.2675 81.3608 35.9111C81.3608 36.5548 81.8731 37.0664 82.5175 37.0664H98.446C99.0904 37.0664 99.6026 36.5548 99.6026 35.9111C99.6026 35.2675 99.0904 34.7559 98.446 34.7559Z" fill="#F8F8F9"/>
<path fill-rule="evenodd" clip-rule="evenodd" d="M98.446 28.6992H82.5175C81.8731 28.6992 81.3608 29.2273 81.3608 29.8545C81.3608 30.4981 81.8731 31.0097 82.5175 31.0097H98.446C99.0904 31.0097 99.6026 30.4981 99.6026 29.8545C99.6026 29.2273 99.0904 28.6992 98.446 28.6992Z" fill="#F8F8F9"/>
<path fill-rule="evenodd" clip-rule="evenodd" d="M98.446 22.6602H82.5175C81.8731 22.6602 81.3608 23.1718 81.3608 23.8154C81.3608 24.4425 81.8731 24.9707 82.5175 24.9707H98.446C99.0904 24.9707 99.6026 24.4425 99.6026 23.8154C99.6026 23.1718 99.0904 22.6602 98.446 22.6602Z" fill="#F8F8F9"/>
<path fill-rule="evenodd" clip-rule="evenodd" d="M6.98926 13.0869H105.832V58.8515H6.98926V13.0869Z" fill="#09887A"/>
<path fill-rule="evenodd" clip-rule="evenodd" d="M6.98926 13.0876V13.9623H104.956V57.9775H7.865V13.0876H6.98926V13.9623V13.0876H6.11353V59.7268H106.708V12.2129H6.11353V13.0876H6.98926Z" fill="#A6CA5B"/>
<path fill-rule="evenodd" clip-rule="evenodd" d="M20.2742 19.4238H92.5473L99.6688 26.5369V45.4005L92.5473 52.5136H20.2742L13.1526 45.4005V26.5369L20.2742 19.4238Z" fill="#A6CA5B"/>
<path fill-rule="evenodd" clip-rule="evenodd" d="M43.0764 35.961C43.0764 28.6004 49.0413 22.6426 56.4108 22.6426C63.7802 22.6426 69.7616 28.6004 69.7616 35.961C69.7616 43.3216 63.7802 49.2959 56.4108 49.2959C49.0413 49.2959 43.0764 43.3216 43.0764 35.961Z" fill="#6A6766"/>
<path fill-rule="evenodd" clip-rule="evenodd" d="M61.7808 38.2389C61.7808 36.8857 61.3842 33.948 57.6169 33.948H55.568C54.4114 33.948 54.114 33.3539 54.114 32.4297V31.5715C54.114 30.3832 55.1715 30.1852 56.1133 30.1852C58.1622 30.1852 60.3763 30.3337 61.2521 30.3832V27.9902C60.0459 27.6436 59.104 27.4621 57.4021 27.3796V25.5146H55.5019V27.33C53.2548 27.2805 50.958 28.1057 50.958 31.687V32.7597C50.958 34.5421 51.5694 37.0507 54.808 37.0507H56.8734C58.03 37.0507 58.6414 37.4138 58.6414 38.5855V39.3777C58.6414 40.8465 57.8813 40.9951 56.5264 40.9786C55.7333 40.9786 52.8582 40.8465 51.5694 40.7475V43.157C52.6103 43.4211 54.0148 43.6686 55.5019 43.7512V45.6656H57.3856V43.7677C59.798 43.7017 61.6982 42.7609 61.7147 39.6088L61.7808 38.2389Z" fill="#F8F8F9"/>
<path fill-rule="evenodd" clip-rule="evenodd" d="M36.4339 40.8623H20.4889C19.861 40.8623 19.3323 41.3739 19.3323 42.0176C19.3323 42.6612 19.861 43.1728 20.4889 43.1728H36.4339C37.0618 43.1728 37.5906 42.6612 37.5906 42.0176C37.5906 41.3739 37.0618 40.8623 36.4339 40.8623Z" fill="#F8F8F9"/>
<path fill-rule="evenodd" clip-rule="evenodd" d="M36.4339 34.8057H20.4889C19.861 34.8057 19.3323 35.3338 19.3323 35.9609C19.3323 36.6046 19.861 37.1162 20.4889 37.1162H36.4339C37.0618 37.1162 37.5906 36.6046 37.5906 35.9609C37.5906 35.3338 37.0618 34.8057 36.4339 34.8057Z" fill="#F8F8F9"/>
<path fill-rule="evenodd" clip-rule="evenodd" d="M36.4339 28.7656H20.4889C19.861 28.7656 19.3323 29.2772 19.3323 29.9209C19.3323 30.548 19.861 31.0761 20.4889 31.0761H36.4339C37.0618 31.0761 37.5906 30.548 37.5906 29.9209C37.5906 29.2772 37.0618 28.7656 36.4339 28.7656Z" fill="#F8F8F9"/>
<path fill-rule="evenodd" clip-rule="evenodd" d="M92.3325 40.8623H76.4039C75.7595 40.8623 75.2473 41.3739 75.2473 42.0176C75.2473 42.6612 75.7595 43.1728 76.4039 43.1728H92.3325C92.9769 43.1728 93.4891 42.6612 93.4891 42.0176C93.4891 41.3739 92.9769 40.8623 92.3325 40.8623Z" fill="#F8F8F9"/>
<path fill-rule="evenodd" clip-rule="evenodd" d="M92.3325 34.8057H76.4039C75.7595 34.8057 75.2473 35.3338 75.2473 35.9609C75.2473 36.6046 75.7595 37.1162 76.4039 37.1162H92.3325C92.9769 37.1162 93.4891 36.6046 93.4891 35.9609C93.4891 35.3338 92.9769 34.8057 92.3325 34.8057Z" fill="#F8F8F9"/>
<path fill-rule="evenodd" clip-rule="evenodd" d="M92.3325 28.7656H76.4039C75.7595 28.7656 75.2473 29.2772 75.2473 29.9209C75.2473 30.548 75.7595 31.0761 76.4039 31.0761H92.3325C92.9769 31.0761 93.4891 30.548 93.4891 29.9209C93.4891 29.2772 92.9769 28.7656 92.3325 28.7656Z" fill="#F8F8F9"/>
<path fill-rule="evenodd" clip-rule="evenodd" d="M0.875732 19.1934H99.7184V64.9579H0.875732V19.1934Z" fill="#09887A"/>
<path fill-rule="evenodd" clip-rule="evenodd" d="M0.875737 19.1931V20.0677H98.8427V64.0829H1.75147V19.1931H0.875737V20.0677V19.1931H0V65.8323H100.594V18.3184H0V19.1931H0.875737Z" fill="#A6CA5B"/>
<path fill-rule="evenodd" clip-rule="evenodd" d="M14.177 25.5303H86.4336L93.5552 32.6433V51.507L86.4336 58.62H14.177L7.05542 51.507V32.6433L14.177 25.5303Z" fill="#A6CA5B"/>
<path fill-rule="evenodd" clip-rule="evenodd" d="M36.9629 42.0674C36.9629 34.7068 42.9278 28.749 50.2972 28.749C57.6666 28.749 63.6481 34.7068 63.6481 42.0674C63.6481 49.4281 57.6666 55.4024 50.2972 55.4024C42.9278 55.4024 36.9629 49.4281 36.9629 42.0674Z" fill="#09887A"/>
<path fill-rule="evenodd" clip-rule="evenodd" d="M30.3204 46.9697H14.3754C13.7475 46.9697 13.2188 47.4813 13.2188 48.125C13.2188 48.7686 13.7475 49.2802 14.3754 49.2802H30.3204C30.9648 49.2802 31.4771 48.7686 31.4771 48.125C31.4771 47.4813 30.9648 46.9697 30.3204 46.9697Z" fill="#F8F8F9"/>
<path fill-rule="evenodd" clip-rule="evenodd" d="M30.3204 40.9121H14.3754C13.7475 40.9121 13.2188 41.4402 13.2188 42.0674C13.2188 42.711 13.7475 43.2226 14.3754 43.2226H30.3204C30.9648 43.2226 31.4771 42.711 31.4771 42.0674C31.4771 41.4402 30.9648 40.9121 30.3204 40.9121Z" fill="#F8F8F9"/>
<path fill-rule="evenodd" clip-rule="evenodd" d="M30.3204 34.8555H14.3754C13.7475 34.8555 13.2188 35.3836 13.2188 36.0107C13.2188 36.6544 13.7475 37.166 14.3754 37.166H30.3204C30.9648 37.166 31.4771 36.6544 31.4771 36.0107C31.4771 35.3836 30.9648 34.8555 30.3204 34.8555Z" fill="#F8F8F9"/>
<path fill-rule="evenodd" clip-rule="evenodd" d="M86.2189 46.9697H70.2904C69.646 46.9697 69.1338 47.4813 69.1338 48.125C69.1338 48.7686 69.646 49.2802 70.2904 49.2802H86.2189C86.8633 49.2802 87.3756 48.7686 87.3756 48.125C87.3756 47.4813 86.8633 46.9697 86.2189 46.9697Z" fill="#F8F8F9"/>
<path fill-rule="evenodd" clip-rule="evenodd" d="M86.2189 40.9121H70.2904C69.646 40.9121 69.1338 41.4402 69.1338 42.0674C69.1338 42.711 69.646 43.2226 70.2904 43.2226H86.2189C86.8633 43.2226 87.3756 42.711 87.3756 42.0674C87.3756 41.4402 86.8633 40.9121 86.2189 40.9121Z" fill="#F8F8F9"/>
<path fill-rule="evenodd" clip-rule="evenodd" d="M86.2189 34.8555H70.2904C69.646 34.8555 69.1338 35.3836 69.1338 36.0107C69.1338 36.6544 69.646 37.166 70.2904 37.166H86.2189C86.8633 37.166 87.3756 36.6544 87.3756 36.0107C87.3756 35.3836 86.8633 34.8555 86.2189 34.8555Z" fill="#F8F8F9"/>
<path fill-rule="evenodd" clip-rule="evenodd" d="M68.4894 55.0223L61.9792 48.5198C63.0367 46.6054 63.648 44.4104 63.648 42.0669C63.648 34.7063 57.6666 28.7485 50.2972 28.7485C47.9674 28.7485 45.7698 29.3426 43.8531 30.3988L38.9622 25.5303H77.6764C75.6109 26.6195 74.3386 27.8903 74.0743 29.2436H74.0247V32.6928C69.1999 34.0626 66.0109 36.0431 65.5978 38.2711H65.5482V45.8627C65.5482 47.9092 67.878 49.7741 71.7114 51.1934V52.5137C70.2409 53.2729 69.1338 54.1146 68.4894 55.0223Z" fill="#BCD470"/>
<path fill-rule="evenodd" clip-rule="evenodd" d="M61.9791 48.5204L43.853 30.3994C45.7697 29.3432 47.9673 28.749 50.2971 28.749C57.6665 28.749 63.648 34.7068 63.648 42.0674C63.648 44.411 63.0366 46.6059 61.9791 48.5204Z" fill="#0C9F93"/>
<path fill-rule="evenodd" clip-rule="evenodd" d="M55.7496 43.4212C55.4522 42.9096 54.9896 42.4475 54.3617 42.0349C53.7668 41.6388 52.7094 41.1272 51.2388 40.5826V37.2489C52.478 37.3644 53.6677 37.6449 54.8574 38.1235L55.9149 35.4995C54.5269 34.8723 52.9572 34.5258 51.2388 34.4597V32.7764H49.7021V34.5092C48.1654 34.6413 46.9592 35.0869 46.1165 35.78C45.2573 36.4897 44.8442 37.3974 44.8442 38.4701C44.8442 39.4933 45.1417 40.3185 45.7695 41.0117C46.3809 41.7048 47.4549 42.365 48.9255 42.9426L49.7021 43.2397V46.7219C48.9751 46.6724 48.1489 46.5404 47.2236 46.2928C46.2983 46.0288 45.5052 45.7482 44.8608 45.4347V48.4053C46.2487 49.0159 47.868 49.3295 49.7021 49.379V51.64H51.2388V49.3295C52.792 49.1975 54.0147 48.7519 54.8739 48.0422C55.7496 47.2996 56.1793 46.3258 56.1793 45.1541C56.1793 44.4774 56.0305 43.8998 55.7496 43.4212ZM51.2388 46.6559V43.8338C51.751 44.0649 52.1476 44.2959 52.3954 44.5104C52.6598 44.7415 52.7754 44.9891 52.7754 45.3191C52.7754 46.0288 52.2632 46.4744 51.2388 46.6559ZM49.7021 37.2984V39.9554C49.1899 39.7244 48.8098 39.4933 48.5785 39.2788C48.3472 39.0808 48.2315 38.8002 48.2315 38.4701C48.2315 37.8265 48.7272 37.4304 49.7021 37.2984Z" fill="#F8F8F9"/>
<path fill-rule="evenodd" clip-rule="evenodd" d="M70.1746 65.3877V72.9629C70.1746 77.4023 81.1295 81.0001 94.6622 81.0001C108.178 81.0001 119.133 77.4023 119.133 72.9629V65.3877H70.1746Z" fill="#F7A821"/>
<path fill-rule="evenodd" clip-rule="evenodd" d="M119.133 65.882C119.133 70.3215 108.178 73.9193 94.6622 73.9193C81.1295 73.9193 70.1746 70.3215 70.1746 65.882C70.1746 61.4425 81.1295 57.8447 94.6622 57.8447C108.178 57.8447 119.133 61.4425 119.133 65.882Z" fill="#F7A821"/>
<path fill-rule="evenodd" clip-rule="evenodd" d="M94.662 73.9193C83.1453 73.9193 73.4791 71.3118 70.8684 67.7965C71.9589 68.4401 73.2973 69.0343 74.8671 69.5624C74.9992 69.6284 75.1314 69.6944 75.2636 69.7604C77.296 70.7506 80.0884 71.5593 83.4096 72.1204C86.7308 72.6981 90.5642 73.0116 94.662 73.0116V73.9193ZM94.6455 72.0544C93.3402 72.0544 92.0513 72.0214 90.7956 71.9554C91.3078 71.9719 91.82 71.9719 92.3488 71.9719C93.1254 71.9719 93.902 71.9554 94.662 71.9389V72.0544H94.6455ZM119.1 65.387H119.084C118.885 64.3472 118.109 63.357 116.82 62.4658C118.109 63.357 118.902 64.3472 119.1 65.387Z" fill="#FECB31"/>
<path fill-rule="evenodd" clip-rule="evenodd" d="M117.084 65.8815H116.605C116.605 66.2281 116.489 66.5747 116.225 66.9543C115.779 67.5979 114.887 68.2745 113.614 68.9017C111.714 69.8259 108.988 70.6181 105.733 71.1792C102.478 71.7403 98.6937 72.0539 94.662 72.0539C88.4988 72.0539 82.9304 71.3112 78.9318 70.123C76.949 69.5288 75.3462 68.8357 74.2722 68.0765C73.7435 67.6969 73.3469 67.3173 73.0825 66.9543C72.8347 66.5747 72.719 66.2281 72.719 65.8815C72.719 65.5349 72.8347 65.1884 73.0825 64.8088C73.5287 64.1651 74.4209 63.4885 75.6932 62.8614C77.5934 61.9372 80.3198 61.145 83.5749 60.5839C86.83 60.0392 90.6138 59.7092 94.662 59.7092C100.809 59.7092 106.377 60.4518 110.376 61.6401C112.375 62.2342 113.978 62.9439 115.035 63.6865C115.581 64.0661 115.977 64.4457 116.225 64.8088C116.489 65.1884 116.605 65.5349 116.605 65.8815H117.084H117.563C117.563 65.3204 117.365 64.7593 117.018 64.2642C116.423 63.406 115.399 62.6633 114.044 62.0032C112.012 61.013 109.219 60.2043 105.898 59.6431C102.577 59.082 98.7433 58.752 94.662 58.752C88.4327 58.752 82.7817 59.4946 78.6674 60.7159C76.602 61.3265 74.9166 62.0527 73.7269 62.8944C73.1156 63.3235 72.6364 63.7691 72.2894 64.2642C71.9424 64.7593 71.7441 65.3204 71.7441 65.8815C71.7441 66.4592 71.9424 67.0038 72.2894 67.4989C72.9008 68.3571 73.9087 69.0997 75.2636 69.7599C77.296 70.7501 80.0884 71.5588 83.4096 72.1199C86.7308 72.6975 90.5642 73.0111 94.662 73.0111C100.891 73.0111 106.526 72.2684 110.657 71.0472C112.706 70.4365 114.391 69.7104 115.597 68.8687C116.192 68.4396 116.671 67.994 117.018 67.4989C117.365 67.0038 117.563 66.4592 117.563 65.8815H117.084Z" fill="#F7A821"/>
<path fill-rule="evenodd" clip-rule="evenodd" d="M73.9419 75.6364C73.3966 75.6364 72.967 75.2074 72.967 74.6792V72.1047C72.967 71.5766 73.3966 71.1475 73.9419 71.1475C74.4707 71.1475 74.9003 71.5766 74.9003 72.1047V74.6792C74.9003 75.2074 74.4707 75.6364 73.9419 75.6364Z" fill="#F1891D"/>
<path fill-rule="evenodd" clip-rule="evenodd" d="M99.7349 66.7406C99.1235 66.4106 98.0164 66.097 96.4302 65.7999L95.4884 65.6184V63.3904C96.7606 63.4399 98.066 63.5884 99.3713 63.8525L100.297 62.7302C98.793 62.4332 97.1737 62.2516 95.4884 62.2351V61.2119H93.8195V62.2516C92.2993 62.3342 91.0931 62.5487 90.2009 62.9118C89.3086 63.2749 88.846 63.737 88.846 64.2981C88.846 64.8262 89.1434 65.2553 89.7878 65.6184C90.4322 65.965 91.4236 66.2785 92.7785 66.5426L93.8195 66.7241V69.0181C93.0594 69.0181 92.2167 68.9521 91.2419 68.8366C90.3 68.7046 89.4573 68.5725 88.7468 68.391V69.6948C90.0687 69.9753 91.7541 70.1404 93.8195 70.1569V71.4442H95.4884V70.1074C97.1572 70.0249 98.4295 69.7938 99.3052 69.3977C100.198 69.0181 100.627 68.5395 100.627 67.9454C100.627 67.4668 100.313 67.0707 99.7349 66.7406ZM95.4884 68.9686V67.0047C96.2815 67.1532 96.8433 67.3018 97.1737 67.4668C97.5042 67.6153 97.686 67.7969 97.686 68.0279C97.686 68.556 96.9424 68.8531 95.4884 68.9686ZM92.2993 63.7205C92.6463 63.5719 93.1586 63.4729 93.8195 63.4234V65.3213C93.0594 65.1728 92.5307 65.0243 92.2167 64.8592C91.9358 64.7107 91.7871 64.5126 91.7871 64.2816C91.7871 64.0505 91.9689 63.869 92.2993 63.7205Z" fill="#F8F8F9"/>
<path fill-rule="evenodd" clip-rule="evenodd" d="M94.6624 81.0001V73.9201C108.178 73.9201 119.133 70.3223 119.133 65.8828V72.9629C119.133 77.4023 108.178 81.0001 94.6624 81.0001ZM109.17 73.392C108.641 73.392 108.212 73.8211 108.212 74.3492V76.9237C108.212 77.4518 108.641 77.8809 109.17 77.8809C109.699 77.8809 110.145 77.4518 110.145 76.9237V74.3492C110.145 73.8211 109.699 73.392 109.17 73.392ZM112.309 72.4182C111.781 72.4182 111.334 72.8638 111.334 73.392V75.95C111.334 76.4781 111.781 76.9237 112.309 76.9237C112.838 76.9237 113.268 76.4781 113.268 75.95V73.392C113.268 72.8638 112.838 72.4182 112.309 72.4182ZM115.432 71.1475C114.903 71.1475 114.474 71.5766 114.474 72.1047V74.6792C114.474 75.2074 114.903 75.6364 115.432 75.6364C115.961 75.6364 116.391 75.2074 116.391 74.6792V72.1047C116.391 71.5766 115.961 71.1475 115.432 71.1475ZM119.133 65.8828C119.133 65.7178 119.117 65.5527 119.1 65.3877H119.133V65.8828Z" fill="#FBBB25"/>
<path fill-rule="evenodd" clip-rule="evenodd" d="M94.6624 73.9193V73.0116C100.892 73.0116 106.526 72.269 110.657 71.0477C112.706 70.4371 114.391 69.7109 115.597 68.8692C116.192 68.4401 116.671 67.9945 117.018 67.4994C117.365 67.0043 117.564 66.4597 117.564 65.8821C117.564 65.3209 117.365 64.7598 117.018 64.2647C116.952 64.1822 116.903 64.0997 116.82 64.0172C116.82 63.9842 116.82 63.9511 116.82 63.9346V62.4658C118.109 63.357 118.886 64.3472 119.084 65.387H119.1C119.117 65.552 119.133 65.717 119.133 65.8821C119.133 70.3215 108.178 73.9193 94.6624 73.9193ZM94.6624 72.0544V71.9389C105.716 71.5923 114.639 68.8362 116.473 65.2879C116.556 65.486 116.605 65.684 116.605 65.8821C116.605 66.2286 116.49 66.5752 116.225 66.9548C115.779 67.5984 114.887 68.2751 113.615 68.9022C111.714 69.8264 108.988 70.6186 105.733 71.1797C102.478 71.7409 98.6941 72.0544 94.6624 72.0544Z" fill="#FFD63D"/>
<path fill-rule="evenodd" clip-rule="evenodd" d="M94.6624 73.0121V72.0549C98.6941 72.0549 102.478 71.7413 105.733 71.1802C108.988 70.619 111.714 69.8269 113.615 68.9027C114.887 68.2755 115.779 67.5989 116.225 66.9552C116.49 66.5756 116.605 66.2291 116.605 65.8825C116.605 65.6844 116.556 65.4864 116.473 65.2884C116.688 64.8758 116.82 64.4467 116.82 64.0176C116.903 64.1001 116.952 64.1826 117.018 64.2651C117.365 64.7602 117.564 65.3214 117.564 65.8825C117.564 66.4601 117.365 67.0047 117.018 67.4998C116.671 67.995 116.192 68.4406 115.597 68.8697C114.391 69.7113 112.706 70.4375 110.657 71.0481C106.526 72.2694 100.892 73.0121 94.6624 73.0121Z" fill="#FBBB25"/>
<path fill-rule="evenodd" clip-rule="evenodd" d="M115.432 75.6364C114.903 75.6364 114.474 75.2074 114.474 74.6792V72.1047C114.474 71.5766 114.903 71.1475 115.432 71.1475C115.961 71.1475 116.391 71.5766 116.391 72.1047V74.6792C116.391 75.2074 115.961 75.6364 115.432 75.6364Z" fill="#FDDC3D"/>
<path fill-rule="evenodd" clip-rule="evenodd" d="M112.309 76.9235C111.78 76.9235 111.334 76.4779 111.334 75.9497V73.3917C111.334 72.8636 111.78 72.418 112.309 72.418C112.838 72.418 113.267 72.8636 113.267 73.3917V75.9497C113.267 76.4779 112.838 76.9235 112.309 76.9235Z" fill="#FDDC3D"/>
<path fill-rule="evenodd" clip-rule="evenodd" d="M109.17 77.8806C108.641 77.8806 108.211 77.4515 108.211 76.9234V74.3488C108.211 73.8207 108.641 73.3916 109.17 73.3916C109.699 73.3916 110.145 73.8207 110.145 74.3488V76.9234C110.145 77.4515 109.699 77.8806 109.17 77.8806Z" fill="#FDDC3D"/>
<path fill-rule="evenodd" clip-rule="evenodd" d="M67.8616 56.3428V63.9344C67.8616 68.3739 78.8165 71.9717 92.3492 71.9717C105.865 71.9717 116.82 68.3739 116.82 63.9344V56.3428H67.8616Z" fill="#F7A821"/>
<path fill-rule="evenodd" clip-rule="evenodd" d="M116.82 56.8555C116.82 61.295 105.865 64.8928 92.3492 64.8928C78.8165 64.8928 67.8616 61.295 67.8616 56.8555C67.8616 52.4161 78.8165 48.8018 92.3492 48.8018C105.865 48.8018 116.82 52.4161 116.82 56.8555Z" fill="#F7A821"/>
<path fill-rule="evenodd" clip-rule="evenodd" d="M92.3492 64.8924C78.8166 64.8924 67.8616 61.2946 67.8616 56.8551C67.8616 55.2543 69.2826 53.7689 71.7115 52.5146V53.6534C71.6124 53.7359 71.5132 53.8019 71.3976 53.8679C70.8027 54.297 70.3236 54.7426 69.9766 55.2377C69.6296 55.7329 69.4313 56.2775 69.4313 56.8551C69.4313 57.4162 69.6296 57.9773 69.9766 58.456C70.5879 59.3306 71.5958 60.0733 72.9508 60.7335C74.9831 61.7237 77.7756 62.5323 81.0968 63.0935C84.418 63.6546 88.2514 63.9847 92.3492 63.9847V64.8924ZM92.3327 63.0275C86.186 63.0275 80.6176 62.2683 76.6189 61.0965C74.6361 60.5024 73.0334 59.7927 71.9594 59.0501C71.4306 58.6705 71.0341 58.2909 70.7697 57.9113C70.5218 57.5483 70.4062 57.2017 70.4062 56.8551C70.4062 56.5085 70.5218 56.1619 70.7697 55.7824C70.9845 55.4688 71.2984 55.1552 71.7115 54.8417V54.8912C71.7115 58.1919 77.7756 61.0305 86.4338 62.2683V62.4003H87.4087C88.9784 62.5984 90.6307 62.7469 92.3492 62.8294V63.0275C92.3327 63.0275 92.3327 63.0275 92.3327 63.0275Z" fill="#FECB31"/>
<path fill-rule="evenodd" clip-rule="evenodd" d="M87.4087 62.4006H86.4338V62.2686C86.7478 62.3181 87.0782 62.3676 87.4087 62.4006Z" fill="#FECB31"/>
<path fill-rule="evenodd" clip-rule="evenodd" d="M114.771 56.8552H114.292C114.292 57.2017 114.176 57.5483 113.912 57.9114C113.466 58.5715 112.574 59.2482 111.301 59.8588C109.401 60.7995 106.675 61.5917 103.42 62.1528C100.165 62.6974 96.3807 63.0275 92.349 63.0275C86.1858 63.0275 80.6175 62.2848 76.6188 61.0966C74.636 60.5025 73.0332 59.7928 71.9592 59.0501C71.4305 58.6706 71.0339 58.291 70.7695 57.9114C70.5217 57.5483 70.406 57.2017 70.406 56.8552C70.406 56.5086 70.5217 56.162 70.7695 55.7824C71.2157 55.1388 72.1079 54.4456 73.3802 53.835C75.2804 52.9108 78.0068 52.1021 81.2619 51.5575C84.517 50.9964 88.3008 50.6828 92.349 50.6828C98.4957 50.6828 104.064 51.4255 108.063 52.6137C110.062 53.2079 111.665 53.901 112.722 54.6602C113.268 55.0233 113.664 55.4193 113.912 55.7824C114.176 56.162 114.292 56.5086 114.292 56.8552H114.771H115.25C115.25 56.2775 115.052 55.7329 114.705 55.2378C114.11 54.3631 113.086 53.6369 111.731 52.9768C109.699 51.9866 106.906 51.1779 103.585 50.6003C100.264 50.0392 96.4303 49.7256 92.349 49.7256C86.1197 49.7256 80.4687 50.4682 76.3544 51.6895C74.289 52.3002 72.6036 53.0263 71.3974 53.868C70.8026 54.2971 70.3234 54.7427 69.9764 55.2378C69.6294 55.7329 69.4312 56.2775 69.4312 56.8552C69.4312 57.4163 69.6294 57.9774 69.9764 58.456C70.5878 59.3307 71.5957 60.0734 72.9506 60.7335C74.983 61.7237 77.7754 62.5324 81.0966 63.0935C84.4178 63.6546 88.2512 63.9847 92.349 63.9847C98.5783 63.9847 104.213 63.2421 108.344 62.0208C110.393 61.3937 112.078 60.6675 113.284 59.8258C113.879 59.4132 114.358 58.9511 114.705 58.456C115.052 57.9774 115.25 57.4163 115.25 56.8552H114.771Z" fill="#F7A821"/>
<path fill-rule="evenodd" clip-rule="evenodd" d="M71.6287 66.5915C71.0834 66.5915 70.6538 66.1624 70.6538 65.6343V63.0763C70.6538 62.5316 71.0834 62.1025 71.6287 62.1025C72.1574 62.1025 72.587 62.5316 72.587 63.0763V65.6343C72.587 66.1624 72.1574 66.5915 71.6287 66.5915Z" fill="#F1891D"/>
<path fill-rule="evenodd" clip-rule="evenodd" d="M97.4219 57.6968C96.8105 57.3667 95.7034 57.0696 94.1172 56.7561L93.1754 56.591V54.363C94.4477 54.4126 95.753 54.5611 97.0584 54.8086L97.9837 53.7029C96.48 53.3893 94.8607 53.2243 93.1754 53.1913V52.1846H91.523V53.2078C89.9864 53.2903 88.7802 53.5049 87.8879 53.8679C86.9956 54.231 86.533 54.6931 86.533 55.2542C86.533 55.7824 86.8304 56.228 87.4748 56.591C88.1192 56.9376 89.1106 57.2512 90.4655 57.4987L91.523 57.6803V59.9743C90.7464 59.9743 89.9037 59.9083 88.9289 59.8092C87.987 59.6772 87.1443 59.5452 86.4338 59.3636V60.6509C87.7557 60.9315 89.4411 61.0965 91.523 61.113V62.4003H93.1754V61.08C94.8442 60.981 96.1165 60.7499 96.9923 60.3704C97.8845 59.9908 98.3141 59.4957 98.3141 58.918C98.3141 58.4394 98.0002 58.0434 97.4219 57.6968ZM93.1754 59.9248V57.9773C93.9685 58.1259 94.5303 58.2579 94.8607 58.4229C95.1912 58.5715 95.373 58.7695 95.373 59.0006C95.373 59.5122 94.6294 59.8092 93.1754 59.9248ZM89.9864 54.6931C90.3333 54.5281 90.8456 54.4291 91.523 54.3796V56.294C90.7464 56.1289 90.2177 55.9804 89.9037 55.8319C89.6228 55.6668 89.4741 55.4688 89.4741 55.2542C89.4741 55.0232 89.6559 54.8417 89.9864 54.6931Z" fill="#F8F8F9"/>
<path fill-rule="evenodd" clip-rule="evenodd" d="M92.3489 71.9722V64.8922C102.23 64.8922 110.756 62.9613 114.622 60.1887C115.432 59.8916 116.159 59.5615 116.82 59.2314V63.935C116.82 63.9515 116.82 63.9845 116.82 64.0175C116.82 64.4466 116.688 64.8757 116.473 65.2883C114.639 68.8366 105.716 71.5927 94.6621 71.9392C93.9021 71.9557 93.1255 71.9722 92.3489 71.9722ZM106.856 64.3476C106.328 64.3476 105.898 64.7767 105.898 65.3213V67.8793C105.898 68.4075 106.328 68.8366 106.856 68.8366C107.385 68.8366 107.831 68.4075 107.831 67.8793V65.3213C107.831 64.7767 107.385 64.3476 106.856 64.3476ZM109.996 63.3904C109.451 63.3904 109.021 63.8195 109.021 64.3476V66.9221C109.021 67.4503 109.451 67.8793 109.996 67.8793C110.525 67.8793 110.954 67.4503 110.954 66.9221V64.3476C110.954 63.8195 110.525 63.3904 109.996 63.3904ZM113.119 62.1031C112.59 62.1031 112.16 62.5322 112.16 63.0768V65.6349C112.16 66.163 112.59 66.5921 113.119 66.5921C113.647 66.5921 114.077 66.163 114.077 65.6349V63.0768C114.077 62.5322 113.647 62.1031 113.119 62.1031Z" fill="#FBBB25"/>
<path fill-rule="evenodd" clip-rule="evenodd" d="M92.3489 64.892V63.9843C98.5782 63.9843 104.213 63.2416 108.343 62.0204C108.724 61.9049 109.104 61.7728 109.451 61.6573C111.384 61.2447 113.119 60.7496 114.622 60.1885C110.756 62.9611 102.23 64.892 92.3489 64.892ZM92.3489 63.0271V62.8291C93.5055 62.8951 94.6952 62.9281 95.9014 62.9281C94.7448 62.9941 93.5551 63.0271 92.3489 63.0271Z" fill="#FFD63D"/>
<path fill-rule="evenodd" clip-rule="evenodd" d="M92.3489 63.9852V63.028C93.5551 63.028 94.7448 62.995 95.9014 62.929C96.0005 62.929 96.0997 62.929 96.1988 62.929C101.09 62.929 105.634 62.4669 109.451 61.6582C109.104 61.7737 108.724 61.9058 108.343 62.0213C104.213 63.2426 98.5782 63.9852 92.3489 63.9852Z" fill="#FBBB25"/>
<path fill-rule="evenodd" clip-rule="evenodd" d="M113.119 66.5915C112.59 66.5915 112.16 66.1624 112.16 65.6343V63.0763C112.16 62.5316 112.59 62.1025 113.119 62.1025C113.648 62.1025 114.077 62.5316 114.077 63.0763V65.6343C114.077 66.1624 113.648 66.5915 113.119 66.5915Z" fill="#FDDC3D"/>
<path fill-rule="evenodd" clip-rule="evenodd" d="M109.996 67.8796C109.451 67.8796 109.021 67.4505 109.021 66.9224V64.3478C109.021 63.8197 109.451 63.3906 109.996 63.3906C110.525 63.3906 110.954 63.8197 110.954 64.3478V66.9224C110.954 67.4505 110.525 67.8796 109.996 67.8796Z" fill="#FDDC3D"/>
<path fill-rule="evenodd" clip-rule="evenodd" d="M106.857 68.8366C106.328 68.8366 105.898 68.4075 105.898 67.8794V65.3214C105.898 64.7768 106.328 64.3477 106.857 64.3477C107.385 64.3477 107.831 64.7768 107.831 65.3214V67.8794C107.831 68.4075 107.385 68.8366 106.857 68.8366Z" fill="#FDDC3D"/>
<path fill-rule="evenodd" clip-rule="evenodd" d="M71.7112 47.3154V54.8906C71.7112 59.3301 82.6827 62.9279 96.1988 62.9279C109.715 62.9279 120.686 59.3301 120.686 54.8906V47.3154H71.7112Z" fill="#F7A821"/>
<path fill-rule="evenodd" clip-rule="evenodd" d="M120.686 47.8107C120.686 52.2502 109.715 55.8645 96.1988 55.8645C82.6827 55.8645 71.7112 52.2502 71.7112 47.8107C71.7112 43.3712 82.6827 39.7734 96.1988 39.7734C109.715 39.7734 120.686 43.3712 120.686 47.8107Z" fill="#F7A821"/>
<path fill-rule="evenodd" clip-rule="evenodd" d="M96.1989 55.8644C88.0529 55.8644 80.8322 54.5441 76.3708 52.5307C78.1058 52.9268 80.006 53.2238 82.0053 53.4549C82.9306 53.6859 83.922 53.884 84.963 54.0655C88.2677 54.6266 92.1176 54.9402 96.1989 54.9402V55.8644ZM96.1823 53.983C94.7944 53.983 93.4229 53.95 92.1011 53.8675C93.5056 53.8345 94.877 53.752 96.1989 53.6364V53.983C96.1989 53.983 96.1989 53.983 96.1823 53.983ZM120.637 47.3155C120.306 45.5827 118.307 43.9818 115.151 42.7275C118.307 43.9818 120.306 45.5827 120.637 47.3155Z" fill="#FECB31"/>
<path fill-rule="evenodd" clip-rule="evenodd" d="M118.621 47.8112H118.142C118.142 48.1578 118.027 48.5044 117.779 48.8839C117.333 49.5276 116.44 50.2207 115.168 50.8314C113.268 51.7556 110.541 52.5642 107.286 53.1089C104.031 53.67 100.231 53.9836 96.1992 53.9836C90.0525 53.9836 84.4676 53.2409 80.4855 52.0526C78.4862 51.4585 76.8834 50.7654 75.8094 50.0062C75.2807 49.6431 74.8841 49.247 74.6362 48.8839C74.3719 48.5044 74.2562 48.1578 74.2562 47.8112C74.2562 47.4646 74.3719 47.1181 74.6362 46.755C75.0659 46.0948 75.9581 45.4182 77.2304 44.8075C79.1306 43.8668 81.8569 43.0747 85.112 42.5135C88.3671 41.9689 92.1675 41.6389 96.1992 41.6389C102.346 41.6389 107.931 42.3815 111.913 43.5698C113.912 44.1639 115.515 44.8736 116.589 45.6162C117.118 45.9958 117.514 46.3754 117.779 46.755C118.027 47.1181 118.142 47.4646 118.142 47.8112H118.621H119.101C119.101 47.2501 118.902 46.689 118.555 46.2104C117.96 45.3357 116.936 44.593 115.581 43.9329C113.565 42.9426 110.756 42.134 107.435 41.5728C104.13 41.0117 100.28 40.6816 96.1992 40.6816C89.9699 40.6816 84.3189 41.4243 80.2046 42.6456C78.1392 43.2727 76.4703 43.9989 75.2641 44.8406C74.6528 45.2531 74.1736 45.6987 73.8266 46.2104C73.4961 46.689 73.2979 47.2501 73.2979 47.8112C73.2979 48.3888 73.4961 48.9335 73.8266 49.4286C74.438 50.2867 75.4624 51.0294 76.8173 51.6896C78.8332 52.6798 81.6421 53.4885 84.9633 54.0661C88.268 54.6272 92.1179 54.9408 96.1992 54.9408C102.429 54.9408 108.08 54.1981 112.194 52.9768C114.259 52.3662 115.928 51.64 117.134 50.7984C117.746 50.3693 118.225 49.9237 118.555 49.4286C118.902 48.9335 119.101 48.3888 119.101 47.8112H118.621Z" fill="#F7A821"/>
<path fill-rule="evenodd" clip-rule="evenodd" d="M75.4789 57.5652C74.9501 57.5652 74.5205 57.1361 74.5205 56.608V54.0334C74.5205 53.5053 74.9501 53.0762 75.4789 53.0762C76.0076 53.0762 76.4372 53.5053 76.4372 54.0334V56.608C76.4372 57.1361 76.0076 57.5652 75.4789 57.5652Z" fill="#F1891D"/>
<path fill-rule="evenodd" clip-rule="evenodd" d="M101.271 48.6694C100.66 48.3394 99.5696 48.0258 97.9833 47.7287L97.025 47.5472V45.3192C98.3138 45.3687 99.6191 45.5337 100.924 45.7813L101.833 44.6591C100.33 44.362 98.7269 44.1805 97.025 44.1639V43.1572H95.3726V44.1805C93.836 44.263 92.6298 44.4775 91.7375 44.8406C90.8452 45.2037 90.3826 45.6658 90.3826 46.2269C90.3826 46.755 90.6965 47.1841 91.3244 47.5472C91.9688 47.9103 92.9602 48.2073 94.3151 48.4714L95.3726 48.6529V50.9469C94.596 50.9469 93.7534 50.8809 92.795 50.7654C91.8366 50.6499 90.994 50.5013 90.2834 50.3363V51.6236C91.6053 51.9042 93.3072 52.0692 95.3726 52.0857V53.373H97.025V52.0362C98.6938 51.9537 99.9661 51.7226 100.842 51.3265C101.734 50.9469 102.164 50.4683 102.164 49.8742C102.164 49.3956 101.866 48.9995 101.271 48.6694ZM97.025 50.8974V48.9335C97.8181 49.0985 98.3799 49.2306 98.7269 49.3956C99.0573 49.5441 99.2226 49.7257 99.2226 49.9732C99.2226 50.4848 98.4956 50.7819 97.025 50.8974ZM93.836 45.6493C94.1995 45.5007 94.7117 45.4017 95.3726 45.3522V47.2501C94.596 47.1016 94.0673 46.9531 93.7534 46.788C93.4725 46.6395 93.3237 46.4414 93.3237 46.2104C93.3237 45.9959 93.5055 45.7978 93.836 45.6493Z" fill="#F8F8F9"/>
<path fill-rule="evenodd" clip-rule="evenodd" d="M116.82 59.231C119.266 57.9768 120.687 56.4914 120.687 54.8906V47.8105V47.3154H120.637H120.687V54.8906C120.687 56.4914 119.266 57.9768 116.82 59.231Z" fill="#FFFEF9"/>
<path fill-rule="evenodd" clip-rule="evenodd" d="M96.199 62.9279V55.8643C109.715 55.8643 120.687 52.25 120.687 47.8105V54.8906C120.687 56.4914 119.266 57.9768 116.82 59.231C112.474 61.459 104.857 62.9279 96.199 62.9279ZM110.723 55.3197C110.178 55.3197 109.748 55.7488 109.748 56.2769V58.8515C109.748 59.3796 110.178 59.8087 110.723 59.8087C111.252 59.8087 111.681 59.3796 111.681 58.8515V56.2769C111.681 55.7488 111.252 55.3197 110.723 55.3197ZM113.846 54.3625C113.317 54.3625 112.888 54.7916 112.888 55.3197V57.8778C112.888 58.4224 113.317 58.8515 113.846 58.8515C114.375 58.8515 114.804 58.4224 114.804 57.8778V55.3197C114.804 54.7916 114.375 54.3625 113.846 54.3625ZM116.985 53.0752C116.44 53.0752 116.01 53.5043 116.01 54.0324V56.607C116.01 57.1351 116.44 57.5642 116.985 57.5642C117.514 57.5642 117.944 57.1351 117.944 56.607V54.0324C117.944 53.5043 117.514 53.0752 116.985 53.0752ZM120.687 47.8105C120.687 47.6455 120.67 47.4805 120.637 47.3154H120.687V47.8105Z" fill="#FBBB25"/>
<path fill-rule="evenodd" clip-rule="evenodd" d="M96.199 55.8644V54.9402C102.428 54.9402 108.079 54.1976 112.194 52.9763C114.259 52.3657 115.928 51.6395 117.134 50.7978C117.745 50.3687 118.225 49.9231 118.555 49.428C118.902 48.9329 119.1 48.3883 119.1 47.8107C119.1 47.2495 118.902 46.6884 118.555 46.2098C117.96 45.3351 116.936 44.5924 115.581 43.9323C115.25 43.7673 114.887 43.6187 114.507 43.4537V42.9091C114.722 42.8431 114.936 42.7936 115.151 42.7275C118.307 43.9818 120.307 45.5827 120.637 47.3155C120.67 47.4806 120.687 47.6456 120.687 47.8107C120.687 52.2501 109.715 55.8644 96.199 55.8644ZM96.199 53.983V53.6364C97.0912 53.5704 97.967 53.4714 98.8097 53.3724H102.18V52.8443C109.55 51.458 114.507 48.8504 114.507 45.8632V44.4934C115.333 44.8565 116.027 45.2361 116.589 45.6157C117.118 45.9953 117.514 46.3748 117.778 46.7544C118.026 47.1175 118.142 47.4641 118.142 47.8107C118.142 48.1572 118.026 48.5038 117.778 48.8834C117.332 49.527 116.44 50.2202 115.168 50.8308C113.268 51.755 110.541 52.5637 107.286 53.1083C104.031 53.6694 100.231 53.983 96.199 53.983Z" fill="#FFD63D"/>
<path fill-rule="evenodd" clip-rule="evenodd" d="M96.199 54.9406V53.9834C100.231 53.9834 104.031 53.6699 107.286 53.1087C110.541 52.5641 113.268 51.7554 115.168 50.8312C116.44 50.2206 117.332 49.5274 117.778 48.8838C118.026 48.5042 118.142 48.1576 118.142 47.8111C118.142 47.4645 118.026 47.1179 117.778 46.7548C117.514 46.3752 117.118 45.9957 116.589 45.6161C116.027 45.2365 115.333 44.8569 114.507 44.4938V43.4541C114.887 43.6191 115.25 43.7677 115.581 43.9327C116.936 44.5929 117.96 45.3355 118.555 46.2102C118.902 46.6888 119.1 47.2499 119.1 47.8111C119.1 48.3887 118.902 48.9333 118.555 49.4284C118.225 49.9235 117.745 50.3691 117.134 50.7982C115.928 51.6399 114.259 52.3661 112.194 52.9767C108.079 54.198 102.428 54.9406 96.199 54.9406Z" fill="#FBBB25"/>
<path fill-rule="evenodd" clip-rule="evenodd" d="M116.985 57.5652C116.44 57.5652 116.01 57.1361 116.01 56.608V54.0334C116.01 53.5053 116.44 53.0762 116.985 53.0762C117.514 53.0762 117.943 53.5053 117.943 54.0334V56.608C117.943 57.1361 117.514 57.5652 116.985 57.5652Z" fill="#FDDC3D"/>
<path fill-rule="evenodd" clip-rule="evenodd" d="M113.846 58.8523C113.317 58.8523 112.888 58.4232 112.888 57.8786V55.3205C112.888 54.7924 113.317 54.3633 113.846 54.3633C114.375 54.3633 114.804 54.7924 114.804 55.3205V57.8786C114.804 58.4232 114.375 58.8523 113.846 58.8523Z" fill="#FDDC3D"/>
<path fill-rule="evenodd" clip-rule="evenodd" d="M110.723 59.8083C110.178 59.8083 109.748 59.3792 109.748 58.8511V56.2765C109.748 55.7484 110.178 55.3193 110.723 55.3193C111.252 55.3193 111.681 55.7484 111.681 56.2765V58.8511C111.681 59.3792 111.252 59.8083 110.723 59.8083Z" fill="#FDDC3D"/>
<path fill-rule="evenodd" clip-rule="evenodd" d="M102.181 53.3719H98.8098C99.983 53.2233 101.107 53.0418 102.181 52.8438V53.3719Z" fill="#FFD63D"/>
<path fill-rule="evenodd" clip-rule="evenodd" d="M65.5481 38.2725V45.8641C65.5481 50.3036 76.5031 53.9014 90.0357 53.9014C103.552 53.9014 114.507 50.3036 114.507 45.8641V38.2725H65.5481Z" fill="#F7A821"/>
<path fill-rule="evenodd" clip-rule="evenodd" d="M114.507 38.7834C114.507 43.2228 103.552 46.8206 90.0357 46.8206C76.5031 46.8206 65.5481 43.2228 65.5481 38.7834C65.5481 34.3439 76.5031 30.7461 90.0357 30.7461C103.552 30.7461 114.507 34.3439 114.507 38.7834Z" fill="#F7A821"/>
<path fill-rule="evenodd" clip-rule="evenodd" d="M90.0357 46.8205C76.5031 46.8205 65.5481 43.2227 65.5481 38.7832C65.5481 36.3407 68.8362 34.1622 74.0246 32.6934V33.6176C71.9757 34.2282 70.2903 34.9544 69.1006 35.796C68.4893 36.2251 68.0101 36.6707 67.6631 37.1658C67.3161 37.661 67.1178 38.2056 67.1178 38.7832C67.1178 39.3443 67.3161 39.9054 67.6631 40.4006C68.2744 41.2587 69.2824 42.0014 70.6373 42.6615C72.6697 43.6518 75.4621 44.4604 78.7833 45.0216C82.1045 45.5827 85.9379 45.9128 90.0357 45.9128V46.8205ZM90.0192 44.9556C83.8725 44.9556 78.3041 44.2129 74.3055 43.0246C72.3227 42.4305 70.7199 41.7208 69.6459 40.9782C69.1171 40.5986 68.7206 40.219 68.4562 39.8559C68.2084 39.4763 68.0927 39.1298 68.0927 38.7832C68.0927 38.4366 68.2084 38.09 68.4562 37.7105C68.9023 37.0668 69.7946 36.3902 71.0669 35.763C71.9096 35.3504 72.901 34.9709 74.0246 34.6243V36.8193C74.0246 39.4929 78.0067 41.8694 84.1203 43.3382V44.3284H89.7383C89.8374 44.3449 89.9366 44.3614 90.0357 44.3779V44.9556H90.0192Z" fill="#FECB31"/>
<path fill-rule="evenodd" clip-rule="evenodd" d="M89.7381 44.3281H84.1201V43.3379C85.8385 43.734 87.7222 44.0805 89.7381 44.3281Z" fill="#FECB31"/>
<path fill-rule="evenodd" clip-rule="evenodd" d="M112.458 38.7829H111.979C111.979 39.1295 111.863 39.476 111.599 39.8556C111.153 40.4993 110.26 41.1759 108.988 41.8031C107.088 42.7273 104.362 43.5194 101.106 44.0806C97.8514 44.6252 94.0675 44.9552 90.0358 44.9552C83.8726 44.9552 78.3042 44.2126 74.3056 43.0243C72.3228 42.4302 70.72 41.7205 69.646 40.9779C69.1172 40.5983 68.7207 40.2187 68.4563 39.8556C68.2085 39.476 68.0928 39.1295 68.0928 38.7829C68.0928 38.4363 68.2085 38.0897 68.4563 37.7102C68.9024 37.0665 69.7947 36.3899 71.067 35.7627C72.9672 34.8385 75.6935 34.0463 78.9486 33.4852C82.2037 32.9241 85.9876 32.6105 90.0358 32.6105C96.1825 32.6105 101.751 33.3532 105.75 34.5415C107.749 35.1356 109.352 35.8287 110.409 36.5879C110.954 36.9675 111.351 37.3471 111.599 37.7102C111.863 38.0897 111.979 38.4363 111.979 38.7829H112.458H112.937C112.937 38.2053 112.739 37.6606 112.392 37.1655C111.797 36.3073 110.773 35.5647 109.418 34.9045C107.385 33.9143 104.593 33.1056 101.272 32.5445C97.9505 31.9669 94.1171 31.6533 90.0358 31.6533C83.8065 31.6533 78.1555 32.396 74.0412 33.6173C71.9758 34.2279 70.2904 34.954 69.1007 35.7957C68.4894 36.2248 68.0102 36.6704 67.6632 37.1655C67.3162 37.6606 67.1179 38.2053 67.1179 38.7829C67.1179 39.344 67.3162 39.9051 67.6632 40.4002C68.2746 41.2584 69.2825 42.0011 70.6374 42.6612C72.6698 43.6515 75.4622 44.4601 78.7834 45.0213C82.1046 45.5824 85.938 45.9125 90.0358 45.9125C96.2651 45.9125 101.9 45.1698 106.03 43.9485C108.079 43.3379 109.765 42.6117 110.971 41.77C111.566 41.341 112.045 40.8954 112.392 40.4002C112.739 39.9051 112.937 39.344 112.937 38.7829H112.458Z" fill="#F7A821"/>
<path fill-rule="evenodd" clip-rule="evenodd" d="M69.3157 48.5378C68.7704 48.5378 68.3408 48.0922 68.3408 47.5641V45.006C68.3408 44.4779 68.7704 44.0488 69.3157 44.0488C69.8444 44.0488 70.274 44.4779 70.274 45.006V47.5641C70.274 48.0922 69.8444 48.5378 69.3157 48.5378Z" fill="#F1891D"/>
<path fill-rule="evenodd" clip-rule="evenodd" d="M95.1081 39.6255C94.4968 39.3119 93.3897 38.9984 91.8035 38.7013L90.8616 38.5198V36.2918C92.1339 36.3413 93.4393 36.4898 94.7446 36.7374L95.6699 35.6316C94.1663 35.3346 92.547 35.153 90.8616 35.1365V34.1133H89.2093V35.1365C87.6726 35.2355 86.4664 35.4501 85.5742 35.8132C84.6819 36.1762 84.2193 36.6383 84.2193 37.1995C84.2193 37.7111 84.5167 38.1567 85.1611 38.5198C85.8055 38.8663 86.7969 39.1799 88.1518 39.4275L89.2093 39.6255V41.903C88.4327 41.903 87.59 41.8535 86.6151 41.738C85.6733 41.6059 84.8306 41.4739 84.1201 41.2924V42.5796C85.442 42.8767 87.1274 43.0417 89.2093 43.0417V44.329H90.8616V43.0087C92.5305 42.9262 93.8028 42.6787 94.6785 42.2991C95.5708 41.9195 96.0004 41.4409 96.0004 40.8468C96.0004 40.3682 95.6865 39.9721 95.1081 39.6255ZM90.8616 41.8535V39.9061C91.6548 40.0546 92.2166 40.2031 92.547 40.3517C92.8775 40.5002 93.0592 40.6982 93.0592 40.9293C93.0592 41.4409 92.3157 41.7545 90.8616 41.8535ZM87.6726 36.6218C88.0196 36.4733 88.5319 36.3743 89.2093 36.3248V38.2227C88.4327 38.0742 87.904 37.9256 87.59 37.7606C87.3091 37.6121 87.1604 37.414 87.1604 37.183C87.1604 36.9519 87.3422 36.7704 87.6726 36.6218Z" fill="#F8F8F9"/>
<path fill-rule="evenodd" clip-rule="evenodd" d="M90.0356 53.9006V46.8205C97.1407 46.8205 103.535 45.8303 108.013 44.246C110.392 43.9159 112.59 43.4538 114.507 42.9092V43.4538V44.4935V45.8633C114.507 48.8505 109.55 51.4581 102.18 52.8444C101.106 53.0424 99.9827 53.2239 98.8095 53.3725C97.9669 53.4715 97.0911 53.5705 96.1989 53.6365C94.2326 53.8181 92.1672 53.9006 90.0356 53.9006ZM104.543 46.2924C104.014 46.2924 103.585 46.7215 103.585 47.2496V49.8077C103.585 50.3358 104.014 50.7814 104.543 50.7814C105.072 50.7814 105.518 50.3523 105.518 49.8077V47.2496C105.518 46.7215 105.072 46.2924 104.543 46.2924ZM107.683 45.3187C107.154 45.3187 106.708 45.7478 106.708 46.2924V48.8505C106.708 49.3786 107.154 49.8077 107.683 49.8077C108.211 49.8077 108.641 49.3786 108.641 48.8505V46.2924C108.641 45.7478 108.211 45.3187 107.683 45.3187ZM110.805 44.0479C110.277 44.0479 109.847 44.477 109.847 45.0051V47.5632C109.847 48.0913 110.277 48.5369 110.805 48.5369C111.334 48.5369 111.764 48.0913 111.764 47.5632V45.0051C111.764 44.477 111.334 44.0479 110.805 44.0479Z" fill="#FBBB25"/>
<path fill-rule="evenodd" clip-rule="evenodd" d="M90.0356 46.8197V45.912C94.7448 45.912 99.1235 45.4829 102.759 44.7402C104.593 44.6412 106.344 44.4762 108.013 44.2451C103.535 45.8295 97.1407 46.8197 90.0356 46.8197ZM90.0356 44.9548V44.3771C91.6219 44.5587 93.2742 44.7072 94.9926 44.7897C93.4064 44.8888 91.7375 44.9548 90.0356 44.9548Z" fill="#FFD63D"/>
<path fill-rule="evenodd" clip-rule="evenodd" d="M90.0356 45.9139V44.9567C91.7375 44.9567 93.4064 44.8907 94.9926 44.7917C96.1493 44.8412 97.3224 44.8742 98.5121 44.8742C99.9662 44.8742 101.387 44.8247 102.759 44.7422C99.1235 45.4848 94.7448 45.9139 90.0356 45.9139Z" fill="#FBBB25"/>
<path fill-rule="evenodd" clip-rule="evenodd" d="M110.806 48.5378C110.277 48.5378 109.847 48.0922 109.847 47.5641V45.006C109.847 44.4779 110.277 44.0488 110.806 44.0488C111.334 44.0488 111.764 44.4779 111.764 45.006V47.5641C111.764 48.0922 111.334 48.5378 110.806 48.5378Z" fill="#FDDC3D"/>
<path fill-rule="evenodd" clip-rule="evenodd" d="M107.683 49.8073C107.154 49.8073 106.708 49.3782 106.708 48.8501V46.2921C106.708 45.7475 107.154 45.3184 107.683 45.3184C108.212 45.3184 108.641 45.7475 108.641 46.2921V48.8501C108.641 49.3782 108.212 49.8073 107.683 49.8073Z" fill="#FDDC3D"/>
<path fill-rule="evenodd" clip-rule="evenodd" d="M104.543 50.781C104.014 50.781 103.585 50.3519 103.585 49.8073V47.2492C103.585 46.7211 104.014 46.292 104.543 46.292C105.072 46.292 105.518 46.7211 105.518 47.2492V49.8073C105.518 50.3354 105.072 50.781 104.543 50.781Z" fill="#FDDC3D"/>
<path fill-rule="evenodd" clip-rule="evenodd" d="M74.0247 29.2441V36.8193C74.0247 41.2753 84.9962 44.8731 98.5123 44.8731C112.028 44.8731 123 41.2753 123 36.8193V29.2441H74.0247Z" fill="#F7A821"/>
<path fill-rule="evenodd" clip-rule="evenodd" d="M123 29.7404C123 34.1964 112.028 37.7942 98.5123 37.7942C84.9962 37.7942 74.0247 34.1964 74.0247 29.7404C74.0247 25.3009 84.9962 21.7031 98.5123 21.7031C112.028 21.7031 123 25.3009 123 29.7404Z" fill="#F7A821"/>
<path fill-rule="evenodd" clip-rule="evenodd" d="M98.5123 37.7942C84.9962 37.7942 74.0247 34.1964 74.0247 29.7404C74.0247 25.3009 84.9962 21.7031 98.5123 21.7031V22.6108C92.283 22.6108 86.632 23.37 82.5177 24.5913C80.4522 25.2019 78.7834 25.9281 77.5772 26.7697C76.9658 27.1823 76.4866 27.6444 76.1562 28.1395C75.8092 28.6346 75.6109 29.1793 75.6109 29.7404C75.6109 30.318 75.8092 30.8626 76.1562 31.3577C76.751 32.2324 77.7755 32.9586 79.1304 33.6352C81.1462 34.6255 83.9552 35.4176 87.2764 35.9953C90.5811 36.5564 94.431 36.8865 98.5123 36.8865V37.7942ZM98.4957 35.9127C92.3491 35.9127 86.7807 35.1701 82.7986 33.9818C80.7992 33.4042 79.1965 32.6945 78.1224 31.9354C77.5937 31.5723 77.1971 31.1927 76.9328 30.8131C76.6849 30.45 76.5693 30.1035 76.5693 29.7404C76.5693 29.3938 76.6849 29.0472 76.9328 28.6842C77.3789 28.024 78.2712 27.3474 79.5435 26.7367C81.4436 25.796 84.17 25.0039 87.4251 24.4592C90.6802 23.8981 94.4806 23.5845 98.5123 23.5845V25.0864H92.5969V35.3021H98.5123V35.9127C98.5123 35.9127 98.5123 35.9127 98.4957 35.9127ZM123 29.7734V29.7239V29.7404C123 29.7569 123 29.7569 123 29.7734ZM122.95 29.2453C122.174 25.2184 112.392 21.9837 100.132 21.7196C112.392 21.9837 122.19 25.2184 122.95 29.2453ZM100.132 21.7196C100.132 21.7196 100.115 21.7196 100.099 21.7196C100.115 21.7196 100.132 21.7196 100.132 21.7196ZM100.099 21.7196C100.082 21.7196 100.082 21.7196 100.065 21.7196C100.082 21.7196 100.082 21.7196 100.099 21.7196ZM100.065 21.7196C100.049 21.7196 100.032 21.7196 100.032 21.7196C100.032 21.7196 100.049 21.7196 100.065 21.7196ZM100.032 21.7196C100.016 21.7196 99.9994 21.7196 99.9994 21.7196C99.9994 21.7196 100.016 21.7196 100.032 21.7196ZM99.9828 21.7196C99.9663 21.7196 99.9663 21.7196 99.9498 21.7196C99.9663 21.7196 99.9663 21.7196 99.9828 21.7196ZM99.9498 21.7196C99.9333 21.7196 99.9333 21.7196 99.9168 21.7196C99.9333 21.7196 99.9333 21.7196 99.9498 21.7196ZM99.9002 21.7196H99.8837H99.9002ZM99.8672 21.7196C99.8672 21.7196 99.8507 21.7196 99.8341 21.7196C99.8507 21.7196 99.8672 21.7196 99.8672 21.7196ZM99.8341 21.7196C99.8176 21.7196 99.8176 21.7196 99.8011 21.7196C99.8176 21.7196 99.8176 21.7196 99.8341 21.7196ZM99.7846 21.7196H99.768H99.7846ZM99.7515 21.7196C99.735 21.7196 99.7185 21.7196 99.6854 21.7196C99.7185 21.7196 99.735 21.7196 99.7515 21.7196ZM99.6854 21.7196C99.6524 21.7196 99.6359 21.7196 99.6193 21.7196C99.6359 21.7196 99.6524 21.7196 99.6854 21.7196ZM99.6028 21.7196C99.5698 21.7196 99.5202 21.7196 99.4706 21.7196C99.5202 21.7196 99.5698 21.7196 99.6028 21.7196ZM99.4541 21.7196C99.4376 21.7196 99.4211 21.7196 99.388 21.7196C99.4211 21.7196 99.4376 21.7196 99.4541 21.7196ZM99.388 21.7196C99.3715 21.7196 99.3715 21.7196 99.355 21.7196C99.3715 21.7196 99.3715 21.7196 99.388 21.7196ZM99.3384 21.7196C99.3384 21.7031 99.3384 21.7031 99.3219 21.7031C99.3384 21.7031 99.3384 21.7031 99.3384 21.7196ZM99.3054 21.7031H99.2889H99.3054ZM99.2723 21.7031C99.2558 21.7031 99.2558 21.7031 99.2393 21.7031C99.2558 21.7031 99.2558 21.7031 99.2723 21.7031ZM99.2228 21.7031H99.2062H99.2228ZM99.1897 21.7031H99.1732H99.1897ZM99.1567 21.7031C99.1402 21.7031 99.1402 21.7031 99.1402 21.7031C99.1402 21.7031 99.1402 21.7031 99.1567 21.7031ZM99.1071 21.7031C99.1071 21.7031 99.1071 21.7031 99.0906 21.7031C99.1071 21.7031 99.1071 21.7031 99.1071 21.7031ZM99.0741 21.7031H99.0575H99.0741ZM99.041 21.7031C99.0245 21.7031 99.0245 21.7031 99.0245 21.7031C99.0245 21.7031 99.0245 21.7031 99.041 21.7031ZM98.9914 21.7031C98.9914 21.7031 98.9914 21.7031 98.9749 21.7031C98.9914 21.7031 98.9914 21.7031 98.9914 21.7031ZM98.9584 21.7031H98.9419H98.9584ZM98.9254 21.7031C98.9088 21.7031 98.9088 21.7031 98.8923 21.7031C98.9088 21.7031 98.9088 21.7031 98.9254 21.7031ZM98.8758 21.7031C98.8758 21.7031 98.8758 21.7031 98.8593 21.7031C98.8758 21.7031 98.8758 21.7031 98.8758 21.7031ZM98.8427 21.7031H98.8262H98.8427ZM98.8097 21.7031C98.7932 21.7031 98.7932 21.7031 98.7766 21.7031C98.7932 21.7031 98.7932 21.7031 98.8097 21.7031ZM98.7601 21.7031H98.7436H98.7601ZM98.7271 21.7031H98.7105H98.7271ZM98.6775 21.7031C98.6775 21.7031 98.6775 21.7031 98.661 21.7031C98.6775 21.7031 98.6775 21.7031 98.6775 21.7031ZM98.6445 21.7031H98.6279H98.6445Z" fill="#FECB31"/>
<path fill-rule="evenodd" clip-rule="evenodd" d="M98.5123 35.3017H92.5969V25.0859H98.5123V35.3017Z" fill="#FECB31"/>
<path fill-rule="evenodd" clip-rule="evenodd" d="M120.934 29.7399H120.455C120.455 30.103 120.34 30.4496 120.075 30.8127C119.646 31.4563 118.753 32.1494 117.481 32.7601C115.581 33.7008 112.854 34.493 109.599 35.0376C106.344 35.5987 102.544 35.9123 98.5122 35.9123C92.3655 35.9123 86.7971 35.1696 82.7985 33.9813C80.7992 33.4037 79.1964 32.6941 78.1224 31.9349C77.5936 31.5718 77.1971 31.1922 76.9327 30.8127C76.6849 30.4496 76.5692 30.103 76.5692 29.7399C76.5692 29.3933 76.6849 29.0468 76.9327 28.6837C77.3788 28.0235 78.2711 27.3469 79.5434 26.7363C81.4436 25.7956 84.1699 25.0034 87.425 24.4588C90.6801 23.8976 94.4805 23.5841 98.5122 23.5841C104.659 23.5841 110.244 24.3267 114.226 25.4985C116.225 26.0926 117.828 26.8023 118.902 27.5449C119.431 27.9245 119.827 28.3041 120.075 28.6837C120.34 29.0468 120.455 29.3933 120.455 29.7399H120.934H121.414C121.414 29.1788 121.215 28.6342 120.885 28.1391C120.273 27.2644 119.249 26.5382 117.894 25.8616C115.878 24.8713 113.069 24.0792 109.748 23.5015C106.443 22.9404 102.593 22.6104 98.5122 22.6104C92.2829 22.6104 86.6319 23.3695 82.5176 24.5908C80.4522 25.2014 78.7833 25.9276 77.5771 26.7693C76.9658 27.1819 76.4866 27.644 76.1561 28.1391C75.8091 28.6342 75.6108 29.1788 75.6108 29.7399C75.6108 30.3175 75.8091 30.8622 76.1561 31.3573C76.751 32.232 77.7754 32.9581 79.1303 33.6348C81.1462 34.625 83.9551 35.4172 87.2763 35.9948C90.581 36.5559 94.4309 36.886 98.5122 36.886C104.742 36.8695 110.392 36.1268 114.507 34.9056C116.572 34.2949 118.241 33.5688 119.447 32.7271C120.059 32.3145 120.538 31.8524 120.885 31.3573C121.215 30.8622 121.414 30.3175 121.414 29.7399H120.934Z" fill="#F7A821"/>
<path fill-rule="evenodd" clip-rule="evenodd" d="M77.7919 39.4929C77.2631 39.4929 76.8335 39.0638 76.8335 38.5357V35.9611C76.8335 35.433 77.2631 35.0039 77.7919 35.0039C78.3206 35.0039 78.7502 35.433 78.7502 35.9611V38.5357C78.7502 39.0638 78.3206 39.4929 77.7919 39.4929Z" fill="#F1891D"/>
<path fill-rule="evenodd" clip-rule="evenodd" d="M103.585 30.5982C102.974 30.2681 101.883 29.9545 100.297 29.6574L99.3384 29.4759V27.2644C100.627 27.3139 101.933 27.4625 103.238 27.71L104.147 26.5878C102.643 26.2907 101.024 26.1257 99.3384 26.0927V25.0859H97.6861V26.1092C96.1494 26.1917 94.9432 26.4062 94.051 26.7693C93.1587 27.1324 92.6961 27.5945 92.6961 28.1556C92.6961 28.6837 93.01 29.1293 93.6379 29.4759C94.2823 29.839 95.2737 30.1526 96.6286 30.4001L97.6861 30.5816V32.8757C96.9095 32.8757 96.0668 32.8096 95.1085 32.6941C94.1501 32.5786 93.3074 32.4301 92.5969 32.265V33.5523C93.9188 33.8329 95.6207 33.9979 97.6861 34.0144V35.3017H99.3384V33.9814C101.007 33.8824 102.28 33.6513 103.155 33.2552C104.048 32.8922 104.477 32.397 104.477 31.8029C104.477 31.3408 104.18 30.9282 103.585 30.5982ZM99.3384 32.8261V30.8787C100.132 31.0272 100.693 31.1593 101.024 31.3243C101.371 31.4728 101.536 31.6544 101.536 31.9019C101.536 32.4136 100.809 32.7106 99.3384 32.8261ZM96.1494 27.578C96.513 27.4295 97.0252 27.3304 97.6861 27.2809V29.1788C96.9095 29.0303 96.3808 28.8818 96.0668 28.7167C95.7859 28.5682 95.6372 28.3702 95.6372 28.1391C95.6372 27.9246 95.819 27.7265 96.1494 27.578Z" fill="#F8F8F9"/>
<path fill-rule="evenodd" clip-rule="evenodd" d="M99.9996 21.7196C99.983 21.7196 99.983 21.7196 99.983 21.7196C99.983 21.7196 99.983 21.7196 99.9996 21.7196ZM99.9169 21.7196C99.9169 21.7196 99.9169 21.7196 99.9004 21.7196C99.9169 21.7196 99.9169 21.7196 99.9169 21.7196ZM99.8839 21.7196C99.8674 21.7196 99.8674 21.7196 99.8674 21.7196C99.8674 21.7196 99.8674 21.7196 99.8839 21.7196ZM99.8013 21.7196C99.8013 21.7196 99.8013 21.7196 99.7848 21.7196C99.8013 21.7196 99.8013 21.7196 99.8013 21.7196ZM99.7682 21.7196H99.7517H99.7682ZM99.6195 21.7196H99.603H99.6195ZM99.4708 21.7196C99.4708 21.7196 99.4708 21.7196 99.4543 21.7196C99.4708 21.7196 99.4708 21.7196 99.4708 21.7196ZM99.3552 21.7196C99.3552 21.7196 99.3552 21.7196 99.3386 21.7196C99.3552 21.7196 99.3552 21.7196 99.3552 21.7196ZM99.3221 21.7031H99.3056H99.3221ZM99.2891 21.7031C99.2725 21.7031 99.2725 21.7031 99.2725 21.7031C99.2725 21.7031 99.2725 21.7031 99.2891 21.7031ZM99.2395 21.7031C99.2395 21.7031 99.2395 21.7031 99.223 21.7031C99.2395 21.7031 99.2395 21.7031 99.2395 21.7031ZM99.2064 21.7031H99.1899H99.2064ZM99.1734 21.7031C99.1569 21.7031 99.1569 21.7031 99.1569 21.7031C99.1569 21.7031 99.1569 21.7031 99.1734 21.7031ZM99.1403 21.7031C99.1238 21.7031 99.1238 21.7031 99.1073 21.7031C99.1238 21.7031 99.1238 21.7031 99.1403 21.7031ZM99.0908 21.7031H99.0743H99.0908ZM99.0577 21.7031H99.0412C99.0412 21.7031 99.0412 21.7031 99.0577 21.7031ZM99.0247 21.7031C99.0082 21.7031 99.0082 21.7031 98.9916 21.7031C99.0082 21.7031 99.0082 21.7031 99.0247 21.7031ZM98.9751 21.7031H98.9586H98.9751ZM98.9421 21.7031C98.9255 21.7031 98.9255 21.7031 98.9255 21.7031C98.9255 21.7031 98.9255 21.7031 98.9421 21.7031ZM98.8925 21.7031C98.8925 21.7031 98.8925 21.7031 98.876 21.7031C98.8925 21.7031 98.8925 21.7031 98.8925 21.7031Z" fill="#BCD470"/>
<path fill-rule="evenodd" clip-rule="evenodd" d="M98.5125 44.8731V37.793C112.012 37.793 122.95 34.1952 123 29.7723V36.8193C123 38.4697 121.496 39.988 118.935 41.2588C118.39 41.5228 117.812 41.7869 117.184 42.0344C112.689 43.7673 105.998 44.8731 98.5125 44.8731ZM113.036 37.2484C112.491 37.2484 112.062 37.6775 112.062 38.2056V40.7802C112.062 41.3083 112.491 41.7374 113.036 41.7374C113.565 41.7374 113.995 41.3083 113.995 40.7802V38.2056C113.995 37.6775 113.565 37.2484 113.036 37.2484ZM116.159 36.2912C115.631 36.2912 115.201 36.7203 115.201 37.2484V39.823C115.201 40.3511 115.631 40.7802 116.159 40.7802C116.688 40.7802 117.118 40.3511 117.118 39.823V37.2484C117.118 36.7203 116.688 36.2912 116.159 36.2912ZM119.282 35.0039C118.754 35.0039 118.324 35.433 118.324 35.9611V38.5357C118.324 39.0638 118.754 39.4929 119.282 39.4929C119.828 39.4929 120.257 39.0638 120.257 38.5357V35.9611C120.257 35.433 119.828 35.0039 119.282 35.0039ZM123 29.7227C123 29.5577 122.984 29.3927 122.95 29.2441H123V29.7227Z" fill="#FBBB25"/>
<path fill-rule="evenodd" clip-rule="evenodd" d="M98.5125 37.7942V36.8865C104.742 36.87 110.393 36.1273 114.507 34.906C116.572 34.2954 118.241 33.5692 119.448 32.7275C120.059 32.315 120.538 31.8529 120.885 31.3577C121.216 30.8626 121.414 30.318 121.414 29.7404C121.414 29.1793 121.216 28.6346 120.885 28.1395C120.274 27.2648 119.249 26.5387 117.894 25.862C115.878 24.8718 113.07 24.0796 109.748 23.502C106.444 22.9409 102.594 22.6108 98.5125 22.6108V21.7031C98.5455 21.7031 98.562 21.7031 98.5951 21.7031C98.6116 21.7031 98.6116 21.7031 98.6281 21.7031H98.6446H98.6612C98.6777 21.7031 98.6777 21.7031 98.6777 21.7031C98.6942 21.7031 98.6942 21.7031 98.7107 21.7031H98.7273H98.7438H98.7603C98.7768 21.7031 98.7768 21.7031 98.7768 21.7031C98.7933 21.7031 98.7933 21.7031 98.8099 21.7031C98.8099 21.7031 98.8099 21.7031 98.8264 21.7031H98.8429H98.8594C98.876 21.7031 98.876 21.7031 98.876 21.7031C98.8925 21.7031 98.8925 21.7031 98.8925 21.7031C98.909 21.7031 98.909 21.7031 98.9255 21.7031C98.9255 21.7031 98.9255 21.7031 98.9421 21.7031H98.9586H98.9751C98.9916 21.7031 98.9916 21.7031 98.9916 21.7031C99.0082 21.7031 99.0082 21.7031 99.0247 21.7031C99.0247 21.7031 99.0247 21.7031 99.0412 21.7031C99.0412 21.7031 99.0412 21.7031 99.0577 21.7031H99.0742H99.0908C99.1073 21.7031 99.1073 21.7031 99.1073 21.7031C99.1238 21.7031 99.1238 21.7031 99.1403 21.7031C99.1403 21.7031 99.1403 21.7031 99.1569 21.7031C99.1569 21.7031 99.1569 21.7031 99.1734 21.7031H99.1899H99.2064H99.223C99.2395 21.7031 99.2395 21.7031 99.2395 21.7031C99.256 21.7031 99.256 21.7031 99.2725 21.7031C99.2725 21.7031 99.2725 21.7031 99.289 21.7031H99.3056H99.3221C99.3386 21.7031 99.3386 21.7031 99.3386 21.7196C99.3551 21.7196 99.3551 21.7196 99.3551 21.7196C99.3717 21.7196 99.3717 21.7196 99.3882 21.7196C99.4212 21.7196 99.4378 21.7196 99.4543 21.7196C99.4708 21.7196 99.4708 21.7196 99.4708 21.7196C99.5204 21.7196 99.5699 21.7196 99.603 21.7196H99.6195C99.636 21.7196 99.6526 21.7196 99.6856 21.7196C99.7187 21.7196 99.7352 21.7196 99.7517 21.7196H99.7682H99.7847C99.8013 21.7196 99.8013 21.7196 99.8013 21.7196C99.8178 21.7196 99.8178 21.7196 99.8343 21.7196C99.8508 21.7196 99.8674 21.7196 99.8674 21.7196C99.8674 21.7196 99.8674 21.7196 99.8839 21.7196H99.9004C99.9169 21.7196 99.9169 21.7196 99.9169 21.7196C99.9335 21.7196 99.9335 21.7196 99.95 21.7196C99.9665 21.7196 99.9665 21.7196 99.983 21.7196C99.983 21.7196 99.983 21.7196 99.9996 21.7196C99.9996 21.7196 100.016 21.7196 100.033 21.7196C100.033 21.7196 100.049 21.7196 100.066 21.7196C100.082 21.7196 100.082 21.7196 100.099 21.7196C100.115 21.7196 100.132 21.7196 100.132 21.7196C112.392 21.9837 122.174 25.2184 122.934 29.2453H122.95C122.984 29.3938 123 29.5589 123 29.7239V29.7734C122.95 34.1964 112.012 37.7942 98.5125 37.7942ZM98.5125 35.9127V35.3021H104.494V25.0864H98.5125V23.5845C98.5125 23.5845 98.5125 23.5845 98.529 23.5845C104.676 23.5845 110.244 24.3272 114.226 25.499C116.225 26.0931 117.828 26.8027 118.902 27.5454C119.431 27.925 119.828 28.3046 120.075 28.6842C120.34 29.0472 120.455 29.3938 120.455 29.7404C120.455 30.1035 120.34 30.45 120.075 30.8131C119.646 31.4568 118.754 32.1499 117.481 32.7606C115.581 33.7013 112.855 34.4934 109.6 35.0381C106.345 35.5992 102.544 35.9127 98.5125 35.9127Z" fill="#FFD63D"/>
<path fill-rule="evenodd" clip-rule="evenodd" d="M98.5125 36.886V35.9123C102.544 35.9123 106.345 35.5987 109.6 35.0376C112.855 34.493 115.581 33.7008 117.481 32.7601C118.754 32.1494 119.646 31.4563 120.075 30.8127C120.34 30.4496 120.455 30.103 120.455 29.7399C120.455 29.3933 120.34 29.0468 120.075 28.6837C119.828 28.3041 119.431 27.9245 118.902 27.5449C117.828 26.8023 116.225 26.0926 114.226 25.4985C110.244 24.3267 104.676 23.5841 98.529 23.5841C98.5125 23.5841 98.5125 23.5841 98.5125 23.5841V22.6104C102.594 22.6104 106.444 22.9404 109.748 23.5015C113.07 24.0792 115.878 24.8713 117.894 25.8616C119.249 26.5217 120.274 27.2644 120.885 28.1391C121.216 28.6342 121.414 29.1788 121.414 29.7399C121.414 30.3175 121.216 30.8622 120.885 31.3573C120.538 31.8524 120.059 32.3145 119.448 32.7271C118.241 33.5688 116.572 34.2949 114.507 34.9056C110.393 36.1268 104.742 36.886 98.5125 36.886Z" fill="#FBBB25"/>
<path fill-rule="evenodd" clip-rule="evenodd" d="M119.282 39.4929C118.754 39.4929 118.324 39.0638 118.324 38.5357V35.9611C118.324 35.433 118.754 35.0039 119.282 35.0039C119.828 35.0039 120.257 35.433 120.257 35.9611V38.5357C120.257 39.0638 119.828 39.4929 119.282 39.4929Z" fill="#FDDC3D"/>
<path fill-rule="evenodd" clip-rule="evenodd" d="M116.159 40.781C115.63 40.781 115.201 40.3519 115.201 39.8238V37.2492C115.201 36.7211 115.63 36.292 116.159 36.292C116.688 36.292 117.117 36.7211 117.117 37.2492V39.8238C117.117 40.3519 116.688 40.781 116.159 40.781Z" fill="#FDDC3D"/>
<path fill-rule="evenodd" clip-rule="evenodd" d="M113.036 41.738C112.491 41.738 112.062 41.3089 112.062 40.7808V38.2062C112.062 37.6781 112.491 37.249 113.036 37.249C113.565 37.249 113.995 37.6781 113.995 38.2062V40.7808C113.995 41.3089 113.565 41.738 113.036 41.738Z" fill="#FDDC3D"/>
<path fill-rule="evenodd" clip-rule="evenodd" d="M98.5125 25.0859H104.494V35.3017H98.5125V25.0859Z" fill="#FFD63D"/>
<path fill-rule="evenodd" clip-rule="evenodd" d="M103.585 30.5982C102.974 30.2681 101.883 29.9545 100.297 29.6574L99.3386 29.4759V27.2644C100.627 27.3139 101.933 27.4625 103.238 27.71L104.147 26.5878C102.643 26.2907 101.024 26.1257 99.3386 26.0927V25.0859H98.5125V35.3017H99.3386V33.9814C101.007 33.8824 102.28 33.6513 103.156 33.2552C104.048 32.8922 104.477 32.397 104.477 31.8029C104.477 31.3408 104.18 30.9282 103.585 30.5982ZM99.3386 32.8261V30.8787C100.132 31.0272 100.694 31.1593 101.024 31.3243C101.371 31.4728 101.536 31.6544 101.536 31.9019C101.536 32.4136 100.809 32.7106 99.3386 32.8261Z" fill="#FAFBFB"/>
</svg>
