<svg width="117" height="108" viewBox="0 0 117 108" fill="none" xmlns="http://www.w3.org/2000/svg">
<path fill-rule="evenodd" clip-rule="evenodd" d="M54.0104 106.453H8.98967C4.90017 106.453 1.53662 103.118 1.53662 99.0218V8.96537C1.53662 4.88124 4.90017 1.53418 8.98967 1.53418H54.0104C58.0999 1.53418 61.4514 4.88124 61.4514 8.96537V99.0218C61.4514 103.118 58.0999 106.453 54.0104 106.453Z" fill="#58627A"/>
<path fill-rule="evenodd" clip-rule="evenodd" d="M8.98963 3.06914C5.73497 3.06914 3.08527 5.71537 3.08527 8.96576V99.0221C3.08527 102.273 5.73497 104.919 8.98963 104.919H54.0104C57.265 104.919 59.9147 102.273 59.9147 99.0221V8.96576C59.9147 5.71537 57.265 3.06914 54.0104 3.06914H8.98963ZM54.0104 108H8.98963C4.0411 108 0 103.976 0 99.0221V8.96576C0 4.02372 4.0411 0 8.98963 0H54.0104C58.9589 0 62.9879 4.02372 62.9879 8.96576L63 99.0221C63 103.976 58.9589 108 54.0104 108Z" fill="#435564"/>
<path fill-rule="evenodd" clip-rule="evenodd" d="M52.7763 95.3006H10.2238C7.7798 95.3006 5.78345 93.3068 5.78345 90.866V13.3883C5.78345 10.9596 7.7798 8.96582 10.2238 8.96582H52.7763C55.2204 8.96582 57.2167 10.9596 57.2167 13.3883V90.866C57.2167 93.3068 55.2204 95.3006 52.7763 95.3006Z" fill="#A9DB63"/>
<path fill-rule="evenodd" clip-rule="evenodd" d="M21.5365 29.4354H13.9262C11.9419 29.4354 10.3328 27.8162 10.3328 25.8467V18.2342C10.3328 16.2647 11.9419 14.6455 13.9262 14.6455H21.5365C23.5208 14.6455 25.13 16.2647 25.13 18.2342V25.8467C25.13 27.8162 23.5208 29.4354 21.5365 29.4354Z" fill="#E7F9CA"/>
<path fill-rule="evenodd" clip-rule="evenodd" d="M21.5365 53.2625H13.9262C11.9419 53.2625 10.3328 51.6434 10.3328 49.6738V42.0614C10.3328 40.0797 11.9419 38.4727 13.9262 38.4727H21.5365C23.5208 38.4727 25.13 40.0797 25.13 42.0614V49.6738C25.13 51.6434 23.5208 53.2625 21.5365 53.2625Z" fill="#E7F9CA"/>
<path fill-rule="evenodd" clip-rule="evenodd" d="M21.5365 77.0907H13.9262C11.9419 77.0907 10.3328 75.4715 10.3328 73.4899V65.8895C10.3328 63.9079 11.9419 62.3008 13.9262 62.3008H21.5365C23.5208 62.3008 25.13 63.9079 25.13 65.8895V73.4899C25.13 75.4715 23.5208 77.0907 21.5365 77.0907Z" fill="#E7F9CA"/>
<path fill-rule="evenodd" clip-rule="evenodd" d="M53.5023 17.3153H28.5781V15.249H53.5023V17.3153Z" fill="#E7F9CA"/>
<path fill-rule="evenodd" clip-rule="evenodd" d="M53.5023 22.076H28.5781V20.0098H53.5023V22.076Z" fill="#E7F9CA"/>
<path fill-rule="evenodd" clip-rule="evenodd" d="M53.5023 26.8485H28.5781V24.7822H53.5023V26.8485Z" fill="#E7F9CA"/>
<path fill-rule="evenodd" clip-rule="evenodd" d="M53.5023 41.1434H28.5781V39.0771H53.5023V41.1434Z" fill="#E7F9CA"/>
<path fill-rule="evenodd" clip-rule="evenodd" d="M53.5023 45.9041H28.5781V43.8379H53.5023V45.9041Z" fill="#E7F9CA"/>
<path fill-rule="evenodd" clip-rule="evenodd" d="M53.5023 50.6649H28.5781V48.5986H53.5023V50.6649Z" fill="#E7F9CA"/>
<path fill-rule="evenodd" clip-rule="evenodd" d="M53.5023 64.9715H28.5781V62.9053H53.5023V64.9715Z" fill="#E7F9CA"/>
<path fill-rule="evenodd" clip-rule="evenodd" d="M53.5023 69.7322H28.5781V67.666H53.5023V69.7322Z" fill="#E7F9CA"/>
<path fill-rule="evenodd" clip-rule="evenodd" d="M53.5023 74.494H28.5781V72.4277H53.5023V74.494Z" fill="#E7F9CA"/>
<path fill-rule="evenodd" clip-rule="evenodd" d="M39.189 5.99245H22.226C21.7784 5.99245 21.4275 5.62995 21.4275 5.19495C21.4275 4.75996 21.7784 4.39746 22.226 4.39746H39.189C39.6245 4.39746 39.9875 4.75996 39.9875 5.19495C39.9875 5.62995 39.6245 5.99245 39.189 5.99245Z" fill="#435564"/>
<path fill-rule="evenodd" clip-rule="evenodd" d="M35.0753 100.714C35.0753 102.514 33.6235 103.964 31.8328 103.964C30.0421 103.964 28.5781 102.514 28.5781 100.714C28.5781 98.9256 30.0421 97.4756 31.8328 97.4756C33.6235 97.4756 35.0753 98.9256 35.0753 100.714Z" fill="#58627A"/>
<path fill-rule="evenodd" clip-rule="evenodd" d="M31.8327 99.0106C30.889 99.0106 30.1268 99.7839 30.1268 100.714C30.1268 101.657 30.889 102.418 31.8327 102.418C32.7644 102.418 33.5387 101.657 33.5387 100.714C33.5387 99.7839 32.7644 99.0106 31.8327 99.0106ZM31.8327 105.499C29.1951 105.499 27.0415 103.348 27.0415 100.714C27.0415 98.0801 29.1951 95.9414 31.8327 95.9414C34.4704 95.9414 36.624 98.0801 36.624 100.714C36.624 103.348 34.4704 105.499 31.8327 105.499Z" fill="#435564"/>
<path fill-rule="evenodd" clip-rule="evenodd" d="M44.694 90.6602H18.9713C17.3621 90.6602 16.0554 89.3552 16.0554 87.7602V85.4765C16.0554 83.8694 17.3621 82.5645 18.9713 82.5645H44.694C46.2911 82.5645 47.5978 83.8694 47.5978 85.4765V87.7602C47.5978 89.3552 46.2911 90.6602 44.694 90.6602Z" fill="#80B729"/>
<path fill-rule="evenodd" clip-rule="evenodd" d="M29.8605 95.3008H42.3226L41.2216 104.919H34.1073C35.6076 104.109 36.6239 102.527 36.6239 100.714C36.6239 98.0799 34.4703 95.9412 31.8327 95.9412C31.0825 95.9412 30.3687 96.1104 29.7395 96.4124L29.8605 95.3008ZM29.546 104.919H28.7595L28.82 104.424C29.0378 104.617 29.2919 104.774 29.546 104.919Z" fill="#747C90"/>
<path fill-rule="evenodd" clip-rule="evenodd" d="M41.0402 106.454H28.5781L28.7596 104.919H29.5461C30.2236 105.294 31.01 105.499 31.8328 105.499C32.6555 105.499 33.4299 105.294 34.1074 104.919H41.2217L41.0402 106.454Z" fill="#63717E"/>
<path fill-rule="evenodd" clip-rule="evenodd" d="M42.3227 95.3011H29.8606L30.393 90.6611H42.855L42.3227 95.3011Z" fill="#B7E17D"/>
<path fill-rule="evenodd" clip-rule="evenodd" d="M31.8327 102.418C30.889 102.418 30.1267 101.657 30.1267 100.714C30.1267 99.7841 30.889 99.0107 31.8327 99.0107C32.7643 99.0107 33.5387 99.7841 33.5387 100.714C33.5387 101.657 32.7643 102.418 31.8327 102.418Z" fill="#747C90"/>
<path fill-rule="evenodd" clip-rule="evenodd" d="M31.8327 105.499C31.01 105.499 30.2236 105.294 29.546 104.919C29.2919 104.774 29.0379 104.617 28.8201 104.424L29.7396 96.4127C30.3688 96.1106 31.0826 95.9414 31.8327 95.9414C34.4703 95.9414 36.624 98.0801 36.624 100.714C36.624 102.527 35.6077 104.11 34.1074 104.919C33.4298 105.294 32.6555 105.499 31.8327 105.499ZM31.8327 99.0106C30.889 99.0106 30.1268 99.7839 30.1268 100.714C30.1268 101.657 30.889 102.418 31.8327 102.418C32.7644 102.418 33.5387 101.657 33.5387 100.714C33.5387 99.7839 32.7644 99.0106 31.8327 99.0106Z" fill="#63717E"/>
<path fill-rule="evenodd" clip-rule="evenodd" d="M43.7865 82.5649H31.3245L32.2561 74.4933H44.7182L43.7865 82.5649ZM44.948 72.4271H32.4981L32.8006 69.7325H45.2626L44.948 72.4271ZM45.5046 67.6663H33.0425L33.3571 64.9717H45.8071L45.5046 67.6663ZM46.0491 62.9055H33.587L34.9905 50.6651H47.4526L46.0491 62.9055ZM47.6945 48.5989H35.2325L35.547 45.9044H47.997L47.6945 48.5989ZM48.239 43.8381H35.7769L36.0915 41.1436H48.5536L48.239 43.8381Z" fill="#B7E17D"/>
<path fill-rule="evenodd" clip-rule="evenodd" d="M52.2437 8.96596H39.7937L40.4713 3.06934H52.9212L52.2437 8.96596Z" fill="#747C90"/>
<path fill-rule="evenodd" clip-rule="evenodd" d="M52.9214 3.06875H40.4714L40.6408 1.53418H53.1029L52.9214 3.06875Z" fill="#63717E"/>
<path fill-rule="evenodd" clip-rule="evenodd" d="M48.7837 39.0773H36.3337L37.7372 26.849H50.1872L48.7837 39.0773ZM50.4292 24.7828H37.9671L38.2817 22.0761H50.7438L50.4292 24.7828ZM50.9736 20.0099H38.5237L38.8262 17.3153H51.2882L50.9736 20.0099ZM51.5302 15.2491H39.0681L39.7941 8.96582H52.244L51.5302 15.2491Z" fill="#B7E17D"/>
<path fill-rule="evenodd" clip-rule="evenodd" d="M51.2882 17.3153H38.8262L39.0682 15.249H51.5302L51.2882 17.3153Z" fill="#EBFAD3"/>
<path fill-rule="evenodd" clip-rule="evenodd" d="M50.7436 22.076H38.2815L38.5235 20.0098H50.9734L50.7436 22.076Z" fill="#EBFAD3"/>
<path fill-rule="evenodd" clip-rule="evenodd" d="M50.187 26.8485H37.7371L37.9669 24.7822H50.429L50.187 26.8485Z" fill="#EBFAD3"/>
<path fill-rule="evenodd" clip-rule="evenodd" d="M48.5539 41.1434H36.0918L36.3338 39.0771H48.7837L48.5539 41.1434Z" fill="#EBFAD3"/>
<path fill-rule="evenodd" clip-rule="evenodd" d="M47.9971 45.9041H35.5471L35.777 43.8379H48.2391L47.9971 45.9041Z" fill="#EBFAD3"/>
<path fill-rule="evenodd" clip-rule="evenodd" d="M47.4525 50.6649H34.9905L35.2325 48.5986H47.6945L47.4525 50.6649Z" fill="#EBFAD3"/>
<path fill-rule="evenodd" clip-rule="evenodd" d="M45.8071 64.9715H33.3572L33.5871 62.9053H46.0491L45.8071 64.9715Z" fill="#EBFAD3"/>
<path fill-rule="evenodd" clip-rule="evenodd" d="M45.2629 69.7322H32.8008L33.0428 67.666H45.5048L45.2629 69.7322Z" fill="#EBFAD3"/>
<path fill-rule="evenodd" clip-rule="evenodd" d="M44.7182 74.494H32.2561L32.4981 72.4277H44.9481L44.7182 74.494Z" fill="#EBFAD3"/>
<path fill-rule="evenodd" clip-rule="evenodd" d="M42.8551 90.6602H30.3931L31.3247 82.5645H43.7868L42.8551 90.6602Z" fill="#95C34D"/>
<path fill-rule="evenodd" clip-rule="evenodd" d="M25.3112 104.919H19.2859L20.3869 95.3007H26.4244L25.3112 104.919ZM36.3456 8.96596H30.3082L30.659 5.99348H36.6844L36.3456 8.96596ZM36.8659 4.39849H30.8405L30.9857 3.06934H37.0232L36.8659 4.39849Z" fill="#747C90"/>
<path fill-rule="evenodd" clip-rule="evenodd" d="M25.1298 106.453H19.1045L19.286 104.918H25.3113L25.1298 106.453ZM37.0233 3.06875H30.9858L31.1673 1.53418H37.1926L37.0233 3.06875Z" fill="#63717E"/>
<path fill-rule="evenodd" clip-rule="evenodd" d="M26.4247 95.3006H20.3872L20.9196 90.6606H26.9449L26.4247 95.3006ZM27.8886 82.5648H21.8512L22.4925 76.9582C24.0169 76.5353 25.1301 75.1457 25.1301 73.4903V65.89C25.1301 64.8871 24.7187 63.9808 24.0653 63.3283L28.8082 22.0761H34.8335L34.5311 24.7828H28.5783V26.849H34.2891L32.8856 39.0773H28.5783V41.1435H32.6436L32.329 43.8381H28.5783V45.9043H32.0991L31.7846 48.5989H28.5783V50.6651H31.5426L30.1391 62.9054H28.5783V64.9716H29.9092L29.5946 67.6662H28.5783V69.7324H29.3526L29.0502 72.427H28.5783V74.4932H28.8082L27.8886 82.5648ZM35.0755 20.0099H29.0381L29.3526 17.3153H35.378L35.0755 20.0099ZM35.62 15.2491H29.5946L30.3085 8.96582H36.3459L35.62 15.2491Z" fill="#B7E17D"/>
<path fill-rule="evenodd" clip-rule="evenodd" d="M22.4924 76.958L24.0653 63.3281C24.7187 63.9806 25.13 64.8869 25.13 65.8898V73.4901C25.13 75.1455 24.0169 76.5351 22.4924 76.958Z" fill="#EBFAD3"/>
<path fill-rule="evenodd" clip-rule="evenodd" d="M35.3779 17.3153H29.3525L29.5945 15.249H35.6199L35.3779 17.3153Z" fill="#EBFAD3"/>
<path fill-rule="evenodd" clip-rule="evenodd" d="M34.8335 22.076H28.8081L29.038 20.0098H35.0754L34.8335 22.076Z" fill="#EBFAD3"/>
<path fill-rule="evenodd" clip-rule="evenodd" d="M34.2889 26.8485H28.5781V24.7822H34.5309L34.2889 26.8485Z" fill="#EBFAD3"/>
<path fill-rule="evenodd" clip-rule="evenodd" d="M32.6434 41.1434H28.5781V39.0771H32.8854L32.6434 41.1434Z" fill="#EBFAD3"/>
<path fill-rule="evenodd" clip-rule="evenodd" d="M32.099 45.9041H28.5781V43.8379H32.3288L32.099 45.9041Z" fill="#EBFAD3"/>
<path fill-rule="evenodd" clip-rule="evenodd" d="M31.5424 50.6649H28.5781V48.5986H31.7844L31.5424 50.6649Z" fill="#EBFAD3"/>
<path fill-rule="evenodd" clip-rule="evenodd" d="M29.909 64.9715H28.5781V62.9053H30.1389L29.909 64.9715Z" fill="#EBFAD3"/>
<path fill-rule="evenodd" clip-rule="evenodd" d="M29.3525 69.7322H28.5781V67.666H29.5944L29.3525 69.7322Z" fill="#EBFAD3"/>
<path fill-rule="evenodd" clip-rule="evenodd" d="M28.808 74.494H28.5781V72.4277H29.05L28.808 74.494Z" fill="#EBFAD3"/>
<path fill-rule="evenodd" clip-rule="evenodd" d="M36.6845 5.99245H30.6592L30.8407 4.39746H36.866L36.6845 5.99245Z" fill="#63717E"/>
<path fill-rule="evenodd" clip-rule="evenodd" d="M26.9448 90.6602H20.9194L21.8511 82.5645H27.8885L26.9448 90.6602Z" fill="#95C34D"/>
<path fill-rule="evenodd" clip-rule="evenodd" d="M8.98963 3.06914C5.73497 3.06914 3.08527 5.71537 3.08527 8.96576V99.0221C3.08527 102.273 5.73497 104.919 8.98963 104.919H54.0104C57.265 104.919 59.9147 102.273 59.9147 99.0221V8.96576C59.9147 5.71537 57.265 3.06914 54.0104 3.06914H8.98963ZM54.0104 108H8.98963C4.0411 108 0 103.976 0 99.0221V8.96576C0 4.02372 4.0411 0 8.98963 0H54.0104C58.9589 0 62.9879 4.02372 62.9879 8.96576L63 99.0221C63 103.976 58.9589 108 54.0104 108Z" fill="#435564"/>
<g clip-path="url(#clip0_546_2)">
<path d="M111.5 26.79L48.7096 26.7903C46.1086 26.7903 44 28.8989 44 31.5V51.9228C44 54.5239 46.1086 56.6324 48.7096 56.6324H51.0645C51.0645 56.6324 51.0645 62.0875 51.0645 65.5715C51.0645 66.6205 52.3268 67.1443 53.0685 66.4026C56.4297 63.0415 62.8383 56.6326 62.8383 56.6326L111.5 56.6323C114.101 56.6323 116.21 54.5237 116.21 51.9227V31.4997C116.21 28.8986 114.101 26.79 111.5 26.79Z" fill="#37C2BB"/>
<path d="M46.3548 40.1491L46.3548 27.5C44.953 28.3158 44 29.8417 44 31.5804L44 51.9232C44 54.5242 46.1086 56.6328 48.7097 56.6328H51.0645V65.5728C51.0645 66.6187 52.3233 67.1482 53.0629 66.4087C56.4223 63.0491 62.8383 56.6328 62.8383 56.6328H84.0322C85.7711 56.6328 87.2966 55.6798 88.1123 54.278H60.4839C52.6806 54.2781 46.3548 47.9522 46.3548 40.1491Z" fill="#11BBB1"/>
<circle cx="69.5" cy="40.5" r="3.5" fill="#EBEBEB"/>
<circle cx="80.5" cy="40.5" r="3.5" fill="#EBEBEB"/>
<circle cx="91.5" cy="40.5" r="3.5" fill="#EBEBEB"/>
</g>
<defs>
<clipPath id="clip0_546_2">
<rect width="73" height="73" fill="white" transform="translate(44 4)"/>
</clipPath>
</defs>
</svg>
